<svg width="148" height="37" viewBox="0 0 148 37" fill="none" xmlns="http://www.w3.org/2000/svg">
<g clip-path="url(#clip0_4252_61)">
<path d="M76.3036 12.7325H70.3396V18.1209H67.6924V5.4096H70.3396V10.4328H76.3036V5.4096H78.9491V18.1206H76.3036V12.7325ZM83.3416 14.5546C83.3416 15.0138 83.4432 15.353 83.6478 15.5697C83.7887 15.7106 83.9766 15.8104 84.2146 15.8682C84.4495 15.9242 84.7481 15.953 85.1054 15.953C85.4252 15.953 85.7418 15.9318 86.0539 15.8863C86.3674 15.8424 86.6267 15.7819 86.8313 15.7043C86.9343 15.6664 86.9903 15.6149 87.0038 15.5513C87.016 15.4876 87.0237 15.4104 87.0237 15.321V8.76302H89.4966V18.1202H87.6176L87.2919 17.3142L86.754 17.6019C86.3191 17.8322 85.9328 18.002 85.595 18.1095C85.2557 18.2183 84.9012 18.273 84.5299 18.273C83.9933 18.273 83.501 18.1926 83.0542 18.0336C82.6057 17.8729 82.2195 17.6398 81.8934 17.3337C81.5678 17.0262 81.3148 16.646 81.1359 16.1931C80.9571 15.7388 80.8677 15.2177 80.8677 14.6298V8.76267H83.342V14.5539L83.3416 14.5546ZM100.044 13.0779C100.044 13.2188 100.038 13.3688 100.024 13.5295C100.012 13.6884 99.9864 13.8325 99.9484 13.9598C99.9091 14.0749 99.859 14.1462 99.7953 14.1702C99.7303 14.196 99.6468 14.2095 99.5452 14.2095H93.3509C93.4146 14.7835 93.6508 15.2413 94.06 15.5805C94.4692 15.9183 95.0569 16.088 95.8252 16.088C96.1314 16.088 96.4706 16.0501 96.8405 15.9729C97.2118 15.8956 97.5952 15.7882 97.9922 15.6473L99.0469 15.2838L99.8333 16.6637C99.2696 17.1501 98.6182 17.5393 97.8771 17.8333C97.1345 18.1272 96.3739 18.274 95.5952 18.274C94.9163 18.274 94.2876 18.1557 93.7058 17.9195C93.124 17.6833 92.6195 17.3501 92.1905 16.9229C91.7618 16.4943 91.4267 15.9868 91.1842 15.3989C90.9416 14.811 90.8192 14.1643 90.8192 13.4613C90.8192 12.7203 90.9448 12.0524 91.1936 11.4586C91.4437 10.8634 91.7785 10.3559 92.2012 9.93324C92.6226 9.51197 93.1181 9.18637 93.6863 8.95608C94.2559 8.7258 94.8593 8.61065 95.4985 8.61065C96.1637 8.61065 96.7772 8.72893 97.3395 8.96513C97.9032 9.20307 98.382 9.52102 98.779 9.92419C99.1746 10.327 99.485 10.7998 99.7076 11.3435C99.9321 11.8858 100.044 12.4643 100.044 13.0779ZM97.5893 12.4643C97.5378 11.9658 97.3273 11.5599 96.956 11.2464C96.5848 10.9344 96.0938 10.7768 95.4804 10.7768C94.853 10.7768 94.3575 10.9344 93.9939 11.2464C93.6289 11.5599 93.4152 11.9662 93.3516 12.4643H97.5897H97.5893ZM105.472 17.7376C105.242 17.8513 104.94 17.9543 104.57 18.0437C104.199 18.1331 103.867 18.1787 103.573 18.1787C103.24 18.1787 102.94 18.1241 102.672 18.0152C102.404 17.9063 102.18 17.7623 102.001 17.5835C101.617 17.188 101.425 16.6244 101.425 15.896V4.52637H103.899V16.1075L105.472 16.4331V17.7372V17.7376ZM110.437 17.7376C110.209 17.8513 109.907 17.9543 109.537 18.0437C109.166 18.1331 108.834 18.1787 108.54 18.1787C108.207 18.1787 107.907 18.1241 107.639 18.0152C107.369 17.9063 107.146 17.7623 106.967 17.5835C106.584 17.188 106.392 16.6244 106.392 15.896V4.52637H108.866V16.1075L110.437 16.4331V17.7372V17.7376ZM116.919 12.234C116.919 11.7491 116.804 11.3901 116.574 11.1615C116.305 10.892 115.845 10.7587 115.193 10.7587C114.874 10.7587 114.519 10.7994 114.13 10.8829C113.739 10.966 113.333 11.0784 112.911 11.2176L112.125 11.4872L111.358 10.1451C111.984 9.65877 112.649 9.28169 113.352 9.01348C114.056 8.74528 114.765 8.61065 115.481 8.61065C116.081 8.61065 116.637 8.69379 117.15 8.86042C117.66 9.02705 118.101 9.30117 118.472 9.68451C118.767 9.97846 118.994 10.3434 119.153 10.7768C119.313 11.2116 119.394 11.7494 119.394 12.3871V16.1833L120.679 16.4331V17.7557C120.448 17.8708 120.16 17.9661 119.815 18.0434C119.469 18.1206 119.169 18.1585 118.913 18.1585C118.581 18.1585 118.281 18.0858 118.012 17.9373C117.744 17.7919 117.495 17.5904 117.265 17.3344L116.766 17.6026C115.922 18.0496 115.122 18.2737 114.369 18.2737C113.857 18.2737 113.39 18.1933 112.969 18.0343C112.546 17.8736 112.186 17.6541 111.885 17.3723C111.584 17.092 111.351 16.7587 111.185 16.3757C111.019 15.9924 110.935 15.5774 110.935 15.129C110.935 14.285 111.229 13.6338 111.819 13.1733C112.407 12.7141 113.199 12.4841 114.196 12.4841H114.254C114.663 12.4841 115.113 12.5189 115.605 12.5885C116.097 12.6598 116.535 12.7461 116.919 12.8477V12.234H116.919ZM116.919 14.4774C116.919 14.3501 116.85 14.285 116.709 14.285H114.024C113.755 14.285 113.566 14.3473 113.458 14.4684C113.35 14.5894 113.295 14.7773 113.295 15.0333C113.295 15.3909 113.422 15.6845 113.678 15.9148C113.934 16.1451 114.318 16.2602 114.83 16.2602C115.162 16.2602 115.508 16.2192 115.865 16.136C116.223 16.0529 116.491 15.9725 116.671 15.8953C116.773 15.8574 116.839 15.8195 116.871 15.7815C116.903 15.7422 116.92 15.6727 116.92 15.5694V14.4771L116.919 14.4774Z" fill="#E57200"/>
<path d="M5.06182 18.1205H2.66476L3.24062 14.765H1.74512V12.6368H3.62407L3.93166 10.9114H1.74512V8.78314H4.29527L4.90907 5.40955H7.30612L6.69233 8.78314H8.57128L9.18508 5.40955H11.5821L10.9683 8.78314H12.4837V10.9114H10.6047L10.2971 12.6368H12.4837V14.765H9.91369L9.33957 18.1205H6.94251L7.51663 14.765H5.63768L5.06182 18.1205ZM6.02078 12.6368H7.90112L8.20732 10.9114H6.32837L6.02078 12.6368ZM19.8673 5.40955C20.5308 5.40955 21.1324 5.47007 21.669 5.59148C22.2069 5.71254 22.6631 5.90212 23.0403 6.15641C23.4174 6.41244 23.7083 6.73804 23.9129 7.13496C24.1175 7.53048 24.2205 8.00427 24.2205 8.55286C24.2205 9.07709 24.1116 9.56027 23.8948 10.001C23.6767 10.4418 23.3889 10.8599 23.0312 11.2568C23.5935 11.5508 24.066 11.9536 24.4509 12.4643C24.8343 12.9763 25.025 13.6216 25.025 14.4001C25.025 15.6406 24.6325 16.5708 23.8461 17.1904C23.0598 17.8099 21.9052 18.1205 20.384 18.1205H14.4973V5.40955H19.8673ZM20.6143 10.6811C20.7553 10.6811 20.8763 10.6585 20.9793 10.6143C21.0809 10.5687 21.1704 10.4825 21.2476 10.3551C21.3492 10.1885 21.4324 9.99754 21.4974 9.77943C21.5611 9.56271 21.5928 9.32651 21.5928 9.07048C21.5928 8.50833 21.4459 8.12811 21.1519 7.92983C20.8579 7.7312 20.3655 7.63275 19.6745 7.63275H17.1442V10.6807H20.614L20.6143 10.6811ZM17.1442 15.8952H20.2309C20.9974 15.8952 21.5385 15.7711 21.852 15.5227C22.1641 15.2726 22.3217 14.8607 22.3217 14.285C22.3217 13.7489 22.1961 13.3624 21.9473 13.1262C21.6975 12.89 21.2215 12.7718 20.5186 12.7718H17.1442V15.8952ZM28.8602 14.5546C28.8602 15.0138 28.9631 15.3529 29.1677 15.5696C29.3073 15.7105 29.4966 15.8104 29.7328 15.8681C29.9691 15.9241 30.2662 15.953 30.6253 15.953C30.9434 15.953 31.2603 15.9318 31.5738 15.8862C31.8874 15.8424 32.1466 15.7818 32.3512 15.7043C32.4528 15.6664 32.5102 15.6149 32.5238 15.5512C32.5359 15.4876 32.5419 15.4103 32.5419 15.3209V8.76297H35.0162V18.1202H33.1372L32.8098 17.3142L32.2732 17.6019C31.8383 17.8322 31.4521 18.0019 31.1125 18.1094C30.7746 18.2183 30.42 18.2729 30.0488 18.2729C29.5122 18.2729 29.0199 18.1926 28.5713 18.0336C28.1242 17.8729 27.738 17.6398 27.4123 17.3337C27.0849 17.0262 26.8333 16.6459 26.6548 16.193C26.4746 15.7387 26.3865 15.2176 26.3865 14.6297V8.76262H28.8595V14.5539L28.8602 14.5546ZM45.564 13.0779C45.564 13.2188 45.5564 13.3687 45.5442 13.5294C45.5306 13.6884 45.5063 13.8324 45.467 13.9597C45.429 14.0749 45.3775 14.1462 45.3139 14.1702C45.2502 14.1959 45.167 14.2095 45.0654 14.2095H38.8711C38.9348 14.7835 39.1711 15.2413 39.5803 15.5804C39.9895 15.9182 40.5772 16.088 41.3441 16.088C41.6516 16.088 41.9895 16.05 42.3608 15.9728C42.732 15.8956 43.1155 15.7881 43.5108 15.6472L44.5654 15.2837L45.3518 16.6637C44.7895 17.15 44.1381 17.5393 43.3956 17.8332C42.6548 18.1272 41.8942 18.274 41.1137 18.274C40.4362 18.274 39.8075 18.1557 39.2257 17.9195C38.6439 17.6833 38.1377 17.35 37.7104 16.9228C37.2817 16.4943 36.9466 15.9867 36.7027 15.3988C36.4602 14.811 36.3391 14.1643 36.3391 13.4612C36.3391 12.7203 36.4633 12.0524 36.7135 11.4586C36.9619 10.8634 37.2984 10.3558 37.7198 9.93319C38.1425 9.51192 38.6366 9.18632 39.2062 8.95603C39.7744 8.72575 40.3792 8.6106 41.0184 8.6106C41.6837 8.6106 42.2971 8.72888 42.8594 8.96508C43.4217 9.20302 43.9019 9.52097 44.2975 9.92414C44.6945 10.327 45.0035 10.7997 45.2279 11.3434C45.4523 11.8858 45.5644 12.4643 45.5644 13.0779M43.1092 12.4643C43.0577 11.9658 42.8472 11.5598 42.4759 11.2464C42.1047 10.9343 41.6123 10.7768 40.9985 10.7768C40.3729 10.7768 39.8774 10.9343 39.5135 11.2464C39.1485 11.5598 38.9345 11.9661 38.8711 12.4643H43.1092ZM53.1188 12.3491C53.1188 11.8885 53.0158 11.5567 52.8126 11.3525C52.5565 11.0843 52.0764 10.9496 51.3731 10.9496H51.3352C51.0033 10.9496 50.6762 10.9754 50.3578 11.0269C50.038 11.0784 49.7819 11.142 49.5895 11.2179C49.4879 11.2572 49.4305 11.3041 49.4169 11.3619C49.4048 11.4193 49.3988 11.4937 49.3988 11.5831V18.1212H46.9245V8.76401H48.8035L49.1111 9.5895L49.8401 9.18667C50.1341 9.02004 50.4598 8.88368 50.8175 8.77479C51.1752 8.66591 51.5402 8.6113 51.9114 8.6113C52.448 8.6113 52.9435 8.69444 53.3979 8.86107C53.8509 9.02769 54.2403 9.26389 54.5677 9.57001C54.8934 9.87753 55.145 10.2577 55.3238 10.7107C55.5041 11.165 55.5935 11.6788 55.5935 12.2541V18.1212H53.1192V12.3498L53.1188 12.3491ZM62.7648 12.234C62.7648 11.749 62.6496 11.39 62.4193 11.1615C62.151 10.8919 61.6903 10.7587 61.039 10.7587C60.7192 10.7587 60.3646 10.7994 59.9739 10.8829C59.5845 10.966 59.1784 11.0784 58.7571 11.2175L57.9707 11.4871L57.2042 10.145C57.8298 9.65872 58.4951 9.28163 59.1983 9.01343C59.9015 8.74523 60.6106 8.6106 61.3271 8.6106C61.9273 8.6106 62.4833 8.69374 62.9955 8.86037C63.5063 9.027 63.9472 9.30112 64.3184 9.68446C64.6125 9.97841 64.8397 10.3433 64.9987 10.7768C65.1594 11.2116 65.2395 11.7494 65.2395 12.387V16.1833L66.5245 16.4331V17.7556C66.2941 17.8708 66.0064 17.9661 65.6608 18.0433C65.3153 18.1205 65.0154 18.1585 64.7593 18.1585C64.4273 18.1585 64.1274 18.0858 63.8577 17.9372C63.5895 17.7918 63.341 17.5904 63.1107 17.3344L62.6121 17.6026C61.7679 18.0496 60.968 18.2736 60.215 18.2736C59.7028 18.2736 59.2362 18.1932 58.8148 18.0343C58.3921 17.8736 58.0316 17.6541 57.7313 17.3723C57.4296 17.0919 57.1965 16.7587 57.0312 16.3757C56.8646 15.9923 56.781 15.5773 56.781 15.1289C56.781 14.285 57.0751 13.6338 57.6628 13.1732C58.2508 12.714 59.0445 12.4841 60.0417 12.4841H60.0991C60.5083 12.4841 60.9582 12.5189 61.4506 12.5884C61.9429 12.6598 62.381 12.746 62.7645 12.8476V12.234H62.7648ZM62.7648 14.4774C62.7648 14.35 62.6952 14.285 62.5543 14.285H59.8695C59.6012 14.285 59.4119 14.3472 59.3027 14.4683C59.1952 14.5894 59.1405 14.7772 59.1405 15.0332C59.1405 15.3908 59.2679 15.6844 59.524 15.9147C59.7801 16.145 60.1635 16.2602 60.674 16.2602C61.0073 16.2602 61.3528 16.2191 61.7105 16.136C62.0682 16.0528 62.3361 15.9725 62.515 15.8952C62.618 15.8573 62.6848 15.8194 62.7164 15.7815C62.7481 15.7422 62.7648 15.6726 62.7648 15.5693V14.4774Z" fill="white"/>
<path d="M130.95 19.7803C131.438 20.2437 132.078 20.4987 132.751 20.4987C133.425 20.4987 134.064 20.2437 134.553 19.7803C138.43 16.1037 140.31 13.0029 140.299 10.3003C140.294 9.09076 139.811 7.96055 138.938 7.11802C138.047 6.25775 136.872 5.80448 135.626 5.84379C134.48 5.87858 133.506 6.23862 132.751 6.89712C131.997 6.23862 131.022 5.87858 129.876 5.84379C128.632 5.80552 127.455 6.25775 126.564 7.11802C125.692 7.96055 125.209 9.09076 125.204 10.3003C125.193 13.0025 127.072 16.1037 130.95 19.7803ZM127.931 8.53209C128.416 8.06317 129.053 7.80784 129.731 7.80784C129.76 7.80784 129.787 7.80818 129.816 7.80923C130.782 7.8388 131.469 8.20371 131.914 8.92553C132.093 9.21565 132.41 9.39236 132.751 9.39236C133.092 9.39236 133.409 9.21565 133.588 8.92553C134.033 8.20405 134.719 7.8388 135.686 7.80923C136.396 7.7887 137.065 8.04404 137.571 8.53209C138.058 9.00275 138.328 9.63378 138.331 10.3083C138.34 12.3795 136.565 15.1617 133.199 18.3534C133.078 18.4685 132.918 18.5322 132.751 18.5322C132.584 18.5322 132.425 18.4685 132.303 18.3534C128.937 15.1614 127.162 12.3795 127.171 10.3083C127.174 9.63378 127.444 9.00275 127.931 8.53209H127.931ZM105.065 23.6886C105.08 23.6886 105.092 23.69 105.099 23.69H105.102C105.097 23.69 105.084 23.6886 105.065 23.6886ZM102.457 23.6159C102.464 23.6159 102.473 23.6162 102.48 23.6166C102.515 23.6173 102.511 23.6169 102.457 23.6159ZM146.01 20.9568C145.779 19.7855 144.747 18.9016 143.508 18.9013C142.802 18.9013 142.129 19.1924 141.659 19.6867C141.642 19.7027 141.602 19.7514 141.602 19.7514L140.719 20.7592L138.627 23.1463C138.478 22.9104 138.289 22.6993 138.065 22.5225C137.935 22.4008 137.765 22.3034 137.619 22.2467C137.449 22.1736 137.254 22.1006 137.02 22.0275C136.663 21.9058 136.111 21.7273 135.447 21.5729C134.32 21.305 132.561 20.9881 130.606 21.0601C130.193 21.0681 129.739 21.1005 129.261 21.1568C127.128 21.4316 125.165 22.6791 123.892 23.6754C123.503 23.9822 123.171 24.2695 122.905 24.5099C122.244 24.0949 121.319 24.1599 120.738 24.7012C120.52 24.6904 120.234 24.6765 119.852 24.6584C119.623 24.6494 119.41 24.6403 119.208 24.6313C119.122 24.5694 119.613 24.4814 118.864 24.298C118.748 24.2966 118.607 24.2949 118.437 24.2904C118.139 24.2813 117.916 24.2754 117.752 24.2692C117.779 24.2678 117.808 24.2646 117.837 24.2633C117.999 24.2664 118.136 24.2678 118.115 24.2664C118.071 24.2619 118.025 24.2559 117.98 24.2511C118.161 24.2375 118.36 24.2222 118.575 24.2072C119.492 24.1968 115.379 24.089 118.325 24.1648C118.673 24.1589 118.059 24.1269 117.399 24.0935H117.429C117.401 24.0921 117.373 24.0921 117.348 24.0921C116.461 24.0465 115.537 24.0013 116.802 24.0163C116.698 23.9937 115.341 23.9359 114.591 23.8952C114.712 23.8893 114.911 23.8848 115.217 23.883C114.914 23.8709 114.652 23.8604 114.42 23.8514C114.596 23.8514 114.849 23.8545 115.2 23.8604C115.532 23.8406 115.368 23.8076 115.247 23.7773C115.904 23.7818 116.449 23.7818 116.431 23.7668C115.529 23.7001 119.373 23.7547 118.969 23.667C120.849 23.6896 120.069 23.5988 119.061 23.5094C119.172 23.4399 120.095 23.4019 120.348 23.4232C120.422 23.3974 120.429 23.3731 120.395 23.3491C121.272 23.3125 123.207 23.2732 120.896 23.0596C122.067 23.0082 121.639 22.8944 121.087 22.7566C121.355 22.4672 123.051 22.1705 120.563 22.1448H120.482C120.392 22.1569 120.26 22.1705 120.073 22.1886C120.049 22.1827 120.023 22.1764 119.996 22.1705C120.076 22.1615 120.155 22.1524 120.229 22.1434C120.302 22.1448 120.387 22.1448 120.482 22.1448C120.672 22.119 120.678 22.1054 120.594 22.0992C121.432 21.9917 121.354 21.9294 118.832 21.8372C118.773 21.8404 118.659 21.8418 118.476 21.8418C118.481 21.8296 118.381 21.8192 118.001 21.8052C116.398 21.7492 116.72 21.784 116.801 21.8599C116.498 21.863 116.173 21.8675 115.964 21.8734C112.35 21.8038 116.396 21.9506 114.384 21.9294C113.229 21.9173 113.966 21.9583 114.181 21.984C114.03 21.9809 114 21.9809 114.193 21.9868C113.472 21.9764 113.413 21.9854 113.635 22.0035C113.427 22.0004 113.158 21.9976 112.803 21.9913C111.944 21.9959 114.145 22.0867 112.788 22.0776C112.723 22.0762 112.657 22.0745 112.589 22.0731C112.365 22.07 112.165 22.0686 111.98 22.0672C111.763 22.0627 111.513 22.0581 111.223 22.0519C107.933 22.0049 110.318 22.1169 109.185 22.1291C109.284 22.1458 109.311 22.1611 109.244 22.1729C108.657 22.1715 108.259 22.1743 108.724 22.2001C108.38 22.2077 107.866 22.2105 107.145 22.2077C107.609 22.2655 105.007 22.238 105.106 22.2849C106.178 22.359 104.175 22.3486 103.066 22.3622C105.466 22.4742 99.7843 22.3608 101.028 22.4394C95.1492 22.3197 98.8358 22.4665 98.9844 22.5135C98.9193 22.5135 98.8587 22.5121 98.801 22.5121C98.5859 22.5076 98.3813 22.5031 98.1872 22.4999V22.4968C98.1872 22.4968 98.1858 22.4982 98.1858 22.4999C97.4857 22.4846 96.9387 22.4756 96.5146 22.4683C96.4283 22.4137 96.3448 22.3545 96.2707 22.2863C95.6541 21.7273 95.0507 21.7638 94.3781 21.9969C94.1843 22.0637 93.9874 22.1788 93.7918 22.1788C92.2173 22.1712 90.6401 22.1667 89.0659 22.1121C87.9128 22.071 86.7611 21.8971 85.6079 21.8939C84.4214 21.8908 83.2366 22.047 82.0487 22.0894C80.9471 22.1301 79.841 22.0606 78.7425 22.135C77.2863 22.2349 75.8363 22.5608 74.3847 22.5545C73.6227 22.5531 72.8603 22.5441 72.0983 22.5333C72.0938 22.5211 72.0878 22.509 72.0833 22.4968C72.0729 22.5072 72.0635 22.5211 72.053 22.5316C71.5241 22.5239 70.997 22.5163 70.4681 22.5058C70.3606 22.4408 70.259 22.3695 70.1664 22.2863C69.5499 21.7273 68.9482 21.7638 68.2739 21.9969C68.0801 22.0637 67.8832 22.1788 67.689 22.1788C66.1131 22.1712 64.5372 22.1667 62.9631 22.1121C61.8086 22.071 60.6568 21.8971 59.5037 21.8939C58.3172 21.8908 57.1324 22.047 55.9459 22.0894C54.8443 22.1301 53.7367 22.0606 52.6382 22.135C51.182 22.2349 49.7321 22.5608 48.2805 22.5545C44.1287 22.541 39.9769 22.3834 35.8237 22.3305C35.0798 22.3197 34.3341 22.326 33.5902 22.3364C33.4082 22.3305 33.2279 22.3256 33.0477 22.3197C31.5129 22.2651 29.9641 22.0213 28.4672 21.6487C27.8792 21.5019 27.4189 21.4532 27.1551 21.9305C27.0521 22.1169 26.9491 22.3076 26.8489 22.5017C24.8972 22.5667 22.9456 22.6318 20.9939 22.6182C16.3104 22.5848 11.6252 22.4864 6.94313 22.3197C5.40831 22.2651 3.85956 22.0213 2.36266 21.6487C1.77462 21.5019 1.31428 21.4532 1.05192 21.9305C0.626024 22.6986 0.191429 23.5393 0.0686012 24.401C-0.0876303 25.4857 0.0717328 26.6204 0.0866948 27.7336C0.111052 29.5908 0.697355 31.2571 1.68694 32.7491C1.92181 33.1036 2.3992 33.4246 2.79621 33.4747C3.65984 33.5822 4.54329 33.5172 5.4177 33.5005C7.97691 33.4535 10.5361 33.3731 13.0971 33.3505C15.1472 33.3338 17.1987 33.4097 19.2489 33.3898C21.1292 33.3731 23.0096 33.2761 24.8917 33.2323C25.8993 33.2079 26.9098 33.2458 27.9175 33.2065C28.0236 33.202 28.128 33.1957 28.2341 33.1884C28.4446 33.3384 28.684 33.4476 28.9008 33.4747C29.763 33.5822 30.6465 33.5172 31.5205 33.5005C34.0811 33.4535 36.6403 33.3731 39.1999 33.3505C39.6073 33.3474 40.0151 33.3505 40.4212 33.3519C45.223 33.7154 50.0188 33.3808 54.8175 33.3109C57.5587 33.2716 60.304 33.161 63.0393 33.2851C65.3803 33.3912 67.7064 33.8275 70.0457 34.0167C70.2973 34.0365 70.7322 33.7349 70.9744 33.5168C74.2911 33.5335 77.605 33.3592 80.922 33.3109C83.6632 33.2716 86.4086 33.161 89.1439 33.2851C90.9487 33.3669 92.7441 33.6441 94.5427 33.8532C94.5351 33.8577 94.526 33.8609 94.5184 33.8636C94.5667 33.865 94.6123 33.865 94.6593 33.8668C95.1562 33.9228 95.6534 33.976 96.1503 34.0167C96.2898 34.0271 96.485 33.9395 96.6746 33.8212H96.7853C99.4082 33.8591 99.7036 33.8316 99.0505 33.7774C101.952 33.8229 107.799 33.9499 101.313 33.7349C105.171 33.8062 103.475 33.7245 103.575 33.6911C104.036 33.697 104.404 33.7015 104.701 33.7033C107.209 33.7652 105.099 33.6956 106.078 33.7078C106.769 33.7123 108.193 33.7321 108.074 33.7047C112.183 33.7955 109.889 33.7033 110.069 33.6775C110.859 33.6685 115.462 33.7624 112.065 33.6292C109.322 33.514 109.777 33.4838 114.059 33.5579C115.027 33.5683 114.916 33.5502 114.563 33.5245C115.319 33.5259 115.771 33.5199 114.894 33.4761C115.072 33.4716 114.892 33.458 114.616 33.4427C114.975 33.4472 115.444 33.4549 116.051 33.4653C115.304 33.4274 115.251 33.4079 115.521 33.3972C115.969 33.4062 116.512 33.417 117.165 33.4319C117.147 33.4121 116.948 33.3881 117.213 33.3773C117.388 33.3759 117.548 33.3728 117.682 33.3697C118.038 33.3697 118.591 33.3756 119.442 33.3895C119.698 33.3926 119.93 33.3947 120.15 33.3968L122.411 35.6555C122.743 35.9881 123.189 36.1745 123.66 36.1749V36.1829C124.13 36.1829 124.576 35.9967 124.908 35.6645L128.267 32.3101C128.599 31.9779 128.786 31.5322 128.786 31.0619C128.786 30.9082 128.759 30.7593 128.721 30.6142C129.042 30.3043 129.596 29.9251 130.384 29.9602C131.146 29.9929 131.957 30.2851 132.743 30.561C133.748 30.9183 134.786 31.2915 135.848 31.1865C137.275 31.0574 142.426 28.1253 146.489 25.6871H146.506C146.619 25.6304 146.708 25.5657 146.83 25.4926C146.879 25.4683 146.927 25.4359 146.968 25.4116C147 25.3872 147.032 25.3549 147.065 25.3305C147.625 24.8362 147.95 24.1394 147.95 23.4096C147.951 22.2119 147.114 21.2407 146.011 20.9561L146.01 20.9568ZM96.7428 22.5977C96.723 22.5886 96.7049 22.5778 96.6868 22.5674C96.8173 22.5765 96.914 22.5841 96.9488 22.5918C96.8761 22.5932 96.8079 22.5945 96.7428 22.5977ZM105.527 23.1296C105.483 23.131 105.437 23.1327 105.392 23.1341C105.195 23.125 104.999 23.116 104.94 23.1115C105.175 23.1191 105.368 23.125 105.527 23.1296ZM104.637 23.0871C104.568 23.084 104.493 23.0795 104.415 23.0763C104.58 23.0704 104.418 23.0565 103.948 23.0325C103.989 23.0311 104.01 23.0266 104.01 23.0235C104.136 23.0249 104.291 23.028 104.481 23.0311C104.555 23.0464 104.612 23.0659 104.638 23.0871H104.637ZM104.364 23.0099C104.404 23.0162 104.44 23.0221 104.475 23.0297C104.314 23.0266 104.158 23.0221 104.002 23.0193C103.99 23.0162 103.955 23.0116 103.898 23.0057C104.049 23.0071 104.207 23.0085 104.364 23.0099ZM107.218 23.7491C106.646 23.7324 106.315 23.7234 106.134 23.7188C106.116 23.7175 106.095 23.7175 106.072 23.7175C106.051 23.7161 106.033 23.7161 106.017 23.7161H106.031C105.89 23.7115 105.685 23.7056 105.387 23.698C105.282 23.6948 105.188 23.6921 105.099 23.6903C105.084 23.6889 105.07 23.6889 105.057 23.6889C105.038 23.6889 105.017 23.6875 104.99 23.6875H104.987C104.978 23.6875 104.97 23.6861 104.961 23.6861H104.97C104.838 23.683 104.723 23.6802 104.623 23.6771C104.503 23.674 104.359 23.6694 104.185 23.6649C104.164 23.6649 104.144 23.6635 104.129 23.6635C104.14 23.6635 104.152 23.6635 104.166 23.6649C104.154 23.6635 104.14 23.6635 104.128 23.6635C104.111 23.6635 104.099 23.6621 104.09 23.6621C104.099 23.6621 104.11 23.6621 104.123 23.6635C104.11 23.6621 104.098 23.6621 104.084 23.6621C104.057 23.6621 104.052 23.6608 104.066 23.6621C103.849 23.6562 103.592 23.6486 103.289 23.6395C102.99 23.6322 102.723 23.6249 102.48 23.6176C102.471 23.6176 102.461 23.6173 102.446 23.6169H102.44C102.392 23.6155 102.317 23.6138 102.219 23.611C102.204 23.611 102.19 23.6096 102.175 23.6096C102.136 23.6082 102.093 23.6065 102.048 23.6065C101.942 23.6034 101.839 23.6006 101.748 23.5974C101.624 23.5943 101.49 23.5898 101.345 23.5867C101.321 23.5853 101.301 23.5853 101.28 23.5835C101.192 23.5821 101.103 23.579 101.009 23.5776C100.992 23.5762 100.98 23.5762 100.968 23.5762C100.957 23.5762 100.946 23.5748 100.934 23.5748H100.93C100.454 23.5613 99.9054 23.546 99.3372 23.531H99.3615C99.3511 23.531 99.3326 23.531 99.3086 23.5296C99.3146 23.5296 99.3222 23.531 99.3267 23.531C99.3132 23.5296 99.2996 23.5296 99.286 23.5296H99.2693C100.695 23.4934 101.919 23.5341 99.2467 23.4691C99.1013 23.4659 98.2923 23.3783 99.0922 23.5237C98.9649 23.5206 98.8027 23.516 98.6256 23.5115C98.5727 23.3797 98.5163 23.251 98.4603 23.1236C100.523 23.1647 99.6938 23.125 99.1392 23.0934C100.247 23.1115 102.124 23.1539 100.548 23.0979C100.179 23.0875 99.9029 23.0781 99.706 23.0722C100.017 23.0767 100.244 23.0781 100.411 23.0781C102.097 23.116 104.887 23.1842 102.577 23.1097C101.424 23.0736 101.871 23.0659 102.557 23.0596C103.095 23.0687 103.516 23.0749 103.826 23.0777C104.082 23.0854 104.355 23.0944 104.647 23.1035C104.653 23.1156 104.651 23.1278 104.637 23.1428C104.708 23.1442 104.774 23.1459 104.838 23.1473C104.865 23.1487 104.899 23.1504 104.94 23.1518C104.802 23.1577 104.712 23.1654 104.717 23.1744C104.735 23.1758 104.75 23.1758 104.767 23.1776C102.262 23.3063 102.59 23.2864 105.304 23.3807C105.267 23.3821 105.234 23.3852 105.219 23.3884C104.34 23.3776 104.888 23.3974 105.561 23.4186C105.694 23.4246 105.87 23.4322 106.109 23.4412C106.182 23.4444 106.25 23.4472 106.319 23.4503C102.741 23.3699 103.982 23.4579 107.737 23.7335C107.549 23.738 107.376 23.7439 107.219 23.7502L107.218 23.7491ZM142.963 21.1787L143.101 21.0086L143.109 21.0006C143.368 20.7655 143.871 20.8469 144.033 21.1711L142.581 21.7461L142.395 21.8272L142.963 21.1787H142.963ZM116.341 30.0357C115.992 30.0298 115.701 30.0253 116.25 30.0448C116.044 30.0629 115.691 30.0719 115.08 30.0646C114.585 30.0691 114.835 30.0542 114.688 29.9404C115.174 29.9648 115.915 29.995 116.435 30.019C116.411 30.0249 116.379 30.0295 116.341 30.0357ZM116.618 29.8903C116.585 29.8948 116.565 29.9008 116.553 29.907C116.32 29.907 116.367 29.9147 116.538 29.9268C116.537 29.9314 116.537 29.9376 116.537 29.9435C115.603 29.9237 114.997 29.9115 114.636 29.907C114.518 29.8388 114.262 29.7418 113.71 29.6054C113.671 29.5919 113.624 29.5765 113.568 29.5599C113.659 29.5219 114.806 29.5129 114.968 29.4781C116.197 29.475 117.658 29.4673 115.882 29.3616C116.199 29.3508 116.367 29.3327 116.475 29.3132C116.608 29.3139 116.719 29.3143 116.821 29.3139C116.821 29.3223 116.818 29.3299 116.818 29.3383C116.818 29.4844 116.842 29.6263 116.877 29.7651C115.51 29.7783 115.577 29.826 116.618 29.8903ZM117.356 26.5212C117.315 26.5199 117.28 26.5199 117.242 26.5181C117.22 26.5167 117.197 26.5167 117.175 26.5167H117.209C117.142 26.5153 117.077 26.5136 117.015 26.5122C116.959 26.5108 116.912 26.5091 116.879 26.5077H116.892C116.871 26.5077 116.848 26.5077 116.828 26.5063C116.838 26.5063 116.851 26.5077 116.869 26.5077C116.849 26.5077 116.834 26.5063 116.824 26.5063H116.822C116.528 26.4986 116.311 26.4927 116.152 26.4882H116.143C116.124 26.4868 116.105 26.4868 116.087 26.4868H116.09C116.074 26.4854 116.053 26.4854 116.028 26.4854C116.015 26.484 116.004 26.484 115.992 26.484C115.983 26.484 115.971 26.4826 115.962 26.4826H115.933C115.925 26.4826 115.913 26.4812 115.903 26.4812H115.894C115.883 26.4812 115.869 26.4812 115.857 26.4799H115.856C115.838 26.4799 115.818 26.4799 115.796 26.4785H115.775C115.556 26.4725 115.134 26.4604 114.446 26.4423C114.513 26.4332 114.566 26.4242 114.613 26.4151C116.483 26.388 117.43 26.3348 115.762 26.2075C115.793 26.1922 115.803 26.1772 115.807 26.1605C115.909 26.156 116.021 26.1515 116.15 26.1469C117.151 26.1122 117.08 26.0516 117.154 25.9984H117.166C117.162 25.9984 117.159 25.997 117.156 25.997C117.206 25.9622 117.323 25.932 117.861 25.9139C118.33 25.9014 118.991 25.8927 119.551 25.8812L118.866 26.5651C118.318 26.5501 117.682 26.5317 117.263 26.5199C117.292 26.5212 117.323 26.5212 117.356 26.523V26.5212ZM123.659 34.1402L118.861 29.3393L121.944 26.2603L126.742 31.0612L123.659 34.1402ZM145.816 23.7902C145.784 23.8145 145.751 23.8305 145.719 23.8549C145.678 23.8872 145.613 23.9279 145.54 23.9683C145.516 23.9846 145.5 23.9926 145.476 24.0086C139.92 27.3297 136.335 29.1442 135.662 29.2249C135.029 29.2812 134.235 29.0054 133.392 28.7051C132.516 28.3886 131.519 28.0397 130.465 27.9906C130.4 27.9906 130.335 27.9906 130.271 27.9906L130.254 27.9826C128.995 27.9819 128.09 28.5277 127.498 29.044L124.308 25.8523C124.526 25.6665 124.784 25.4495 125.074 25.2161C126.153 24.3735 127.799 23.3205 129.47 23.1024C129.884 23.0541 130.265 23.0217 130.638 23.0217C132.397 22.9657 133.954 23.2419 134.967 23.4858C135.559 23.6239 136.038 23.778 136.394 23.8997C136.556 23.9484 136.686 23.9971 136.816 24.0458C136.962 24.1592 137.051 24.3297 137.059 24.5162V24.5405C137.056 24.5489 137.057 24.5579 137.055 24.5662C137.028 24.6431 136.988 24.7329 136.921 24.7593L132.469 24.2306C131.942 24.1735 131.447 24.5544 131.382 25.0894C131.317 25.6245 131.706 26.1111 132.241 26.1762L136.847 26.7213C136.871 26.7213 136.92 26.7213 136.92 26.7213V26.7293C137.413 26.7293 138.28 26.4767 138.76 25.5538L139.154 25.3872C139.164 25.3827 139.174 25.3813 139.183 25.3768L139.229 25.3562C139.24 25.3517 139.253 25.3496 139.264 25.3444L139.488 25.2463L144.99 22.9229C145.026 22.9045 145.056 22.8902 145.087 22.8746C145.095 22.8714 145.104 22.8666 145.112 22.8666C145.124 22.861 145.137 22.8541 145.15 22.8485C145.156 22.8457 145.162 22.8422 145.168 22.8422C145.622 22.7128 145.979 23.0127 145.979 23.4019C145.979 23.5317 145.914 23.6774 145.817 23.7909L145.816 23.7902Z" fill="white"/>
<path d="M142.996 2.9165C141.049 1.03594 138.484 0 135.775 0C135.664 0 135.552 0.00173933 135.448 0.00487011C134.518 0.0330472 133.612 0.171845 132.751 0.417438V2.52028C132.857 2.52028 132.963 2.50393 133.064 2.47123C133.835 2.2246 134.658 2.0865 135.513 2.06075C135.597 2.05797 135.686 2.05658 135.776 2.05658C137.948 2.05658 140.005 2.88728 141.567 4.39528C143.181 5.95337 144.074 8.04473 144.083 10.2836C144.09 11.9544 143.69 13.5953 142.86 15.2995C142.611 15.8101 142.824 16.4258 143.335 16.6746C143.48 16.7452 143.633 16.7786 143.784 16.7786C144.166 16.7786 144.532 16.5657 144.71 16.2001C145.681 14.2065 146.149 12.2685 146.141 10.2752C146.129 7.47632 145.013 4.86281 142.996 2.91581L142.996 2.9165Z" fill="#F8DB09"/>
<path d="M142.837 3.08066C140.933 1.2415 138.425 0.228516 135.776 0.228516C135.666 0.228516 135.557 0.230255 135.456 0.233386C134.521 0.261563 133.613 0.403492 132.751 0.655346V2.2917C132.833 2.2917 132.916 2.27918 132.995 2.25379C133.786 2.00089 134.63 1.85896 135.506 1.83252C135.592 1.82974 135.684 1.82835 135.776 1.82835C138.008 1.82835 140.121 2.68166 141.726 4.23105C143.384 5.83228 144.302 7.98174 144.312 10.2829C144.319 11.9895 143.911 13.6634 143.065 15.3996C142.872 15.7969 143.037 16.2755 143.434 16.469C143.547 16.5239 143.666 16.55 143.784 16.55C144.08 16.55 144.365 16.3844 144.504 16.1002C145.459 14.1386 145.92 12.2337 145.912 10.2763C145.901 7.5396 144.809 4.98418 142.837 3.08032V3.08066Z" fill="#C10E1A"/>
<path d="M142.678 3.24519C140.817 1.44742 138.365 0.457397 135.775 0.457397C135.669 0.457397 135.562 0.459137 135.462 0.462268C134.524 0.490793 133.613 0.635852 132.751 0.893968V2.06349C132.81 2.06349 132.869 2.05445 132.925 2.03636C133.736 1.77685 134.601 1.63144 135.498 1.60431C135.587 1.60153 135.681 1.60013 135.775 1.60013C138.067 1.60013 140.237 2.47641 141.884 4.0672C143.587 5.71156 144.531 7.91911 144.54 10.2825C144.548 12.025 144.132 13.7319 143.271 15.5001C143.133 15.784 143.251 16.1259 143.534 16.264C143.615 16.3034 143.7 16.3218 143.784 16.3218C143.996 16.3218 144.199 16.2035 144.298 16.0004C145.238 14.0711 145.691 12.1989 145.683 10.2776C145.672 7.60325 144.605 5.10557 142.678 3.24519Z" fill="#F8DB09"/>
<path d="M142.52 3.40982C140.701 1.65345 138.306 0.686035 135.775 0.686035C135.671 0.686035 135.567 0.687774 135.469 0.690905C134.527 0.71943 133.613 0.868317 132.751 1.13304V1.83503C132.786 1.83503 132.822 1.82947 132.855 1.81868C133.687 1.55292 134.573 1.40368 135.491 1.37585C135.582 1.37307 135.679 1.37133 135.775 1.37133C138.127 1.37133 140.353 2.27021 142.043 3.9024C143.791 5.58989 144.759 7.85554 144.769 10.2812C144.776 12.0595 144.354 13.7992 143.476 15.6001C143.394 15.7702 143.464 15.9754 143.635 16.0585C143.683 16.0822 143.734 16.0933 143.785 16.0933C143.912 16.0933 144.034 16.0224 144.093 15.9006C145.017 14.0034 145.463 12.1645 145.455 10.2788C145.444 7.66665 144.402 5.22707 142.52 3.40982H142.52Z" fill="#C10E1A"/>
<path d="M132.751 0.417822C131.891 0.172229 130.986 0.0334308 130.056 0.00525375C127.822 -0.0657108 125.672 0.567404 123.852 1.81589C123.384 2.13732 123.265 2.77739 123.587 3.24597C123.908 3.71419 124.549 3.83316 125.017 3.51174C126.404 2.56032 128.034 2.05731 129.731 2.05731C129.818 2.05731 129.905 2.0587 129.993 2.06114C130.845 2.08688 131.667 2.22498 132.438 2.47162C132.54 2.50432 132.646 2.52067 132.751 2.52067V0.417822Z" fill="#4470B3"/>
<path d="M142.361 3.57398C140.585 1.85901 138.246 0.914551 135.775 0.914551C135.673 0.914551 135.572 0.915942 135.476 0.919073C134.53 0.947598 133.613 1.10031 132.751 1.37234V1.60645C132.763 1.60645 132.774 1.60472 132.786 1.60089C133.638 1.32851 134.545 1.1758 135.483 1.14727C135.577 1.14414 135.676 1.14275 135.776 1.14275C138.187 1.14275 140.469 2.06459 142.202 3.73817C143.995 5.46915 144.987 7.79254 144.998 10.2805C145.005 12.0946 144.575 13.8673 143.682 15.7002C143.654 15.7569 143.678 15.8254 143.735 15.8529C143.751 15.8609 143.768 15.8644 143.785 15.8644C143.827 15.8644 143.868 15.8408 143.888 15.8001C144.796 13.9351 145.234 12.129 145.227 10.2791C145.216 7.72888 144.198 5.34775 142.361 3.57329L142.361 3.57398Z" fill="#F8DB09"/>
<path d="M45.517 26.8721C45.2424 26.8721 44.9679 26.9636 44.7563 27.0829L44.4888 27.2311L44.3764 26.9281H43.6864V30.3637H44.5945V27.9634C44.5945 27.9001 44.5945 27.8576 44.6648 27.8295C44.8057 27.7735 45.066 27.731 45.3054 27.731H45.3197C45.5733 27.731 45.7491 27.7735 45.8479 27.8789C45.9255 27.9564 45.9603 28.0691 45.9603 28.2448V30.3637H46.8684V28.2097C46.8684 27.3651 46.3127 26.8721 45.517 26.8721ZM35.8852 26.8721H35.864C34.9416 26.8721 34.1176 27.5126 34.1176 28.6459C34.1176 29.7859 34.9416 30.4197 35.864 30.4197H35.8852C36.8077 30.4197 37.6316 29.7859 37.6316 28.6459C37.6316 27.5126 36.8077 26.8721 35.8852 26.8721ZM35.8852 29.575H35.864C35.3219 29.575 35.0474 29.2578 35.0474 28.6459C35.0474 28.0406 35.3219 27.7237 35.864 27.7237H35.8852C36.4274 27.7237 36.7019 28.0406 36.7019 28.6459C36.7019 29.2581 36.4274 29.575 35.8852 29.575ZM102.505 30.3633H103.413V26.9278H102.505V30.3633ZM41.377 26.8721C40.4403 26.8721 39.6588 27.5689 39.6588 28.6529C39.6588 29.6874 40.4121 30.4197 41.4121 30.4197C41.9828 30.4197 42.56 30.1807 42.9682 29.8283L42.6797 29.3215L42.2925 29.455C42.004 29.5538 41.7222 29.6171 41.4971 29.6171C40.9407 29.6171 40.638 29.3427 40.5889 28.9273H42.8631C42.9407 28.9273 42.9828 28.9204 43.011 28.8358C43.0388 28.7443 43.0461 28.6108 43.0461 28.512C43.0461 27.6044 42.3631 26.8721 41.3777 26.8721H41.377ZM40.5882 28.2869C40.6306 27.9206 40.9121 27.6674 41.37 27.6674C41.8206 27.6674 42.1095 27.9206 42.1442 28.2869H40.5882ZM32.5901 27.1957C32.2662 26.9988 31.9561 26.8721 31.6186 26.8721C30.7456 26.8721 30.0765 27.6183 30.0765 28.6529C30.0765 29.7083 30.7105 30.4197 31.6186 30.4197C31.9001 30.4197 32.1607 30.3355 32.4283 30.1873L32.6889 30.0464L32.8156 30.3633H33.4986V25.3725H32.5905L32.5901 27.1957ZM32.5901 29.3002C32.5901 29.3778 32.5758 29.406 32.5198 29.4342C32.3507 29.5183 32.0623 29.5817 31.8156 29.5817C31.2947 29.5817 31.0059 29.3566 31.0059 28.6456C31.0059 27.9557 31.2874 27.7164 31.8156 27.7164C32.0831 27.7164 32.3507 27.7797 32.5198 27.8646C32.5901 27.8997 32.5901 27.9279 32.5901 27.9978V29.3002ZM103.224 25.4852H102.505V26.3792H103.413V25.6612C103.413 25.5346 103.371 25.4852 103.223 25.4852H103.224ZM28.1471 26.8721C27.8725 26.8721 27.598 26.9636 27.3865 27.0829L27.1189 27.2311L27.0065 26.9281H26.3165V30.3637H27.2247V27.9634C27.2247 27.9001 27.2247 27.8576 27.2949 27.8295C27.4359 27.7735 27.6961 27.731 27.9355 27.731H27.9498C28.2035 27.731 28.3792 27.7735 28.478 27.8789C28.5556 27.9564 28.5904 28.0691 28.5904 28.2448V30.3637H29.4985V28.2097C29.4985 27.3651 28.9429 26.8721 28.1471 26.8721ZM14.6005 29.3354C14.6005 29.399 14.6005 29.4481 14.5302 29.4766C14.3824 29.533 14.1291 29.5677 13.8966 29.5677C13.636 29.5677 13.4599 29.5326 13.3615 29.4269C13.2839 29.3427 13.2487 29.23 13.2487 29.0539V26.9281H12.3406V29.0825C12.3406 29.941 12.8969 30.42 13.6854 30.42C13.953 30.42 14.1854 30.3424 14.5024 30.1734L14.6993 30.068L14.819 30.3637H15.509V26.9281H14.6009V29.3357L14.6005 29.3354ZM20.3811 26.8721C20.0784 26.8721 19.7896 26.9775 19.4235 27.1817L19.1699 27.3226C18.9023 27.0196 18.5571 26.8721 18.1698 26.8721C17.8741 26.8721 17.5995 26.9636 17.2968 27.1396L17.142 27.2311L17.0296 26.9281H16.3396V30.3637H17.2478V27.9634C17.2478 27.9001 17.2478 27.8576 17.3181 27.8295C17.459 27.7735 17.6698 27.731 17.9096 27.731H17.9238C18.1629 27.731 18.3108 27.7661 18.4096 27.8434C18.4941 27.914 18.5362 28.0267 18.5362 28.2027V30.3637H19.4517V27.9634C19.4517 27.9001 19.4517 27.8576 19.522 27.8295C19.6629 27.7735 19.8741 27.731 20.1135 27.731H20.1278C20.3672 27.731 20.5151 27.7661 20.6139 27.8434C20.6984 27.914 20.7405 28.0267 20.7405 28.2027V30.3637H21.656V28.2027C21.656 27.7943 21.5433 27.492 21.3251 27.2597C21.0927 27.02 20.7621 26.8725 20.3818 26.8725L20.3811 26.8721ZM107.152 29.6523V28.2584C107.152 27.7936 107.026 27.484 106.814 27.2659C106.547 26.9845 106.152 26.8721 105.716 26.8721C105.195 26.8721 104.66 27.0829 104.202 27.435L104.484 27.9279L104.772 27.8288C105.082 27.7234 105.378 27.6601 105.61 27.6601C105.842 27.6601 106.011 27.7021 106.117 27.8079C106.202 27.8924 106.244 28.0121 106.244 28.202V28.4274C105.962 28.3499 105.561 28.2935 105.265 28.2935H105.244C104.512 28.2935 104.047 28.6456 104.047 29.2651C104.047 29.9198 104.561 30.4193 105.307 30.4193C105.575 30.4193 105.87 30.3417 106.187 30.1727L106.371 30.0742C106.539 30.2642 106.73 30.3769 106.976 30.3769C107.166 30.3769 107.455 30.3132 107.624 30.229V29.7434L107.152 29.6519L107.152 29.6523ZM106.244 29.4269C106.244 29.4975 106.223 29.5183 106.153 29.5469C106.019 29.6032 105.723 29.6805 105.476 29.6805C105.103 29.6805 104.913 29.4902 104.913 29.23C104.913 29.047 104.984 28.9555 105.181 28.9555H106.167C106.23 28.9555 106.244 28.9698 106.244 29.0258L106.244 29.4269ZM10.249 27.5473L9.81268 27.4207C9.31997 27.2798 9.06632 27.1602 9.06632 26.9C9.06632 26.6043 9.3833 26.4773 9.9957 26.4773C10.256 26.4773 10.6506 26.5131 11.0093 26.5549L11.3823 26.5973L11.5302 25.9426C11.0305 25.7384 10.4741 25.6257 9.93899 25.6257C8.94662 25.6257 8.15781 26.0623 8.15781 26.9069C8.15781 27.6322 8.6787 28.0121 9.61539 28.2866L10.0938 28.4274C10.6359 28.5892 10.8402 28.6949 10.8402 28.9976C10.8402 29.3778 10.5096 29.5817 10.0375 29.5817C9.72047 29.5817 9.36869 29.5326 8.83354 29.4126L8.3551 29.3072L8.1084 29.9407C8.59414 30.2082 9.36173 30.4336 9.98144 30.4336C11.1081 30.4336 11.7557 29.8565 11.7557 28.9555C11.7557 28.2445 11.3753 27.8712 10.249 27.5473ZM25.3381 28.2584C25.3381 27.7936 25.2114 27.484 25.0002 27.2659C24.7326 26.9845 24.338 26.8721 23.9017 26.8721C23.3808 26.8721 22.8457 27.0829 22.3877 27.435L22.6696 27.9279L22.958 27.8288C23.2677 27.7234 23.5635 27.6601 23.7959 27.6601C24.0284 27.6601 24.1971 27.7021 24.3029 27.8079C24.3874 27.8924 24.4295 28.0121 24.4295 28.202V28.4274C24.148 28.3499 23.7465 28.2935 23.4507 28.2935H23.4299C22.6974 28.2935 22.2326 28.6456 22.2326 29.2651C22.2326 29.9198 22.7468 30.4193 23.4932 30.4193C23.7608 30.4193 24.0562 30.3417 24.3732 30.1727L24.5565 30.0742C24.7253 30.2642 24.9156 30.3769 25.1616 30.3769C25.352 30.3769 25.6404 30.3132 25.8095 30.229V29.7434L25.3377 29.6519V28.258L25.3381 28.2584ZM24.4295 29.4269C24.4295 29.4975 24.4083 29.5183 24.338 29.5469C24.2044 29.6032 23.9087 29.6805 23.662 29.6805C23.2889 29.6805 23.099 29.4902 23.099 29.23C23.099 29.047 23.1693 28.9555 23.3665 28.9555H24.3523C24.4156 28.9555 24.4299 28.9698 24.4299 29.0258L24.4295 29.4269ZM49.1642 26.8721C48.2275 26.8721 47.446 27.5689 47.446 28.6529C47.446 29.6874 48.1993 30.4197 49.1994 30.4197C49.77 30.4197 50.3473 30.1807 50.7554 29.8283L50.467 29.3215L50.0797 29.455C49.7912 29.5538 49.5094 29.6171 49.2843 29.6171C48.7279 29.6171 48.4252 29.3427 48.3761 28.9273H50.6503C50.7279 28.9273 50.77 28.9204 50.7982 28.8358C50.8261 28.7443 50.8334 28.6108 50.8334 28.512C50.8334 27.6044 50.1503 26.8721 49.1649 26.8721H49.1642ZM48.3754 28.2869C48.4179 27.9206 48.6994 27.6674 49.1573 27.6674C49.6079 27.6674 49.8967 27.9206 49.9315 28.2869H48.3754ZM65.1819 28.2375L64.7244 28.1248C64.4499 28.0545 64.2881 28.0051 64.2881 27.8573C64.2881 27.6674 64.4926 27.6183 64.922 27.6183C65.112 27.6183 65.3939 27.6392 65.7175 27.6747L66.0557 27.7101L66.1966 27.1396C65.8236 26.9706 65.3444 26.8721 64.9081 26.8721C64.0633 26.8721 63.4648 27.2311 63.4648 27.8855C63.4648 28.4908 63.9011 28.744 64.5984 28.9131L65.0421 29.0188C65.4012 29.1033 65.4996 29.1667 65.4996 29.3427C65.4996 29.5608 65.2884 29.6731 64.9224 29.6731C64.6899 29.6731 64.4015 29.638 63.993 29.5608L63.6127 29.4902L63.4227 30.0464C63.803 30.2579 64.4015 30.4193 64.9154 30.4193C65.8518 30.4193 66.3305 29.9546 66.3305 29.286C66.3305 28.6664 65.9788 28.4341 65.1826 28.2375H65.1819ZM70.4837 26.8721C70.2235 26.8721 70.0265 26.9354 69.6953 27.0972L69.3925 27.2454L69.2659 26.9281H68.5759V31.9753H69.4841V30.0958L69.681 30.1949C69.9486 30.3282 70.2162 30.42 70.4907 30.42C71.3641 30.42 71.9904 29.7229 71.9904 28.6462C71.9904 27.5832 71.3355 26.8721 70.4837 26.8721ZM70.2583 29.5817C70.0119 29.5817 69.7234 29.5117 69.5543 29.4342C69.498 29.406 69.4841 29.3775 69.4841 29.3002V28.0121C69.4841 27.9422 69.4841 27.9136 69.5543 27.8785C69.7234 27.794 69.9907 27.7237 70.2583 27.7237C70.7865 27.7237 71.061 27.9561 71.061 28.6459C71.061 29.3569 70.7791 29.5817 70.2583 29.5817ZM90.0433 25.3721H89.1351V29.5465C89.1351 29.821 89.2054 30.0179 89.3463 30.1661C89.4799 30.2997 89.6842 30.3842 89.9236 30.3842C90.1348 30.3842 90.4518 30.3066 90.6209 30.2221V29.7438L90.0436 29.6237V25.3718L90.0433 25.3721ZM88.149 28.2584C88.149 27.7936 88.0224 27.484 87.8112 27.2659C87.5436 26.9845 87.149 26.8721 86.7127 26.8721C86.1918 26.8721 85.6566 27.0829 85.1987 27.435L85.4806 27.9279L85.769 27.8288C86.0787 27.7234 86.3745 27.6601 86.6069 27.6601C86.8393 27.6601 87.0081 27.7021 87.1139 27.8079C87.1984 27.8924 87.2405 28.0121 87.2405 28.202V28.4274C86.959 28.3499 86.5575 28.2935 86.2617 28.2935H86.2408C85.5084 28.2935 85.0435 28.6456 85.0435 29.2651C85.0435 29.9198 85.5578 30.4193 86.3042 30.4193C86.5717 30.4193 86.8672 30.3417 87.1841 30.1727L87.3675 30.0742C87.5363 30.2642 87.7266 30.3769 87.9726 30.3769C88.1629 30.3769 88.4514 30.3132 88.6205 30.229V29.7434L88.1487 29.6519V28.258L88.149 28.2584ZM87.2409 29.4269C87.2409 29.4975 87.2196 29.5183 87.1493 29.5469C87.0157 29.6032 86.72 29.6805 86.4733 29.6805C86.1003 29.6805 85.9103 29.4902 85.9103 29.23C85.9103 29.047 85.9806 28.9555 86.1779 28.9555H87.1636C87.2269 28.9555 87.2412 28.9698 87.2412 29.0258V29.4269H87.2409ZM77.3767 27.3505L77.2358 26.9278H76.5527V30.3633H77.4609V28.0333C77.4609 27.963 77.4752 27.9345 77.5597 27.9063C77.8273 27.8222 78.1158 27.7376 78.4679 27.6743L78.8057 27.6107V26.9915C78.6721 26.9212 78.51 26.8718 78.3694 26.8718C78.13 26.8718 77.82 27.0196 77.3767 27.3505ZM84.2272 25.6964C84.1639 25.6964 84.143 25.7106 84.1148 25.7809L83.4809 27.5616C83.2627 28.1669 82.9882 29.0752 82.8685 29.4975H82.8542C82.7627 29.1385 82.5233 28.3499 82.3121 27.7797L81.5657 25.7809C81.5375 25.7106 81.5167 25.6964 81.453 25.6964H80.5027L82.2348 30.2506C82.263 30.3282 82.3124 30.3633 82.397 30.3633H83.4318L85.1497 25.6964H84.2272ZM62.6335 28.2584C62.6335 27.7936 62.5065 27.484 62.2953 27.2659C62.0277 26.9845 61.6335 26.8721 61.1972 26.8721C60.6763 26.8721 60.1411 27.0829 59.6832 27.435L59.9647 27.9279L60.2532 27.8288C60.5629 27.7234 60.8586 27.6601 61.0911 27.6601C61.3235 27.6601 61.4926 27.7021 61.598 27.8079C61.6826 27.8924 61.725 28.0121 61.725 28.202V28.4274C61.4432 28.3499 61.042 28.2935 60.7462 28.2935H60.725C59.9929 28.2935 59.528 28.6456 59.528 29.2651C59.528 29.9198 60.042 30.4193 60.7883 30.4193C61.0559 30.4193 61.3517 30.3417 61.6683 30.1727L61.8517 30.0742C62.0208 30.2642 62.2108 30.3769 62.4571 30.3769C62.6471 30.3769 62.9359 30.3132 63.1047 30.229V29.7434L62.6332 29.6519V28.258L62.6335 28.2584ZM61.725 29.4269C61.725 29.4975 61.7038 29.5183 61.6335 29.5469C61.4999 29.6032 61.2041 29.6805 60.9574 29.6805C60.5844 29.6805 60.3941 29.4902 60.3941 29.23C60.3941 29.047 60.4644 28.9555 60.6617 28.9555H61.6474C61.7108 28.9555 61.725 28.9698 61.725 29.0258V29.4269ZM74.18 26.8721H74.1588C73.2364 26.8721 72.4124 27.5126 72.4124 28.6459C72.4124 29.7859 73.2364 30.4197 74.1588 30.4197H74.18C75.1025 30.4197 75.9264 29.7859 75.9264 28.6459C75.9264 27.5126 75.1025 26.8721 74.18 26.8721ZM74.18 29.575H74.1588C73.6167 29.575 73.3422 29.2578 73.3422 28.6459C73.3422 28.0406 73.6167 27.7237 74.1588 27.7237H74.18C74.7222 27.7237 74.9967 28.0406 74.9967 28.6459C74.9967 29.2581 74.7222 29.575 74.18 29.575ZM101.238 29.4269C100.957 29.5396 100.661 29.6102 100.463 29.6102C99.8719 29.6102 99.5905 29.3075 99.5905 28.6177C99.5905 27.9839 99.9144 27.6816 100.302 27.6816C100.527 27.6816 100.703 27.7519 100.985 28.0264L101.301 28.336L101.9 28.0333C101.724 27.3717 101.133 26.8721 100.344 26.8721C99.4568 26.8721 98.6607 27.5689 98.6607 28.6316C98.6607 29.7083 99.3368 30.4197 100.365 30.4197C100.949 30.4197 101.562 30.1174 101.949 29.758L101.647 29.2654L101.238 29.4269ZM96.7317 26.8721C96.4571 26.8721 96.1826 26.9636 95.971 27.0829L95.7035 27.2311L95.5911 26.9281H94.9011V30.3637H95.8092V27.9634C95.8092 27.9001 95.8092 27.8576 95.8795 27.8295C96.0204 27.7735 96.2807 27.731 96.5201 27.731H96.5344C96.788 27.731 96.9638 27.7735 97.0626 27.8789C97.1402 27.9564 97.175 28.0691 97.175 28.2448V30.3637H98.0831V28.2097C98.0831 27.3651 97.5271 26.8721 96.7313 26.8721H96.7317ZM53.7266 26.9915C53.593 26.9212 53.4308 26.8718 53.2903 26.8718C53.0509 26.8718 52.7408 27.0193 52.2976 27.3501L52.1566 26.9274H51.4736V30.363H52.3818V28.033C52.3818 27.9627 52.3957 27.9342 52.4802 27.906C52.7478 27.8218 53.0366 27.7373 53.3884 27.674L53.7266 27.6103V26.9915ZM92.5921 26.8721C91.6554 26.8721 90.8738 27.5689 90.8738 28.6529C90.8738 29.6874 91.6272 30.4197 92.6272 30.4197C93.1978 30.4197 93.7751 30.1807 94.1833 29.8283L93.8948 29.3215L93.5075 29.455C93.2191 29.5538 92.9372 29.6171 92.7121 29.6171C92.1557 29.6171 91.853 29.3427 91.8039 28.9273H94.0782C94.1558 28.9273 94.1979 28.9204 94.226 28.8358C94.2539 28.7443 94.2612 28.6108 94.2612 28.512C94.2612 27.6044 93.5781 26.8721 92.5927 26.8721H92.5921ZM91.8032 28.2869C91.8457 27.9206 92.1272 27.6674 92.5851 27.6674C93.0357 27.6674 93.3245 27.9206 93.3593 28.2869H91.8032ZM56.4441 27.1536C56.1839 26.9702 55.8526 26.8721 55.4939 26.8721C54.6281 26.8721 53.9587 27.435 53.9587 28.2379C53.9587 28.6741 54.149 29.0331 54.466 29.2721L54.2405 29.5326C54.0645 29.7368 54.0011 29.8707 54.0011 30.0113C54.0011 30.1379 54.0575 30.2363 54.1421 30.3351C53.8675 30.4899 53.7057 30.6941 53.7057 30.9898C53.7057 31.6445 54.4378 32.1298 55.4657 32.1298C56.4935 32.1298 57.2754 31.616 57.2754 30.8347C57.2754 30.2082 56.8672 29.8631 55.9939 29.8631H54.9872C54.917 29.8631 54.8884 29.8422 54.8884 29.7998C54.8884 29.7789 54.8954 29.7507 54.9166 29.7013L54.9587 29.6025C54.9799 29.5535 54.9942 29.5323 55.0645 29.5462C55.1699 29.567 55.3672 29.6025 55.4939 29.6025C56.353 29.6025 57.029 29.0466 57.029 28.2372C57.029 28.0187 56.9796 27.8218 56.8878 27.6454C56.8526 27.5752 56.8669 27.5609 56.9445 27.5466L57.5781 27.4412V26.9271C57.4445 26.8287 57.2684 26.8005 57.1132 26.8005C56.9302 26.8005 56.6981 26.9132 56.4445 27.1525L56.4441 27.1536ZM55.9935 30.5884C56.3175 30.5884 56.4163 30.666 56.4163 30.8559C56.4163 31.194 56.036 31.3697 55.4796 31.3697C54.8599 31.3697 54.5641 31.1589 54.5641 30.8559C54.5641 30.7926 54.5854 30.715 54.6278 30.659C54.6699 30.6026 54.719 30.5887 54.7896 30.5887L55.9935 30.5884ZM55.4939 28.871C55.0788 28.871 54.8108 28.6529 54.8108 28.2375C54.8108 27.8288 55.0784 27.6107 55.4939 27.6107C55.9024 27.6107 56.1769 27.8288 56.1769 28.2375C56.1769 28.6525 55.9024 28.871 55.4939 28.871ZM57.9863 30.3633H58.8944V26.9278H57.9863V30.3633ZM58.9014 25.1119C58.8735 25.1119 58.838 25.1259 58.789 25.1613L57.5005 26.1465L57.789 26.5479L59.3732 25.7311L59.0141 25.1965C58.9786 25.1398 58.9438 25.1119 58.9014 25.1119Z" fill="#004571"/>
</g>
<defs>
<clipPath id="clip0_4252_61">
<rect width="147.949" height="36.1832" fill="white"/>
</clipPath>
</defs>
</svg>
