<svg width="144" height="36" viewBox="0 0 144 36" fill="none" xmlns="http://www.w3.org/2000/svg">
<g clip-path="url(#clip0_4252_75)">
<path fill-rule="evenodd" clip-rule="evenodd" d="M143.078 5.74234C143.281 5.56392 143.457 5.49123 143.595 5.49123C143.798 5.49123 143.928 5.64982 143.928 5.94058C143.928 7.90975 134.194 19.3416 131.348 22.0376C129.019 24.2513 127.357 25.6786 126.395 25.6786C126.081 25.6786 125.879 25.52 125.879 25.1368C125.879 23.6698 128.077 19.7777 128.077 19.7777V19.6654L124.021 23.2799C123.078 24.1191 121.934 24.5024 120.906 24.5024C119.022 24.5024 117.387 23.009 117.387 19.5728V1.14979C117.387 0.383263 117.904 0 118.551 0C118.931 0 119.382 0.158592 119.827 0.429519C122.679 2.25993 126.376 5.7159 129.222 10.4406C129.673 11.1873 129.85 11.934 129.85 12.6807C129.85 15.0728 127.946 17.4913 125.97 19.6654V19.8041L143.078 5.74234Z" fill="#E57200"/>
<path fill-rule="evenodd" clip-rule="evenodd" d="M32.1746 23.161V25.4936C32.1746 25.8174 32.0176 25.9561 31.5531 26.0487C30.8465 26.1874 29.9503 26.2733 29.0998 26.2733C26.9147 26.2733 26.195 25.672 26.195 24.6346C26.195 24.2182 26.3193 23.9011 26.5549 23.6698C26.9016 23.3196 27.5296 23.161 28.4652 23.161H32.1746ZM35.328 28.8108C36.1065 28.4936 36.3813 28.0112 36.3813 27.0597V20.6499C36.3813 18.1191 35.9364 16.6455 34.87 15.6213C33.7251 14.5243 31.8671 14.0221 28.8577 14.0221C27.2352 14.0221 25.7567 14.1279 24.7099 14.3393C23.6632 14.5508 23.323 15.0332 23.323 16.0111C23.323 16.6059 23.3753 17.3526 23.4408 17.8019C23.48 18.0596 23.6174 18.1455 23.9576 18.0993C25.5997 17.8614 27.0717 17.7292 28.439 17.7292C30.2054 17.7292 31.1148 17.8415 31.6251 18.2314C32.0241 18.5288 32.1681 19.0178 32.1681 19.8041V20.3129C30.8793 20.1477 29.4138 20.0486 28.3736 20.0486C25.9203 20.0486 24.18 20.5244 23.1333 21.5222C22.3155 22.3019 21.8706 23.4319 21.8706 24.7931C21.8706 27.8262 24.023 29.7822 28.9755 29.7822C31.4942 29.7822 33.8952 29.3857 35.328 28.8042V28.8108ZM73.0504 20.6037C73.0504 19.4209 73.2205 18.879 73.5934 18.4759C73.999 18.0398 74.699 17.8482 75.8112 17.8482C76.2299 17.8482 76.8776 17.8878 77.5841 17.9473C77.9374 17.9737 78.0486 17.868 78.1075 17.5838C78.1795 17.227 78.2449 16.5926 78.2449 16.0574C78.2449 15.2116 77.9963 14.7358 77.3682 14.4649C76.8318 14.2336 75.8177 14.0353 74.5485 14.0353C72.8868 14.0353 71.4083 14.4384 70.3746 15.3636C69.4195 16.2226 68.8372 17.5178 68.8372 19.8107V29.0421C68.8372 29.3526 69.0204 29.465 69.269 29.465H73.0504V20.6037ZM43.6039 14.3459V9.87232H40.1954C39.5869 9.87232 39.3972 10.1234 39.3972 10.6653V24.2843C39.3972 26.2998 39.8486 27.476 40.7057 28.3152C41.6543 29.2535 43.0412 29.7822 44.9123 29.7822C46.332 29.7822 47.7385 29.4452 48.8246 28.9694C49.662 28.6059 49.9564 28.2557 49.9564 27.7007C49.9564 27.4892 49.9106 27.2513 49.8321 26.987C49.7274 26.6169 49.5115 25.9628 49.3349 25.5597C49.2563 25.3813 49.1713 25.2953 49.0208 25.2953C48.9685 25.2953 48.8965 25.3086 48.7853 25.3416C47.6797 25.6588 46.4563 25.9099 45.6254 25.9099C44.8534 25.9099 44.3824 25.7579 44.0749 25.4473C43.7413 25.1037 43.6235 24.5751 43.6235 23.716V18.1455H47.5292C48.1245 18.1455 48.4516 17.9935 48.6414 17.6499C48.8246 17.3327 48.8965 16.8437 48.8965 16.1565C48.8965 15.6477 48.8442 14.9935 48.7788 14.6763C48.733 14.4384 48.6087 14.3525 48.3077 14.3525H43.6235L43.6039 14.3459ZM65.8932 14.3459H62.4847C61.8763 14.3459 61.68 14.597 61.68 15.1389V23.0486C61.68 24.0663 61.4576 24.7271 61.0192 25.1698C60.5547 25.639 59.8351 25.9033 58.8669 25.9033C57.8986 25.9033 57.179 25.6324 56.7145 25.1698C56.2696 24.7271 56.0537 24.0729 56.0537 23.0486V14.3459H52.6518C52.0433 14.3459 51.8471 14.597 51.8471 15.1389V23.6037C51.8471 25.5134 52.3966 26.9143 53.4107 27.9253C54.621 29.1346 56.4986 29.7822 58.8734 29.7822C61.2482 29.7822 63.1258 29.1346 64.3362 27.9253C65.3502 26.9143 65.8997 25.5134 65.8997 23.6037V14.3525L65.8932 14.3459ZM86.6189 35.3725C89.5302 35.3725 91.4602 34.7183 92.7032 33.4232C93.8415 32.2403 94.3518 30.5289 94.3518 28.2954V21.3966C94.3518 19.0376 93.6845 17.3195 92.5396 16.1367C91.2312 14.7821 89.1508 14.0155 86.946 14.0155C82.1964 14.0155 79.187 17.0089 79.187 21.9055C79.187 26.4914 81.6141 29.5707 85.9255 29.5707C87.7442 29.5707 89.1835 28.8835 90.1452 27.7998V28.454C90.1452 29.5112 89.9686 30.2447 89.4713 30.7535C88.876 31.3681 87.6919 31.639 86.0105 31.639C84.8983 31.639 83.4787 31.4936 82.2684 31.3218C81.8693 31.2624 81.6076 31.4209 81.5422 31.9099C81.4833 32.3395 81.4506 32.9738 81.4506 33.3637C81.4506 34.3681 81.745 34.8108 82.8768 35.0421C83.8974 35.247 85.3497 35.3593 86.6386 35.3593L86.6189 35.3725ZM90.1386 21.3636V21.7865C90.1386 23.2733 89.8377 24.3901 89.1508 25.0905C88.6209 25.6324 87.8489 25.9495 86.861 25.9495C84.4927 25.9495 83.5114 24.3372 83.5114 21.9121C83.5114 19.1631 84.8918 17.901 86.861 17.901C87.8423 17.901 88.6732 18.2248 89.2293 18.7733C89.8246 19.3614 90.1386 20.2336 90.1386 21.3636ZM19.0248 9.23795V27.4033C19.0248 28.1037 18.8678 28.5927 18.5537 28.9099C18.1089 29.3526 17.3434 29.5245 16.2705 29.5245C15.7406 29.5245 15.0667 29.4584 14.5761 29.3064C14.1704 29.1874 13.9349 28.9892 13.6798 28.639C11.0433 25.0839 7.48429 20.2336 4.42254 16.0772V28.8438C4.42254 29.3064 4.28515 29.4584 3.78794 29.4584H0V11.293C0 10.5926 0.157013 10.1036 0.47104 9.78642C0.91591 9.34368 1.68135 9.17188 2.75427 9.17188C3.29073 9.17188 3.95804 9.23795 4.45525 9.38994C4.88049 9.51549 5.09639 9.70712 5.35807 10.0573C7.6871 13.216 11.2657 18.1059 14.6088 22.6654V9.8525C14.6088 9.40315 14.7985 9.24456 15.2434 9.24456H19.0248V9.23795ZM99.6576 31.3747C99.1996 31.3086 98.9968 31.5663 98.9314 31.9694C98.8791 32.3196 98.8333 32.9804 98.8333 33.4232C98.8333 34.3417 99.0884 34.8439 100.233 35.0686C101.188 35.2602 102.706 35.3725 103.962 35.3725C106.651 35.3725 108.509 34.6853 109.641 33.4562C110.806 32.2007 111.27 30.3967 111.27 27.846V14.3393H107.79C107.286 14.3393 107.057 14.6169 107.057 15.1257V22.4803C107.057 23.6896 106.834 24.509 106.331 25.0575C105.82 25.6191 105.022 25.9099 104.034 25.9099C103.145 25.9099 102.49 25.6588 102.065 25.1896C101.614 24.6808 101.431 23.9671 101.431 22.7447V14.3327H97.9631C97.394 14.3327 97.2173 14.6565 97.2173 15.0926V23.1478C97.2173 25.3945 97.7342 26.8879 98.7547 27.9385C99.7492 28.9694 101.228 29.5575 103.177 29.5575C104.904 29.5575 106.291 28.8372 107.057 28.0112V28.4011C107.057 29.4187 106.919 30.1853 106.475 30.7139C105.938 31.3483 104.944 31.6456 103.203 31.6456C102.065 31.6456 100.724 31.5002 99.6576 31.3483V31.3747Z" fill="white"/>
</g>
<defs>
<clipPath id="clip0_4252_75">
<rect width="143.929" height="35.3791" fill="white"/>
</clipPath>
</defs>
</svg>
