<svg width="74" height="28" viewBox="0 0 74 28" fill="none" xmlns="http://www.w3.org/2000/svg">
<path d="M61.083 27.5729L60.264 26.2989C65.906 22.5982 68.727 18.8976 68.727 15.1969C68.727 13.2556 67.908 12.1636 66.27 11.9209L62.448 15.4699C61.2347 15.0452 60.1124 14.2869 59.081 13.1949C58.1104 12.0422 57.625 10.5862 57.625 8.82691C57.625 7.06758 58.3227 5.58124 59.718 4.36791C61.1134 3.09391 62.9334 2.45691 65.178 2.45691C67.4834 2.45691 69.364 3.24558 70.82 4.82291C72.3367 6.33958 73.095 8.46291 73.095 11.1929C73.095 17.1382 69.091 22.5982 61.083 27.5729ZM44.248 27.5729L43.429 26.2989C49.071 22.5982 51.892 18.8976 51.892 15.1969C51.892 13.2556 51.073 12.1636 49.435 11.9209L45.613 15.4699C44.3997 15.0452 43.2774 14.2869 42.246 13.1949C41.2754 12.0422 40.79 10.5862 40.79 8.82691C40.79 7.06758 41.4877 5.58124 42.883 4.36791C44.2784 3.09391 46.0984 2.45691 48.343 2.45691C50.6484 2.45691 52.529 3.24558 53.985 4.82291C55.5017 6.33958 56.26 8.46291 56.26 11.1929C56.26 17.1382 52.256 22.5982 44.248 27.5729Z" fill="#56768B"/>
<path d="M29.12 0L29.939 1.274C24.297 4.97467 21.476 8.67534 21.476 12.376C21.476 14.2567 22.295 15.3487 23.933 15.652L27.755 12.103C28.9683 12.5277 30.0603 13.3163 31.031 14.469C32.0623 15.561 32.578 16.9867 32.578 18.746C32.578 20.5053 31.8803 22.022 30.485 23.296C29.0897 24.5093 27.2393 25.116 24.934 25.116C22.6893 25.116 20.8087 24.3577 19.292 22.841C17.836 21.2637 17.108 19.11 17.108 16.38C17.108 10.4347 21.112 4.97467 29.12 0ZM12.012 0L12.831 1.274C7.189 4.97467 4.368 8.67534 4.368 12.376C4.368 14.2567 5.187 15.3487 6.825 15.652L10.647 12.103C11.8603 12.5277 12.9523 13.3163 13.923 14.469C14.9543 15.561 15.47 16.9867 15.47 18.746C15.47 20.5053 14.7723 22.022 13.377 23.296C11.9817 24.5093 10.1313 25.116 7.826 25.116C5.58133 25.116 3.70067 24.3577 2.184 22.841C0.728 21.2637 0 19.11 0 16.38C0 10.4347 4.004 4.97467 12.012 0Z" fill="#56768B"/>
</svg>
