<svg width="152" height="64" viewBox="0 0 152 64" fill="none" xmlns="http://www.w3.org/2000/svg">
<path d="M89.4926 28.136C89.4926 25.2886 90.6451 22.7122 92.9502 20.4071C95.2554 18.102 97.6509 16.9495 100.137 16.9495C104.476 16.9495 107.707 18.2602 109.832 20.8817C112.001 23.5032 113.086 26.9609 113.086 31.2547C113.086 39.8424 110.713 47.0063 105.967 52.7465C101.222 58.4867 94.9616 62.0348 87.1875 63.3907L84.001 58.7805C90.9615 56.5206 95.7299 53.4471 98.3062 49.56C99.3458 48.0233 99.8656 46.8481 99.8656 46.0346C99.8656 43.4131 99.1198 41.6051 97.6283 40.6108C96.1819 39.5712 95.0068 38.6672 94.1028 37.8989C93.1988 37.0853 92.4079 36.2265 91.7299 35.3226C90.2383 33.3338 89.4926 30.9383 89.4926 28.136ZM127.459 28.136C127.459 25.2886 128.612 22.7122 130.917 20.4071C133.222 18.102 135.617 16.9495 138.103 16.9495C142.442 16.9495 145.674 18.2602 147.798 20.8817C149.968 23.5032 151.053 26.9609 151.053 31.2547C151.053 39.8424 148.68 47.0063 143.934 52.7465C139.188 58.4867 132.928 62.0348 125.154 63.3907L121.968 58.7805C128.928 56.5206 133.697 53.4471 136.273 49.56C137.312 48.0233 137.832 46.8481 137.832 46.0346C137.832 43.4131 137.086 41.6051 135.595 40.6108C134.148 39.5712 132.973 38.6672 132.069 37.8989C131.165 37.0853 130.374 36.2265 129.696 35.3226C128.205 33.3338 127.459 30.9383 127.459 28.136Z" fill="white"/>
<path d="M23.5935 35.3225C23.5935 38.1248 22.441 40.6785 20.1358 42.9836C17.8307 45.2887 15.4352 46.4413 12.9493 46.4413C8.61028 46.4413 5.356 45.1305 3.18648 42.509C1.06216 39.8875 0 36.4298 0 32.136C0 23.5483 2.37291 16.3844 7.11873 10.6442C11.8646 4.90402 18.1245 1.35595 25.8986 0L29.0851 4.61023C22.1246 6.87014 17.3561 9.94363 14.7798 13.8307C13.7403 15.3674 13.2205 16.5426 13.2205 17.3561C13.2205 19.9777 13.9437 21.8082 15.39 22.8477C16.8816 23.8421 18.0793 24.7461 18.9833 25.5596C19.8873 26.328 20.6782 27.1642 21.3562 28.0681C22.8477 30.0569 23.5935 32.475 23.5935 35.3225ZM61.5601 35.3225C61.5601 38.1248 60.4075 40.6785 58.1024 42.9836C55.7973 45.2887 53.4018 46.4413 50.9159 46.4413C46.5769 46.4413 43.3226 45.1305 41.1531 42.509C39.0287 39.8875 37.9666 36.4298 37.9666 32.136C37.9666 23.5483 40.3395 16.3844 45.0853 10.6442C49.8311 4.90402 56.0911 1.35595 63.8652 0L67.0517 4.61023C60.0911 6.87014 55.3227 9.94363 52.7464 13.8307C51.7069 15.3674 51.1871 16.5426 51.1871 17.3561C51.1871 19.9777 51.9102 21.8082 53.3566 22.8477C54.8481 23.8421 56.0459 24.7461 56.9499 25.5596C57.8538 26.328 58.6448 27.1642 59.3228 28.0681C60.8143 30.0569 61.5601 32.475 61.5601 35.3225Z" fill="white"/>
</svg>
