<svg width="29" height="29" viewBox="0 0 29 29" fill="none" xmlns="http://www.w3.org/2000/svg">
<path d="M23.1609 5.15014C21.3737 3.36623 18.7487 2.65748 15.7726 3.15514C12.8731 3.63748 9.96702 5.21358 7.59249 7.59358C5.21796 9.97358 3.63968 12.8764 3.15624 15.7759C2.6564 18.7498 3.36515 21.3748 5.14906 23.162C6.56109 24.574 8.49921 25.3123 10.725 25.3123C11.3323 25.3105 11.9385 25.259 12.5373 25.1581C15.4369 24.6747 18.343 23.0986 20.7208 20.7219C23.0986 18.3451 24.6736 15.438 25.157 12.5384C25.6536 9.56233 24.9448 6.93733 23.1609 5.15014ZM8.51781 8.51889C11.2587 5.77795 14.6428 4.31233 17.5653 4.31233C18.9412 4.31233 20.2144 4.64045 21.2698 5.30983C19.8951 5.72963 18.6086 6.39681 17.4734 7.27858C15.415 8.90389 14.0828 11.1745 13.5119 14.0281C12.405 19.5537 8.37781 21.3748 5.84249 21.9764C3.03156 18.7958 4.18327 12.8534 8.51781 8.51889ZM19.7922 19.7933C15.7606 23.8248 10.3378 25.1045 7.04562 23.0056C8.42033 22.5858 9.70688 21.9186 10.842 21.0369C12.9005 19.4115 14.2326 17.1409 14.8036 14.2873C15.905 8.75842 19.9322 6.93733 22.473 6.33576C25.2784 9.51748 24.1267 15.4587 19.7922 19.7933Z" fill="#0C2340"/>
</svg>
