<svg width="16" height="16" viewBox="0 0 16 16" fill="none" xmlns="http://www.w3.org/2000/svg">
<path d="M12.0001 6.66667H13.0001C13.4421 6.66667 13.866 6.84226 14.1786 7.15482C14.4912 7.46738 14.6667 7.89131 14.6667 8.33333C14.6667 8.77536 14.4912 9.19928 14.1786 9.51184C13.866 9.82441 13.4421 10 13.0001 10H12.0001M12.0001 6.66667C12.0001 6.31333 11.7601 6 11.3847 6H3.28208C3.20127 6 3.12126 6.01592 3.0466 6.04684C2.97195 6.07776 2.90411 6.12309 2.84698 6.18023C2.78984 6.23737 2.74451 6.3052 2.71359 6.37986C2.68266 6.45451 2.66675 6.53453 2.66675 6.61533V11.3333C2.66675 12.0406 2.9477 12.7189 3.4478 13.219C3.94789 13.719 4.62617 14 5.33341 14H9.33341C10.0407 14 10.7189 13.719 11.219 13.219C11.7191 12.7189 12.0001 12.0406 12.0001 11.3333V10M12.0001 6.66667V10M10.6667 2L9.33341 4M8.66675 2L7.33341 4M6.66675 2L5.33341 4" stroke="#C9E3F9" stroke-linecap="round" stroke-linejoin="round"/>
</svg>
