<svg width="692" height="152" viewBox="0 0 692 152" fill="none" xmlns="http://www.w3.org/2000/svg">
<path d="M508.844 116.09V109.238H537.79V116.09H508.844ZM512.628 42.1908V35.339H542.389V42.1908H512.628ZM536.483 116.09V38.9884H542.404V116.09H536.483ZM541.066 116.09V109.238H565.106V116.09H541.066Z" fill="#001C4C"/>
<path d="M499.109 81.5144H0V87.1001H499.109V81.5144Z" fill="#00FFFF"/>
<path d="M53.9236 114.209V0H125.458V27.277H79.2704V47.218H118.413V74.495H79.2704V114.209H53.9236Z" fill="#001C4C"/>
<path d="M133.209 22.3243V0H158.556V22.3243H133.209ZM133.209 114.209V29.9954H158.556V114.209H133.209Z" fill="#001C4C"/>
<path d="M169.815 114.209V0H195.162V114.209H169.815Z" fill="#001C4C"/>
<path d="M203.606 94.7712C203.606 81.142 209.942 73.6385 225.43 67.8479L244.164 60.8658C243.456 56.0993 241.349 54.0512 235.72 54.0512C227.691 54.0512 218.678 59.339 212.911 67.1777L201.652 44.6858C210.388 35.1342 222.631 28.3196 237.135 28.3196C255.022 28.3196 266.004 38.8953 266.004 60.5306V85.9271C266.004 89.6695 266.85 90.8798 269.387 90.8798H273.463V114.228H259.098C251.208 114.228 243.472 110.132 243.472 98.1971V91.7176C241.364 102.628 236.012 116.09 221.785 116.09C211.65 116.09 203.621 109.946 203.621 94.7898L203.606 94.7712ZM231.49 94.7712C239.796 94.7712 243.456 90.8425 243.456 82.166V79.6152L232.044 84.5493C227.261 86.5974 226.123 88.2917 226.123 90.526C226.123 93.2444 227.814 94.7898 231.475 94.7898L231.49 94.7712Z" fill="#001C4C"/>
<path d="M279.8 114.209V29.9954H305.147V58.4639C307.254 43.9783 313.883 28.2824 328.094 28.2824C340.199 28.2824 344.705 37.4802 344.705 51.4632C344.705 61.685 341.891 70.3802 339.922 74.6439H316.682C319.22 71.0691 322.035 64.5896 322.035 59.4694C322.035 54.7029 320.343 51.4632 316.267 51.4632C310.499 51.4632 305.147 58.1102 305.147 71.7393V114.191H279.8V114.209Z" fill="#001C4C"/>
<path d="M362.946 151.131V35.3204H367.606L368.867 54.6656V151.113H362.946V151.131ZM392.215 117.598C385.463 117.598 380.249 115.755 376.573 112.068C372.897 108.382 370.513 103.373 369.437 97.0241H364.346L368.883 76.1521C368.883 87.4725 370.744 96.0559 374.481 101.865C378.219 107.674 383.71 110.579 390.969 110.579C398.229 110.579 403.581 107.693 407.272 101.902C410.964 96.1117 412.809 87.6214 412.809 76.45C412.809 64.7199 410.979 55.8386 407.303 49.8247C403.627 43.8107 398.229 40.7944 391.092 40.7944C383.956 40.7944 378.265 43.699 374.512 49.5081C370.759 55.3173 368.883 63.9193 368.883 75.2956L364.976 53.4368H369.375C370.421 46.9387 372.851 42.0419 376.65 38.7277C380.449 35.4321 385.509 33.775 391.846 33.775C400.736 33.775 407.457 37.3871 412.009 44.5927C416.562 51.7983 418.838 62.4112 418.838 76.4314C418.838 90.4515 416.593 100.171 412.102 107.134C407.611 114.098 400.982 117.58 392.215 117.58V117.598Z" fill="#001C4C"/>
<path d="M430.62 116.09V109.238H473.669V116.09H430.62ZM433.127 42.1909V35.339H450.183V42.1909H433.127ZM447.661 116.09V35.3204H452.321L453.583 58.4826V116.071H447.661V116.09ZM453.583 81.3468L449.676 56.0621H454.075C455.997 41.2413 462.78 33.8123 474.408 33.8123C481.621 33.8123 486.866 36.1955 490.142 40.9806C493.418 45.7471 495.048 53.474 495.048 64.1428H489.004C489.004 55.9131 487.835 49.9736 485.481 46.3243C483.128 42.6749 479.36 40.8317 474.146 40.8317C467.225 40.8317 462.057 44.3507 458.658 51.3887C455.259 58.4267 453.567 68.4252 453.567 81.3654L453.583 81.3468Z" fill="#001C4C"/>
<path d="M691.609 81.5144L686.98 81.6075C680.627 81.7378 677.982 81.7937 669.646 81.8309C658.311 81.8868 646.852 81.924 635.117 81.9054V87.4911C646.852 87.4911 658.326 87.4725 669.661 87.4166C678.044 87.3794 680.674 87.3235 687.056 87.1932L691.686 87.1001L691.609 81.5144Z" fill="#00FFFF"/>
<path d="M543.004 73.0613C548.08 69.2258 552.817 64.6269 557.169 59.2832C561.522 53.9395 574.964 35.1528 565.429 17.744C562.891 13.1078 559.276 10.2033 555.001 9.34678C550.294 8.41582 545.203 10.1474 541.005 14.0946C529.177 25.2475 524.824 46.9015 531.084 63.398C532.315 66.6191 533.76 69.412 535.406 71.8511C524.594 78.5539 512.366 81.8495 499.17 81.5144L499.078 87.1001C513.566 87.4352 526.978 83.6928 538.744 76.059C548.141 86.1133 561.753 87.8262 574.764 87.8262C577.933 87.8262 581.055 87.7145 584.07 87.6214V82.0357C569.427 82.557 553.447 82.948 543.004 73.0799V73.0613ZM535.268 61.052C529.854 46.827 533.622 28.1334 543.835 18.4888C546.465 16.0124 549.525 14.6718 552.448 14.6718C553.047 14.6718 553.663 14.7277 554.247 14.8394C557.231 15.4352 559.769 17.4833 561.583 20.7975C569.197 34.706 557.615 50.7556 553.893 55.3359C549.51 60.7168 544.711 65.2971 539.543 69.0582C537.898 66.7867 536.467 64.1241 535.283 61.0334L535.268 61.052Z" fill="#00FFFF"/>
<path d="M579.025 116.09V35.3204H584.054L584.931 52.3941V116.09H579.01H579.025ZM605.264 116.09V52.841C605.264 44.8161 602.188 40.813 596.005 40.813C588.622 40.813 584.931 46.194 584.931 56.9558L581.024 45.3747H584.993C586.5 37.6478 590.929 33.7936 598.266 33.7936C602.588 33.7936 605.818 35.2459 607.955 38.1319C610.093 41.0178 611.17 45.4306 611.17 51.3142V116.071H605.248L605.264 116.09ZM631.518 116.09V54.3677C631.518 45.3189 628.457 40.813 622.336 40.813C614.907 40.813 611.201 46.194 611.201 56.9558L606.663 45.3747H611.062C611.739 41.4647 613.123 38.5601 615.246 36.6424C617.368 34.7432 620.229 33.7936 623.843 33.7936C628.381 33.7936 631.78 35.3763 634.04 38.5601C636.301 41.744 637.44 46.4919 637.44 52.841V116.071H631.518V116.09Z" fill="#001C4C"/>
<path d="M542.389 35.3204H512.628V42.1722H542.389V35.3204Z" fill="#001C4C"/>
</svg>
