<svg width="24" height="24" viewBox="0 0 24 24" fill="none" xmlns="http://www.w3.org/2000/svg">
<path d="M22.5644 1.98526L23.2044 2.91326C24.2284 4.41726 24.2764 6.27326 23.3004 7.80926C21.7964 10.1933 20.8844 12.1293 20.5964 13.6013C20.3724 14.7853 20.2124 16.0173 20.1164 17.3293C19.9884 19.0093 18.8684 20.5453 17.1244 21.3933L13.4924 23.1533C9.89236 24.8973 5.28436 23.8573 3.20436 20.8333L1.47636 18.3213C-1.56364 13.8893 0.244365 8.24126 5.49236 5.69726L16.1324 0.529259C18.3724 -0.558741 21.2524 0.081259 22.5644 1.98526ZM20.9164 3.12126C20.1804 2.06526 18.3884 1.64926 16.9964 2.33726L6.37236 7.48926C2.18036 9.52126 0.820365 13.8093 3.12436 17.1853L4.85236 19.6973C6.35636 21.8893 9.87636 22.6893 12.6124 21.3453L16.2444 19.5853C17.3804 19.0413 18.0524 18.1293 18.1164 17.1853C18.2124 15.7933 18.3884 14.4653 18.6444 13.2173C18.9804 11.4573 19.9884 9.31326 21.6044 6.73726C22.1484 5.87326 22.1324 4.89726 21.5564 4.04926L20.9164 3.12126ZM19.2684 4.24126L19.9084 5.18526C20.0364 5.37726 20.0364 5.48926 19.9244 5.66526C18.1644 8.43326 17.0764 10.7693 16.6764 12.8333C16.4044 14.1613 16.2284 15.5693 16.1164 17.0413C16.1004 17.2493 15.8764 17.5373 15.3804 17.7933L11.7484 19.5533C9.87637 20.4653 7.42836 19.9213 6.50036 18.5773L4.77236 16.0493C3.18836 13.7293 4.11636 10.8173 7.25237 9.29726L17.8764 4.12926C18.4044 3.87326 19.1244 4.03326 19.2684 4.24126ZM9.20436 12.5773C8.98847 12.676 8.79709 12.8212 8.64393 13.0026C8.49077 13.184 8.37963 13.397 8.31846 13.6264C8.25729 13.8557 8.24762 14.0958 8.29013 14.3293C8.33265 14.5629 8.42629 14.7842 8.56436 14.9773C8.56436 14.9773 8.56437 14.9933 8.58037 15.0093C9.20436 15.8573 10.4044 16.0333 11.2524 15.4093L12.2124 14.6893C12.9804 14.1293 13.3964 13.2173 13.3324 12.2733C13.3173 12.1519 13.285 12.0334 13.2364 11.9213C13.1786 11.7922 13.0957 11.676 12.9924 11.5793C12.8892 11.4827 12.7677 11.4076 12.6352 11.3584C12.5026 11.3093 12.3615 11.287 12.2203 11.293C12.079 11.299 11.9403 11.3331 11.8124 11.3933L9.20436 12.5773Z" fill="#469EAF"/>
</svg>
