<svg width="24" height="24" viewBox="0 0 24 24" fill="none" xmlns="http://www.w3.org/2000/svg">
<path d="M14.137 2.73807C13.394 3.48107 13.009 4.77607 13.289 5.79007C13.438 6.32607 13.462 6.97507 13.069 7.36907L7.36901 13.0691C6.97501 13.4621 6.32601 13.4381 5.78901 13.2891C4.77601 13.0091 3.48101 13.3941 2.73801 14.1371C2.50406 14.371 2.31846 14.6486 2.19183 14.9542C2.06519 15.2598 1.99999 15.5874 1.99994 15.9182C1.99985 16.5863 2.26516 17.2271 2.73751 17.6996C3.20986 18.1721 3.85055 18.4375 4.51865 18.4376C5.18675 18.4377 5.82752 18.1724 6.30001 17.7001C5.82766 18.1726 5.56235 18.8133 5.56244 19.4814C5.56253 20.1495 5.82802 20.7902 6.30051 21.2626C6.77299 21.7349 7.41376 22.0002 8.08186 22.0001C8.74996 22 9.39066 21.7346 9.86301 21.2621C10.606 20.5191 10.991 19.2241 10.711 18.2101C10.562 17.6741 10.538 17.0251 10.931 16.6311L16.631 10.9311C17.025 10.5381 17.674 10.5621 18.211 10.7111C19.224 10.9911 20.519 10.6061 21.262 9.86307C21.7345 9.39072 22 8.75002 22.0001 8.08192C22.0002 7.41382 21.7349 6.77305 21.2625 6.30057C21.0286 6.06662 20.7509 5.88103 20.4453 5.75439C20.1397 5.62775 19.8122 5.56255 19.4814 5.5625C18.8133 5.56241 18.1725 5.82772 17.7 6.30007C18.1724 5.82758 18.4377 5.18681 18.4376 4.51871C18.4375 3.85062 18.172 3.20992 17.6995 2.73757C17.227 2.26522 16.5863 1.99991 15.9182 2C15.2501 2.00009 14.6094 2.26558 14.137 2.73807Z" stroke="#469EAF" stroke-width="1.5" stroke-linecap="round" stroke-linejoin="round"/>
</svg>
