<svg width="73" height="32" viewBox="0 0 73 32" fill="none" xmlns="http://www.w3.org/2000/svg">
<path d="M64.6671 1.22412C67.0471 1.22412 68.8831 2.04012 70.1751 3.67212C71.5351 5.30412 72.2151 7.78612 72.2151 11.1181C72.2151 14.7221 71.3311 18.1901 69.5631 21.5221C67.8631 24.7861 65.3471 28.0501 62.0151 31.3141C61.9471 31.3821 61.8451 31.4161 61.7091 31.4161C61.5051 31.4161 61.3351 31.3481 61.1991 31.2121C61.1311 31.0081 61.1311 30.8041 61.1991 30.6001C63.0351 28.3561 64.2931 26.1461 64.9731 23.9701C65.7211 21.7261 66.0951 19.2441 66.0951 16.5241C66.0951 14.6201 65.9251 13.2261 65.5851 12.3421C65.2451 11.3901 64.7011 10.6081 63.9531 9.99612L67.7271 9.28212C67.7951 10.4381 67.4551 11.3221 66.7071 11.9341C65.9591 12.5461 64.9391 12.8521 63.6471 12.8521C61.8791 12.8521 60.4851 12.3421 59.4651 11.3221C58.5131 10.3021 58.0371 8.90812 58.0371 7.14012C58.0371 5.30412 58.6151 3.87612 59.7711 2.85612C60.9951 1.76812 62.6271 1.22412 64.6671 1.22412ZM47.0211 1.22412C49.4011 1.22412 51.2371 2.04012 52.5291 3.67212C53.8891 5.30412 54.5691 7.78612 54.5691 11.1181C54.5691 14.7221 53.6851 18.1901 51.9171 21.5221C50.2171 24.7861 47.7011 28.0501 44.3691 31.3141C44.3011 31.3821 44.1991 31.4161 44.0631 31.4161C43.8591 31.4161 43.6891 31.3481 43.5531 31.2121C43.4851 31.0081 43.4851 30.8041 43.5531 30.6001C45.3891 28.3561 46.6471 26.1461 47.3271 23.9701C48.0751 21.7261 48.4491 19.2441 48.4491 16.5241C48.4491 14.6201 48.2791 13.2261 47.9391 12.3421C47.5991 11.3901 47.0551 10.6081 46.3071 9.99612L50.0811 9.28212C50.1491 10.4381 49.8091 11.3221 49.0611 11.9341C48.3131 12.5461 47.2931 12.8521 46.0011 12.8521C44.2331 12.8521 42.8391 12.3421 41.8191 11.3221C40.8671 10.3021 40.3911 8.90812 40.3911 7.14012C40.3911 5.30412 40.9691 3.87612 42.1251 2.85612C43.3491 1.76812 44.9811 1.22412 47.0211 1.22412Z" fill="#0AD2E3"/>
<path d="M7.548 30.192C5.168 30.192 3.298 29.376 1.938 27.744C0.646 26.112 0 23.63 0 20.298C0 16.694 0.85 13.26 2.55 9.996C4.318 6.664 6.868 3.366 10.2 0.101997C10.268 0.0339983 10.37 0 10.506 0C10.71 0 10.846 0.102002 10.914 0.306004C11.05 0.442002 11.084 0.612 11.016 0.816002C9.18 3.06 7.888 5.304 7.14 7.548C6.46 9.724 6.12 12.172 6.12 14.892C6.12 16.796 6.29 18.224 6.63 19.176C6.97 20.06 7.514 20.808 8.262 21.42L4.488 22.134C4.42 20.978 4.76 20.094 5.508 19.482C6.256 18.87 7.276 18.564 8.568 18.564C10.336 18.564 11.696 19.074 12.648 20.094C13.668 21.114 14.178 22.508 14.178 24.276C14.178 26.112 13.566 27.574 12.342 28.662C11.186 29.682 9.588 30.192 7.548 30.192ZM25.194 30.192C22.814 30.192 20.944 29.376 19.584 27.744C18.292 26.112 17.646 23.63 17.646 20.298C17.646 16.694 18.496 13.26 20.196 9.996C21.964 6.664 24.514 3.366 27.846 0.101997C27.914 0.0339983 28.016 0 28.152 0C28.356 0 28.492 0.102002 28.56 0.306004C28.696 0.442002 28.73 0.612 28.662 0.816002C26.826 3.06 25.534 5.304 24.786 7.548C24.106 9.724 23.766 12.172 23.766 14.892C23.766 16.796 23.936 18.224 24.276 19.176C24.616 20.06 25.16 20.808 25.908 21.42L22.134 22.134C22.066 20.978 22.406 20.094 23.154 19.482C23.902 18.87 24.922 18.564 26.214 18.564C27.982 18.564 29.342 19.074 30.294 20.094C31.314 21.114 31.824 22.508 31.824 24.276C31.824 26.112 31.212 27.574 29.988 28.662C28.832 29.682 27.234 30.192 25.194 30.192Z" fill="#0AD2E3"/>
</svg>
