<svg width="30" height="30" viewBox="0 0 30 30" fill="none" xmlns="http://www.w3.org/2000/svg">
<path d="M6.24319 0.240235C5.99124 0.240235 5.7334 0.339844 5.54004 0.533204C5.15332 0.919923 5.15332 1.55273 5.54004 1.93945L18.7764 15.1758L5.7334 28.2188C5.34668 28.6055 5.34668 29.2383 5.7334 29.625C6.12012 30.0117 6.75293 30.0117 7.13965 29.625L20.8916 15.8789C21.2783 15.4922 21.2783 14.8594 20.8916 14.4727L6.95215 0.533204C6.75293 0.333985 6.50101 0.240235 6.24319 0.240235Z" fill="white"/>
<path d="M13.7432 0.240235C13.4912 0.240235 13.2334 0.339844 13.04 0.533204C12.6533 0.919923 12.6533 1.55273 13.04 1.93945L26.2764 15.1758L13.2334 28.2188C12.8467 28.6055 12.8467 29.2383 13.2334 29.625C13.6201 30.0117 14.2529 30.0117 14.6396 29.625L28.3916 15.8789C28.7783 15.4922 28.7783 14.8594 28.3916 14.4727L14.4521 0.533204C14.2529 0.333985 14.001 0.240235 13.7432 0.240235Z" fill="white"/>
</svg>
