<svg width="60" height="60" viewBox="0 0 60 60" fill="none" xmlns="http://www.w3.org/2000/svg">
<path d="M30 30C32.9837 30 35.8452 28.8147 37.955 26.705C40.0647 24.5952 41.25 21.7337 41.25 18.75C41.25 15.7663 40.0647 12.9048 37.955 10.795C35.8452 8.68526 32.9837 7.5 30 7.5C27.0163 7.5 24.1548 8.68526 22.045 10.795C19.9353 12.9048 18.75 15.7663 18.75 18.75C18.75 21.7337 19.9353 24.5952 22.045 26.705C24.1548 28.8147 27.0163 30 30 30ZM30 33.75C26.0218 33.75 22.2064 32.1696 19.3934 29.3566C16.5804 26.5436 15 22.7282 15 18.75C15 14.7718 16.5804 10.9564 19.3934 8.1434C22.2064 5.33035 26.0218 3.75 30 3.75C33.9782 3.75 37.7936 5.33035 40.6066 8.1434C43.4196 10.9564 45 14.7718 45 18.75C45 22.7282 43.4196 26.5436 40.6066 29.3566C37.7936 32.1696 33.9782 33.75 30 33.75Z" fill="#00BBFF"/>
<path d="M30 30C30.4973 30 30.9742 30.1975 31.3258 30.5492C31.6775 30.9008 31.875 31.3777 31.875 31.875V46.875C31.875 47.3723 31.6775 47.8492 31.3258 48.2008C30.9742 48.5525 30.4973 48.75 30 48.75C29.5027 48.75 29.0258 48.5525 28.6742 48.2008C28.3225 47.8492 28.125 47.3723 28.125 46.875V31.875C28.125 31.3777 28.3225 30.9008 28.6742 30.5492C29.0258 30.1975 29.5027 30 30 30Z" fill="#00BBFF"/>
<path d="M22.5 38.0273V41.8359C15.8086 42.9141 11.25 45.2285 11.25 46.875C11.25 49.084 19.4473 52.5 30 52.5C40.5527 52.5 48.75 49.084 48.75 46.875C48.75 45.2227 44.1914 42.9141 37.5 41.8359V38.0273C46.2363 39.3164 52.5 42.7969 52.5 46.875C52.5 52.0488 42.4277 56.25 30 56.25C17.5723 56.25 7.5 52.0488 7.5 46.875C7.5 42.791 13.7637 39.3164 22.5 38.0273Z" fill="#00BBFF"/>
</svg>
