<svg width="60" height="60" viewBox="0 0 60 60" fill="none" xmlns="http://www.w3.org/2000/svg">
<path d="M29.9999 30C18.6624 30 9.07495 37.41 5.89245 47.61C4.99245 50.505 4.53995 51.9525 5.67495 53.475C6.80745 55 8.65245 55 12.3424 55H47.6574C51.3474 55 53.1924 55 54.3249 53.475C55.4599 51.95 55.0074 50.505 54.1049 47.61C50.9274 37.41 41.3399 30 29.9999 30Z" stroke="#00BBFF" stroke-width="3.75" stroke-linecap="round"/>
<path d="M37.5 42.5H37.5225" stroke="#00BBFF" stroke-width="5" stroke-linecap="round" stroke-linejoin="round"/>
<path d="M30 55C30 53.0109 29.2098 51.1032 27.8033 49.6967C26.3968 48.2902 24.4891 47.5 22.5 47.5C20.5109 47.5 18.6032 48.2902 17.1967 49.6967C15.7902 51.1032 15 53.0109 15 55M30 30V18.75M30 18.75V12.5C30 8.965 30 7.1975 31.1 6.1C32.195 5 33.9625 5 37.5 5H43.125C46.0575 5 47.525 5 48.5325 5.775C48.7926 5.97457 49.0254 6.20739 49.225 6.4675C50 7.4775 50 8.9425 50 11.875C50 14.8075 50 16.275 49.225 17.2825C49.0254 17.5426 48.7926 17.7754 48.5325 17.975C47.5225 18.75 46.0575 18.75 43.125 18.75H30Z" stroke="#00BBFF" stroke-width="3.75" stroke-linecap="round"/>
</svg>
