<svg width="60" height="60" viewBox="0 0 60 60" fill="none" xmlns="http://www.w3.org/2000/svg">
<path d="M17.019 0C17.576 0 18.1101 0.221249 18.5039 0.615076C18.8978 1.0089 19.119 1.54305 19.119 2.1V6.027H41.67V2.127C41.67 1.57005 41.8912 1.0359 42.2851 0.642076C42.6789 0.248249 43.213 0.027 43.77 0.027C44.327 0.027 44.8611 0.248249 45.2549 0.642076C45.6487 1.0359 45.87 1.57005 45.87 2.127V6.027H54C55.5908 6.027 57.1164 6.65873 58.2416 7.7833C59.3667 8.90787 59.9992 10.4332 60 12.024V54.003C59.9992 55.5938 59.3667 57.1191 58.2416 58.2437C57.1164 59.3683 55.5908 60 54 60H6C4.40922 60 2.88355 59.3683 1.75842 58.2437C0.633288 57.1191 0.00079539 55.5938 0 54.003L0 12.024C0.00079539 10.4332 0.633288 8.90787 1.75842 7.7833C2.88355 6.65873 4.40922 6.027 6 6.027H14.919V2.097C14.9198 1.54057 15.1414 1.00719 15.5351 0.614015C15.9289 0.220837 16.4626 -5.6779e-07 17.019 0ZM4.2 23.226V54.003C4.2 54.2394 4.24656 54.4734 4.33702 54.6918C4.42748 54.9102 4.56006 55.1086 4.72721 55.2758C4.89435 55.4429 5.09278 55.5755 5.31117 55.666C5.52956 55.7564 5.76362 55.803 6 55.803H54C54.2364 55.803 54.4704 55.7564 54.6888 55.666C54.9072 55.5755 55.1056 55.4429 55.2728 55.2758C55.4399 55.1086 55.5725 54.9102 55.663 54.6918C55.7534 54.4734 55.8 54.2394 55.8 54.003V23.268L4.2 23.226ZM20.001 43.857V48.855H15V43.857H20.001ZM32.499 43.857V48.855H27.501V43.857H32.499ZM45 43.857V48.855H39.999V43.857H45ZM20.001 31.926V36.924H15V31.926H20.001ZM32.499 31.926V36.924H27.501V31.926H32.499ZM45 31.926V36.924H39.999V31.926H45ZM14.919 10.224H6C5.76362 10.224 5.52956 10.2706 5.31117 10.361C5.09278 10.4515 4.89435 10.5841 4.72721 10.7512C4.56006 10.9184 4.42748 11.1168 4.33702 11.3352C4.24656 11.5536 4.2 11.7876 4.2 12.024V19.029L55.8 19.071V12.024C55.8 11.7876 55.7534 11.5536 55.663 11.3352C55.5725 11.1168 55.4399 10.9184 55.2728 10.7512C55.1056 10.5841 54.9072 10.4515 54.6888 10.361C54.4704 10.2706 54.2364 10.224 54 10.224H45.87V13.011C45.87 13.568 45.6487 14.1021 45.2549 14.4959C44.8611 14.8898 44.327 15.111 43.77 15.111C43.213 15.111 42.6789 14.8898 42.2851 14.4959C41.8912 14.1021 41.67 13.568 41.67 13.011V10.224H19.119V12.984C19.119 13.541 18.8978 14.0751 18.5039 14.4689C18.1101 14.8628 17.576 15.084 17.019 15.084C16.462 15.084 15.9279 14.8628 15.5341 14.4689C15.1402 14.0751 14.919 13.541 14.919 12.984V10.224Z" fill="#00BBFF"/>
</svg>
