<svg width="60" height="60" viewBox="0 0 60 60" fill="none" xmlns="http://www.w3.org/2000/svg">
<path d="M30 55C43.8075 55 55 43.8075 55 30C55 16.1925 43.8075 5 30 5C16.1925 5 5 16.1925 5 30C5 43.8075 16.1925 55 30 55Z" stroke="#00BBFF" stroke-width="3"/>
<path d="M5 26.05C8.76917 24.2708 11.5567 24.0229 13.3625 25.3063C16.0712 27.2313 16.41 35.08 22.5725 31.33C28.735 27.58 19.9338 26.05 21.8438 20.6175C23.7538 15.1838 30.01 19.405 30.6312 13.4538C31.0471 9.48625 26.3012 7.96792 16.3937 8.89875" stroke="#00BBFF" stroke-width="3"/>
<path d="M45 10C37.8575 16.2358 35.3629 20.0013 37.5163 21.2963C40.7463 23.24 42.1163 20.5038 46.0588 21.2963C50.0013 22.0888 49.1463 27.4325 47.0738 27.4325C45.0013 27.4325 34.2625 26.065 34.8038 32.3312C35.345 38.5975 41.8038 39.525 41.8038 43.0263C41.8038 45.3596 40.3746 48.9317 37.5163 53.7425M7.63 41.1575C8.48207 40.7826 9.3388 40.4184 10.2 40.065C15.0083 38.1233 18.5767 37.6654 20.905 38.6912C25.02 40.5075 23.4375 44.175 24.7275 45.5263C26.015 46.8775 29.235 46.485 29.235 49.055C29.235 50.7692 28.6592 52.705 27.5075 54.8625" stroke="#00BBFF" stroke-width="3" stroke-linecap="round"/>
</svg>
