<svg width="40" height="40" viewBox="0 0 40 40" fill="none" xmlns="http://www.w3.org/2000/svg">
<path d="M19.1166 27.13C19.351 27.3641 19.6687 27.4956 20 27.4956C20.3312 27.4956 20.6489 27.3641 20.8833 27.13L24.6333 23.3817C24.8541 23.1447 24.9743 22.8313 24.9686 22.5075C24.9629 22.1836 24.8317 21.8746 24.6027 21.6456C24.3737 21.4166 24.0647 21.2854 23.7409 21.2797C23.417 21.274 23.1036 21.3942 22.8666 21.615L20 24.4767L17.1333 21.6117C17.0179 21.4923 16.88 21.3972 16.7274 21.3317C16.5749 21.2663 16.4109 21.2319 16.2449 21.2305C16.0789 21.2292 15.9143 21.2609 15.7607 21.3238C15.6071 21.3867 15.4676 21.4796 15.3503 21.597C15.233 21.7144 15.1403 21.854 15.0775 22.0077C15.0147 22.1613 14.9832 22.3259 14.9847 22.4919C14.9862 22.6579 15.0208 22.8219 15.0863 22.9744C15.1519 23.1268 15.2472 23.2647 15.3666 23.38L19.1166 27.13ZM20 15.0917C19.6464 15.0917 19.3072 14.9512 19.0572 14.7011C18.8071 14.4511 18.6666 14.1119 18.6666 13.7583C18.6666 13.4047 18.8071 13.0656 19.0572 12.8155C19.3072 12.5655 19.6464 12.425 20 12.425C20.3536 12.425 20.6927 12.5655 20.9428 12.8155C21.1928 13.0656 21.3333 13.4047 21.3333 13.7583C21.3333 14.1119 21.1928 14.4511 20.9428 14.7011C20.6927 14.9512 20.3536 15.0917 20 15.0917ZM18.6666 18.4517C18.6666 18.6268 18.7011 18.8001 18.7681 18.9619C18.8351 19.1237 18.9334 19.2707 19.0572 19.3945C19.181 19.5183 19.328 19.6165 19.4897 19.6835C19.6515 19.7505 19.8249 19.785 20 19.785C20.1751 19.785 20.3485 19.7505 20.5102 19.6835C20.672 19.6165 20.819 19.5183 20.9428 19.3945C21.0666 19.2707 21.1648 19.1237 21.2318 18.9619C21.2988 18.8001 21.3333 18.6268 21.3333 18.4517C21.3333 18.098 21.1928 17.7589 20.9428 17.5088C20.6927 17.2588 20.3536 17.1183 20 17.1183C19.6464 17.1183 19.3072 17.2588 19.0572 17.5088C18.8071 17.7589 18.6666 18.098 18.6666 18.4517Z" fill="white"/>
<path fill-rule="evenodd" clip-rule="evenodd" d="M20 3.33502C16.6848 3.33502 13.5054 4.65198 11.1612 6.99619C8.81696 9.34039 7.5 12.5198 7.5 15.835V24.1684C7.5 27.4836 8.81696 30.663 11.1612 33.0072C13.5054 35.3514 16.6848 36.6684 20 36.6684C23.3152 36.6684 26.4946 35.3514 28.8388 33.0072C31.183 30.663 32.5 27.4836 32.5 24.1684V15.835C32.5 12.5198 31.183 9.34039 28.8388 6.99619C26.4946 4.65198 23.3152 3.33502 20 3.33502ZM10 15.835C10 13.1829 11.0536 10.6393 12.9289 8.76395C14.8043 6.88859 17.3478 5.83502 20 5.83502C22.6522 5.83502 25.1957 6.88859 27.0711 8.76395C28.9464 10.6393 30 13.1829 30 15.835V24.1684C30 26.8205 28.9464 29.3641 27.0711 31.2394C25.1957 33.1148 22.6522 34.1684 20 34.1684C17.3478 34.1684 14.8043 33.1148 12.9289 31.2394C11.0536 29.3641 10 26.8205 10 24.1684V15.835Z" fill="white"/>
</svg>
