<svg width="423" height="209" viewBox="0 0 423 209" fill="none" xmlns="http://www.w3.org/2000/svg">
<path d="M348.348 80.9143V22.3543L351.468 22.5943V80.9143C351.468 85.0743 352.228 88.1543 353.748 90.1543C355.268 92.1543 357.668 93.1543 360.948 93.1543C361.108 93.1543 361.188 93.3943 361.188 93.8743C361.188 94.3543 361.108 94.5943 360.948 94.5943C359.268 94.5943 357.548 94.5543 355.788 94.4743C354.108 94.3943 352.188 94.3543 350.028 94.3543C347.948 94.3543 345.908 94.3943 343.908 94.4743C341.908 94.5543 340.028 94.5943 338.268 94.5943C338.108 94.5943 338.028 94.3543 338.028 93.8743C338.028 93.3943 338.108 93.1543 338.268 93.1543C341.788 93.1543 344.348 92.1543 345.948 90.1543C347.548 88.1543 348.348 85.0743 348.348 80.9143ZM409.068 96.1543C409.068 96.3143 408.868 96.3943 408.468 96.3943C408.148 96.4743 407.908 96.4743 407.748 96.3943L351.228 29.4343C348.428 26.1543 345.988 23.9543 343.908 22.8343C341.908 21.6343 339.908 21.0343 337.908 21.0343C337.748 21.0343 337.668 20.7943 337.668 20.3143C337.668 19.8343 337.748 19.5943 337.908 19.5943C339.428 19.5943 340.948 19.6343 342.468 19.7143C343.988 19.7943 345.388 19.8343 346.668 19.8343C348.588 19.8343 350.348 19.7943 351.948 19.7143C353.548 19.6343 354.748 19.5943 355.548 19.5943C356.588 19.5943 357.348 20.0743 357.828 21.0343C358.308 21.9143 359.468 23.5143 361.308 25.8343L408.108 82.2343L409.068 96.1543ZM409.068 33.3943V96.1543L406.068 92.4343V33.3943C406.068 29.2343 405.308 26.1543 403.788 24.1543C402.348 22.0743 399.988 21.0343 396.708 21.0343C396.548 21.0343 396.468 20.7943 396.468 20.3143C396.468 19.8343 396.548 19.5943 396.708 19.5943C398.388 19.5943 400.108 19.6743 401.868 19.8343C403.628 19.9143 405.548 19.9543 407.628 19.9543C409.628 19.9543 411.588 19.9143 413.508 19.8343C415.428 19.6743 417.228 19.5943 418.908 19.5943C419.068 19.5943 419.148 19.8343 419.148 20.3143C419.148 20.7943 419.068 21.0343 418.908 21.0343C415.548 21.0343 413.068 22.0743 411.468 24.1543C409.868 26.1543 409.068 29.2343 409.068 33.3943Z" fill="#E2DDD6"/>
<path d="M288.153 96.0343C282.393 96.0343 277.153 95.0343 272.433 93.0343C267.793 90.9543 263.793 88.1143 260.433 84.5143C257.153 80.9143 254.593 76.7943 252.753 72.1543C250.993 67.4343 250.113 62.4343 250.113 57.1543C250.113 50.6743 251.353 44.9943 253.833 40.1143C256.393 35.2343 259.753 31.1943 263.913 27.9943C268.073 24.7143 272.633 22.2743 277.593 20.6743C282.553 19.0743 287.473 18.2743 292.353 18.2743C298.273 18.2743 303.553 19.3543 308.193 21.5143C312.913 23.5943 316.913 26.4343 320.193 30.0343C323.473 33.6343 325.953 37.7143 327.633 42.2743C329.393 46.8343 330.273 51.5143 330.273 56.3143C330.273 61.9143 329.153 67.1143 326.913 71.9143C324.673 76.7143 321.593 80.9143 317.673 84.5143C313.833 88.1143 309.353 90.9543 304.233 93.0343C299.193 95.0343 293.833 96.0343 288.153 96.0343ZM292.353 93.3943C297.393 93.3943 301.953 92.1143 306.033 89.5543C310.193 86.9143 313.433 83.1143 315.753 78.1543C318.153 73.1143 319.353 66.9543 319.353 59.6743C319.353 52.2343 318.033 45.6343 315.393 39.8743C312.833 34.0343 309.153 29.4743 304.353 26.1943C299.633 22.8343 293.993 21.1543 287.433 21.1543C279.033 21.1543 272.513 23.9943 267.873 29.6743C263.313 35.3543 261.033 43.1143 261.033 52.9543C261.033 58.6343 261.753 63.9543 263.193 68.9143C264.713 73.7943 266.873 78.0743 269.673 81.7543C272.473 85.4343 275.793 88.3143 279.633 90.3943C283.473 92.3943 287.713 93.3943 292.353 93.3943ZM278.913 13.1143C278.593 13.2743 278.353 13.1543 278.193 12.7543C278.033 12.2743 278.073 11.9943 278.313 11.9143C281.753 9.99428 284.913 8.03428 287.793 6.03429C290.673 3.95428 293.553 1.99428 296.433 0.154282C296.753 -0.0857145 297.473 -0.0457126 298.593 0.274288C299.793 0.594284 301.033 1.03428 302.313 1.59429C303.593 2.07428 304.593 2.55428 305.313 3.03429C306.033 3.51429 306.113 3.79429 305.553 3.87428C300.193 5.15429 295.433 6.55429 291.273 8.07429C287.113 9.59429 282.993 11.2743 278.913 13.1143Z" fill="#E2DDD6"/>
<path d="M159.897 80.9143L161.097 22.3543L164.097 22.5943L162.897 80.9143C162.817 85.0743 163.537 88.1543 165.057 90.1543C166.657 92.1543 169.297 93.1543 172.977 93.1543C173.217 93.1543 173.337 93.3943 173.337 93.8743C173.337 94.3543 173.217 94.5943 172.977 94.5943C171.217 94.5943 169.417 94.5543 167.577 94.4743C165.737 94.3943 163.657 94.3543 161.337 94.3543C159.177 94.3543 157.137 94.3943 155.217 94.4743C153.297 94.5543 151.497 94.5943 149.817 94.5943C149.657 94.5943 149.577 94.3543 149.577 93.8743C149.577 93.3943 149.657 93.1543 149.817 93.1543C153.177 93.1543 155.657 92.1543 157.257 90.1543C158.937 88.1543 159.817 85.0743 159.897 80.9143ZM243.897 93.1543C244.057 93.1543 244.137 93.3943 244.137 93.8743C244.137 94.3543 244.057 94.5943 243.897 94.5943C241.897 94.5943 239.657 94.5543 237.177 94.4743C234.697 94.3943 232.057 94.3543 229.257 94.3543C226.617 94.3543 224.137 94.3943 221.817 94.4743C219.497 94.5543 217.417 94.5943 215.577 94.5943C215.337 94.5943 215.217 94.3543 215.217 93.8743C215.217 93.3943 215.337 93.1543 215.577 93.1543C219.497 93.1543 222.017 92.6343 223.137 91.5943C224.257 90.5543 224.697 88.3143 224.457 84.8743L222.057 28.3543L226.737 21.6343L195.657 93.7543C195.577 94.0743 195.257 94.2343 194.697 94.2343C194.217 94.2343 193.897 94.0743 193.737 93.7543L162.417 29.5543C159.617 23.8743 155.697 21.0343 150.657 21.0343C150.497 21.0343 150.417 20.7943 150.417 20.3143C150.417 19.8343 150.497 19.5943 150.657 19.5943C152.097 19.5943 153.577 19.6343 155.097 19.7143C156.697 19.7943 158.057 19.8343 159.177 19.8343C160.697 19.8343 162.057 19.7943 163.257 19.7143C164.537 19.6343 165.497 19.5943 166.137 19.5943C167.257 19.5943 168.137 19.9943 168.777 20.7943C169.417 21.5143 170.377 23.1943 171.657 25.8343L198.897 81.1543L194.457 88.8343L223.377 22.5943C223.777 21.6343 224.257 20.9143 224.817 20.4343C225.457 19.8743 226.177 19.5943 226.977 19.5943C227.537 19.5943 228.217 19.6343 229.017 19.7143C229.897 19.7943 230.897 19.8343 232.017 19.8343C234.257 19.8343 236.137 19.7943 237.657 19.7143C239.177 19.6343 240.737 19.5943 242.337 19.5943C242.497 19.5943 242.577 19.8343 242.577 20.3143C242.577 20.7943 242.497 21.0343 242.337 21.0343C238.497 21.0343 235.697 21.6743 233.937 22.9543C232.177 24.1543 231.337 26.3943 231.417 29.6743L233.937 84.8743C234.097 87.1943 234.417 88.9543 234.897 90.1543C235.377 91.3543 236.297 92.1543 237.657 92.5543C239.017 92.9543 241.097 93.1543 243.897 93.1543Z" fill="#E2DDD6"/>
<path d="M81.1191 29.4343V84.3943C81.1191 86.4743 81.3191 88.0743 81.7191 89.1943C82.1991 90.2343 83.0391 90.9543 84.2391 91.3543C85.5191 91.6743 87.3991 91.8343 89.8791 91.8343H100.079C105.279 91.8343 109.519 90.3143 112.799 87.2743C116.079 84.2343 118.239 80.1943 119.279 75.1543C119.279 74.9143 119.479 74.8343 119.879 74.9143C120.359 74.9143 120.599 75.0343 120.599 75.2743C120.359 77.5943 120.119 80.3943 119.879 83.6743C119.639 86.9543 119.519 89.9943 119.519 92.7943C119.519 93.9943 118.919 94.5943 117.719 94.5943H61.7991C61.6391 94.5943 61.5591 94.3543 61.5591 93.8743C61.5591 93.3943 61.6391 93.1543 61.7991 93.1543C64.5991 93.1543 66.6791 92.9543 68.0391 92.5543C69.4791 92.1543 70.4391 91.3543 70.9191 90.1543C71.3991 88.9543 71.6391 87.1943 71.6391 84.8743V29.3143C71.6391 26.9943 71.3991 25.2743 70.9191 24.1543C70.4391 22.9543 69.4791 22.1543 68.0391 21.7543C66.6791 21.2743 64.5991 21.0343 61.7991 21.0343C61.6391 21.0343 61.5591 20.7943 61.5591 20.3143C61.5591 19.8343 61.6391 19.5943 61.7991 19.5943C63.7191 19.5943 65.9191 19.6743 68.3991 19.8343C70.9591 19.9143 73.5991 19.9543 76.3191 19.9543C79.1991 19.9543 81.8391 19.9143 84.2391 19.8343C86.7191 19.6743 88.9191 19.5943 90.8391 19.5943C90.9991 19.5943 91.0791 19.8343 91.0791 20.3143C91.0791 20.7943 90.9991 21.0343 90.8391 21.0343C88.0391 21.0343 85.9591 21.2743 84.5991 21.7543C83.2391 22.1543 82.3191 22.9543 81.8391 24.1543C81.3591 25.3543 81.1191 27.1143 81.1191 29.4343Z" fill="#E2DDD6"/>
<path d="M51.48 94.5943H0.36C0.12 94.5943 0 94.3543 0 93.8743C0 93.3943 0.12 93.1543 0.36 93.1543C3.08 93.1543 5.12 92.9543 6.48 92.5543C7.92 92.1543 8.88 91.3543 9.36 90.1543C9.84 88.9543 10.08 87.1943 10.08 84.8743V29.3143C10.08 26.9943 9.84 25.2743 9.36 24.1543C8.88 22.9543 7.92 22.1543 6.48 21.7543C5.12 21.2743 3.08 21.0343 0.36 21.0343C0.12 21.0343 0 20.7943 0 20.3143C0 19.8343 0.12 19.5943 0.36 19.5943H49.32C50.12 19.5943 50.52 19.9543 50.52 20.6743L50.76 35.7943C50.76 36.0343 50.52 36.1943 50.04 36.2743C49.64 36.2743 49.4 36.1543 49.32 35.9143C48.76 31.5143 47.2 28.1943 44.64 25.9543C42.08 23.6343 38.72 22.4743 34.56 22.4743H28.44C26.04 22.4743 24.2 22.6743 22.92 23.0743C21.64 23.4743 20.76 24.2343 20.28 25.3543C19.8 26.3943 19.56 27.8743 19.56 29.7943V84.3943C19.56 86.3143 19.76 87.8343 20.16 88.9543C20.64 89.9943 21.48 90.7543 22.68 91.2343C23.88 91.6343 25.56 91.8343 27.72 91.8343H35.64C40.2 91.8343 43.96 90.5143 46.92 87.8743C49.88 85.1543 51.92 81.3143 53.04 76.3543C53.04 76.1143 53.28 76.0343 53.76 76.1143C54.24 76.1943 54.48 76.3543 54.48 76.5943C54.16 78.7543 53.88 81.3543 53.64 84.3943C53.4 87.4343 53.28 90.2343 53.28 92.7943C53.28 93.9943 52.68 94.5943 51.48 94.5943ZM44.76 66.9943C44.76 63.5543 43.76 61.0343 41.76 59.4343C39.84 57.7543 36.72 56.9143 32.4 56.9143H15V54.1543H32.76C36.84 54.1543 39.84 53.4743 41.76 52.1143C43.68 50.6743 44.64 48.4743 44.64 45.5143C44.64 45.3543 44.84 45.2743 45.24 45.2743C45.72 45.2743 45.96 45.3543 45.96 45.5143C45.96 47.9943 45.92 49.9143 45.84 51.2743C45.84 52.6343 45.84 54.0743 45.84 55.5943C45.84 57.4343 45.88 59.2743 45.96 61.1143C46.12 62.9543 46.2 64.9143 46.2 66.9943C46.2 67.1543 45.96 67.2343 45.48 67.2343C45 67.2343 44.76 67.1543 44.76 66.9943Z" fill="#E2DDD6"/>
<path d="M58.6069 110.344C60.2069 110.344 61.4569 110.894 62.3569 111.994C63.2569 113.094 63.7069 114.794 63.7069 117.094C63.7069 119.544 63.1569 121.844 62.0569 123.994C60.9569 126.094 59.4319 128.169 57.4819 130.219C57.2819 130.369 57.1069 130.369 56.9569 130.219C56.8069 130.019 56.7819 129.844 56.8819 129.694C58.1819 127.994 59.0069 126.394 59.3569 124.894C59.7569 123.394 59.9569 121.819 59.9569 120.169C59.9569 118.669 59.7569 117.544 59.3569 116.794C59.0069 116.044 58.5569 115.419 58.0069 114.919L60.8569 114.394C60.9069 115.244 60.6569 115.894 60.1069 116.344C59.6069 116.794 58.9319 117.019 58.0819 117.019C57.0319 117.019 56.2069 116.719 55.6069 116.119C55.0569 115.519 54.7819 114.719 54.7819 113.719C54.7819 112.619 55.1069 111.794 55.7569 111.244C56.4569 110.644 57.4069 110.344 58.6069 110.344Z" fill="#E2DDD6"/>
<path d="M24.6102 157.894C23.1102 157.894 21.2602 157.819 19.0602 157.669C16.8602 157.519 14.8352 157.444 12.9852 157.444C11.2852 157.444 9.63518 157.469 8.03518 157.519C6.48518 157.569 5.08518 157.594 3.83518 157.594C3.73518 157.594 3.68518 157.444 3.68518 157.144C3.68518 156.844 3.73518 156.694 3.83518 156.694C5.58518 156.694 6.91018 156.569 7.81018 156.319C8.71018 156.069 9.31018 155.569 9.61018 154.819C9.91018 154.069 10.0602 152.969 10.0602 151.519V116.794C10.0602 115.344 9.91018 114.269 9.61018 113.569C9.31018 112.819 8.71018 112.319 7.81018 112.069C6.96018 111.769 5.68518 111.619 3.98518 111.619C3.83518 111.619 3.76018 111.469 3.76018 111.169C3.76018 110.869 3.83518 110.719 3.98518 110.719C5.23518 110.719 6.61018 110.769 8.11018 110.869C9.66018 110.919 11.2852 110.944 12.9852 110.944C14.6852 110.944 16.5102 110.894 18.4602 110.794C20.4602 110.644 22.1602 110.569 23.5602 110.569C28.8602 110.569 33.4602 111.569 37.3602 113.569C41.3102 115.569 44.3852 118.294 46.5852 121.744C48.7852 125.194 49.8852 129.069 49.8852 133.369C49.8852 137.119 49.2102 140.519 47.8602 143.569C46.5602 146.569 44.7352 149.144 42.3852 151.294C40.0352 153.394 37.3352 155.019 34.2852 156.169C31.2352 157.319 28.0102 157.894 24.6102 157.894ZM23.8602 156.544C27.6102 156.544 30.9102 155.719 33.7602 154.069C36.6602 152.419 38.9352 149.994 40.5852 146.794C42.2352 143.544 43.0602 139.619 43.0602 135.019C43.0602 130.669 42.2852 126.769 40.7352 123.319C39.1852 119.819 37.0102 117.044 34.2102 114.994C31.4602 112.894 28.1602 111.844 24.3102 111.844C21.3102 111.844 19.1602 112.144 17.8602 112.744C16.6102 113.344 15.9852 114.744 15.9852 116.944V150.694C15.9852 152.694 16.4852 154.169 17.4852 155.119C18.4852 156.069 20.6102 156.544 23.8602 156.544Z" fill="#E2DDD6"/>
<path d="M400.284 208.594C398.64 208.594 395.917 206.642 392.114 202.736C388.414 198.728 383.943 193.076 378.702 185.779C373.461 178.379 367.551 169.592 360.974 159.417L371.302 156.18C379.935 168.615 387.232 178.533 393.193 185.933C399.257 193.332 404.601 198.677 409.226 201.965C413.851 205.151 418.27 206.744 422.484 206.744C422.792 206.744 422.946 207.053 422.946 207.669C422.946 208.286 422.792 208.594 422.484 208.594C416.728 208.594 412.001 208.594 408.301 208.594C404.704 208.594 402.032 208.594 400.284 208.594ZM363.286 111.782C371.919 111.782 378.496 113.632 383.018 117.331C387.643 120.929 389.956 125.759 389.956 131.823C389.956 137.578 388.311 142.716 385.023 147.239C381.734 151.761 377.417 155.306 372.073 157.876C366.832 160.445 361.179 161.73 355.115 161.73C353.882 161.73 352.598 161.73 351.261 161.73C349.925 161.627 348.692 161.524 347.562 161.421V196.107C347.562 199.088 347.819 201.349 348.332 202.89C348.949 204.432 350.131 205.46 351.878 205.974C353.728 206.487 356.452 206.744 360.049 206.744C360.357 206.744 360.511 207.053 360.511 207.669C360.511 208.286 360.357 208.594 360.049 208.594C357.479 208.594 354.653 208.543 351.57 208.44C348.487 208.337 345.095 208.286 341.395 208.286C337.901 208.286 334.561 208.337 331.375 208.44C328.189 208.543 325.311 208.594 322.742 208.594C322.434 208.594 322.279 208.286 322.279 207.669C322.279 207.053 322.434 206.744 322.742 206.744C326.236 206.744 328.857 206.487 330.604 205.974C332.454 205.46 333.687 204.432 334.304 202.89C335.023 201.349 335.383 199.088 335.383 196.107V124.731C335.383 121.751 335.075 119.541 334.458 118.102C333.841 116.561 332.659 115.533 330.912 115.019C329.165 114.402 326.493 114.094 322.896 114.094C322.69 114.094 322.588 113.786 322.588 113.169C322.588 112.552 322.69 112.244 322.896 112.244C325.465 112.244 328.292 112.347 331.375 112.552C334.561 112.655 337.901 112.707 341.395 112.707C344.684 112.707 348.384 112.552 352.495 112.244C356.606 111.936 360.203 111.782 363.286 111.782ZM377.315 136.756C377.315 131 376.544 126.53 375.002 123.344C373.461 120.055 371.251 117.743 368.373 116.406C365.598 115.07 362.31 114.402 358.507 114.402C354.602 114.402 351.775 115.122 350.028 116.561C348.384 117.897 347.562 120.723 347.562 125.039V157.567C349 157.67 350.542 157.773 352.186 157.876C353.934 157.978 355.424 158.03 356.657 158.03C364.262 158.03 369.607 156.283 372.69 152.788C375.773 149.294 377.315 143.95 377.315 136.756Z" fill="#E2DDD6"/>
<path d="M299.624 196.107C299.624 199.088 299.881 201.349 300.395 202.89C301.011 204.432 302.193 205.46 303.94 205.974C305.79 206.487 308.514 206.744 312.111 206.744C312.316 206.744 312.419 207.053 312.419 207.669C312.419 208.286 312.316 208.594 312.111 208.594C309.542 208.594 306.664 208.543 303.478 208.44C300.395 208.337 297.003 208.286 293.303 208.286C289.706 208.286 286.315 208.337 283.129 208.44C279.943 208.543 277.065 208.594 274.496 208.594C274.29 208.594 274.187 208.286 274.187 207.669C274.187 207.053 274.29 206.744 274.496 206.744C278.093 206.744 280.816 206.487 282.666 205.974C284.516 205.46 285.749 204.432 286.366 202.89C286.983 201.349 287.291 199.088 287.291 196.107V124.731C287.291 121.751 286.983 119.541 286.366 118.102C285.749 116.561 284.516 115.533 282.666 115.019C280.816 114.402 278.093 114.094 274.496 114.094C274.29 114.094 274.187 113.786 274.187 113.169C274.187 112.552 274.29 112.244 274.496 112.244C277.065 112.244 279.943 112.347 283.129 112.552C286.315 112.655 289.706 112.707 293.303 112.707C297.003 112.707 300.446 112.655 303.632 112.552C306.818 112.347 309.644 112.244 312.111 112.244C312.316 112.244 312.419 112.552 312.419 113.169C312.419 113.786 312.316 114.094 312.111 114.094C308.514 114.094 305.842 114.402 304.095 115.019C302.347 115.636 301.165 116.715 300.549 118.256C299.932 119.798 299.624 122.059 299.624 125.039V196.107Z" fill="#E2DDD6"/>
<path d="M240.004 125.039C240.004 122.059 239.695 119.798 239.079 118.256C238.565 116.715 237.332 115.636 235.379 115.019C233.529 114.402 230.651 114.094 226.746 114.094C226.438 114.094 226.283 113.786 226.283 113.169C226.283 112.552 226.438 112.244 226.746 112.244C229.212 112.244 232.039 112.347 235.225 112.552C238.513 112.655 242.162 112.707 246.17 112.707C249.664 112.707 253.056 112.655 256.345 112.552C259.736 112.347 262.665 112.244 265.132 112.244C265.44 112.244 265.594 112.552 265.594 113.169C265.594 113.786 265.44 114.094 265.132 114.094C261.535 114.094 258.76 114.402 256.807 115.019C254.957 115.533 253.724 116.561 253.107 118.102C252.491 119.541 252.182 121.751 252.182 124.731V196.107C252.182 199.088 252.491 201.349 253.107 202.89C253.724 204.432 254.957 205.46 256.807 205.974C258.76 206.487 261.535 206.744 265.132 206.744C265.44 206.744 265.594 207.053 265.594 207.669C265.594 208.286 265.44 208.594 265.132 208.594C262.665 208.594 259.736 208.543 256.345 208.44C253.056 208.337 249.664 208.286 246.17 208.286C242.162 208.286 238.513 208.337 235.225 208.44C232.039 208.543 229.212 208.594 226.746 208.594C226.438 208.594 226.283 208.286 226.283 207.669C226.283 207.053 226.438 206.744 226.746 206.744C230.651 206.744 233.529 206.487 235.379 205.974C237.332 205.46 238.565 204.432 239.079 202.89C239.695 201.349 240.004 199.088 240.004 196.107V125.039ZM177.26 160.188V156.642H245.399V160.188H177.26ZM171.557 196.107V124.731C171.557 121.751 171.248 119.541 170.632 118.102C170.015 116.561 168.782 115.533 166.932 115.019C165.082 114.402 162.358 114.094 158.761 114.094C158.453 114.094 158.299 113.786 158.299 113.169C158.299 112.552 158.453 112.244 158.761 112.244C161.331 112.244 164.208 112.347 167.394 112.552C170.58 112.655 173.92 112.707 177.415 112.707C181.526 112.707 185.174 112.655 188.36 112.552C191.649 112.347 194.578 112.244 197.147 112.244C197.353 112.244 197.455 112.552 197.455 113.169C197.455 113.786 197.353 114.094 197.147 114.094C193.345 114.094 190.467 114.402 188.514 115.019C186.664 115.636 185.38 116.715 184.66 118.256C184.044 119.798 183.735 122.059 183.735 125.039V196.107C183.735 199.088 184.044 201.349 184.66 202.89C185.277 204.432 186.561 205.46 188.514 205.974C190.467 206.487 193.345 206.744 197.147 206.744C197.353 206.744 197.455 207.053 197.455 207.669C197.455 208.286 197.353 208.594 197.147 208.594C194.475 208.594 191.546 208.543 188.36 208.44C185.174 208.337 181.526 208.286 177.415 208.286C173.92 208.286 170.529 208.337 167.24 208.44C163.951 208.543 161.022 208.594 158.453 208.594C158.247 208.594 158.145 208.286 158.145 207.669C158.145 207.053 158.247 206.744 158.453 206.744C162.153 206.744 164.928 206.487 166.778 205.974C168.73 205.46 170.015 204.432 170.632 202.89C171.248 201.349 171.557 199.088 171.557 196.107Z" fill="#E2DDD6"/>
<path d="M76.4312 168.358L78.2811 164.967H120.213L121.292 168.358H76.4312ZM156.132 206.744C156.646 206.744 156.903 207.053 156.903 207.669C156.903 208.286 156.646 208.594 156.132 208.594C153.152 208.594 150.068 208.492 146.882 208.286C143.799 208.08 140.767 207.978 137.787 207.978C134.498 207.978 131.621 208.08 129.154 208.286C126.79 208.492 124.118 208.594 121.138 208.594C120.727 208.594 120.521 208.286 120.521 207.669C120.521 207.053 120.727 206.744 121.138 206.744C126.174 206.744 129.257 205.974 130.387 204.432C131.518 202.788 130.953 199.602 128.691 194.874L95.547 125.964L100.48 118.565L70.4189 188.245C67.7468 194.514 67.5926 199.19 69.9564 202.274C72.3202 205.254 76.7395 206.744 83.2142 206.744C83.7281 206.744 83.985 207.053 83.985 207.669C83.985 208.286 83.7281 208.594 83.2142 208.594C80.131 208.594 77.3047 208.492 74.7354 208.286C72.1661 208.08 68.9287 207.978 65.0233 207.978C61.2207 207.978 58.1375 208.08 55.7737 208.286C53.5127 208.492 50.7378 208.594 47.449 208.594C47.0379 208.594 46.8324 208.286 46.8324 207.669C46.8324 207.053 47.0379 206.744 47.449 206.744C50.2239 206.744 52.6391 206.23 54.6946 205.203C56.75 204.072 58.7027 202.068 60.5527 199.19C62.5054 196.313 64.6122 192.202 66.8732 186.858L99.7094 111.165C99.8121 110.857 100.172 110.703 100.788 110.703C101.405 110.6 101.765 110.754 101.868 111.165L138.866 187.474C141.333 192.51 143.439 196.467 145.187 199.345C147.037 202.12 148.835 204.072 150.582 205.203C152.329 206.23 154.179 206.744 156.132 206.744Z" fill="#E2DDD6"/>
</svg>
