<svg width="477" height="189" viewBox="0 0 477 189" fill="none" xmlns="http://www.w3.org/2000/svg">
<path d="M441.861 64.0805C437.114 64.0805 432.796 63.2564 428.906 61.6082C425.082 59.8941 421.786 57.5537 419.017 54.5871C416.314 51.6204 414.205 48.2252 412.688 44.4014C411.238 40.5118 410.513 36.3914 410.513 32.0402C410.513 26.7002 411.535 22.0194 413.578 17.9979C415.688 13.9764 418.457 10.6471 421.885 8.01006C425.313 5.30708 429.071 3.29632 433.158 1.97779C437.246 0.659263 441.3 0 445.322 0C450.2 0 454.552 0.890005 458.375 2.67002C462.265 4.38411 465.561 6.72449 468.264 9.69118C470.967 12.6579 473.011 16.0201 474.395 19.7779C475.846 23.5357 476.571 27.3924 476.571 31.348C476.571 35.9628 475.648 40.2481 473.802 44.2036C471.956 48.1592 469.418 51.6204 466.188 54.5871C463.023 57.5537 459.331 59.8941 455.112 61.6082C450.959 63.2564 446.541 64.0805 441.861 64.0805ZM445.322 61.9049C449.475 61.9049 453.233 60.8501 456.595 58.7404C460.023 56.5648 462.693 53.4333 464.605 49.3459C466.583 45.1925 467.572 40.1162 467.572 34.1169C467.572 27.9858 466.484 22.5468 464.309 17.8001C462.199 12.9875 459.166 9.22969 455.211 6.52671C451.321 3.7578 446.673 2.37335 441.267 2.37335C434.345 2.37335 428.972 4.71374 425.148 9.39451C421.391 14.0753 419.512 20.4701 419.512 28.5791C419.512 33.2599 420.105 37.644 421.292 41.7314C422.544 45.7529 424.324 49.28 426.632 52.3126C428.939 55.3452 431.675 57.7186 434.84 59.4326C438.004 61.0808 441.498 61.9049 445.322 61.9049Z" fill="white"/>
<path d="M369.445 63.2893C367.467 63.2893 365.028 63.1904 362.127 62.9927C359.227 62.7949 356.557 62.696 354.117 62.696C351.876 62.696 349.7 62.7289 347.591 62.7949C345.547 62.8608 343.701 62.8938 342.053 62.8938C341.921 62.8938 341.855 62.696 341.855 62.3004C341.855 61.9049 341.921 61.7071 342.053 61.7071C344.36 61.7071 346.107 61.5423 347.294 61.2126C348.481 60.883 349.272 60.2237 349.667 59.2348C350.063 58.2459 350.261 56.7956 350.261 54.8837V9.09782C350.261 7.18596 350.063 5.76854 349.667 4.84557C349.272 3.85667 348.481 3.19741 347.294 2.86777C346.173 2.47222 344.492 2.27444 342.251 2.27444C342.053 2.27444 341.954 2.07666 341.954 1.6811C341.954 1.28554 342.053 1.08777 342.251 1.08777C343.899 1.08777 345.712 1.15369 347.689 1.28554C349.733 1.35147 351.876 1.38443 354.117 1.38443C356.359 1.38443 358.765 1.31851 361.336 1.18665C363.973 0.988874 366.215 0.889984 368.061 0.889984C375.049 0.889984 381.114 2.20851 386.256 4.84557C391.465 7.48262 395.519 11.0756 398.42 15.6245C401.321 20.1735 402.771 25.2828 402.771 30.9524C402.771 35.8969 401.881 40.3799 400.101 44.4014C398.387 48.357 395.981 51.7522 392.882 54.587C389.783 57.3559 386.223 59.4986 382.202 61.0149C378.18 62.5312 373.928 63.2893 369.445 63.2893ZM368.456 61.5093C373.401 61.5093 377.752 60.4215 381.51 58.246C385.333 56.0704 388.333 52.873 390.509 48.6537C392.684 44.3684 393.772 39.1932 393.772 33.128C393.772 27.3924 392.75 22.2501 390.706 17.7012C388.663 13.0864 385.795 9.42745 382.103 6.72447C378.477 3.95556 374.126 2.57111 369.05 2.57111C365.094 2.57111 362.259 2.96667 360.545 3.75778C358.897 4.5489 358.073 6.39484 358.073 9.2956V53.7959C358.073 56.433 358.732 58.3778 360.051 59.6304C361.369 60.883 364.171 61.5093 368.456 61.5093Z" fill="white"/>
<path d="M280.596 51.6203V3.36219L283.167 3.55997V51.6203C283.167 55.0485 283.794 57.5867 285.046 59.2348C286.299 60.883 288.277 61.7071 290.98 61.7071C291.111 61.7071 291.177 61.9048 291.177 62.3004C291.177 62.696 291.111 62.8937 290.98 62.8937C289.595 62.8937 288.178 62.8608 286.727 62.7948C285.343 62.7289 283.761 62.696 281.981 62.696C280.266 62.696 278.585 62.7289 276.937 62.7948C275.289 62.8608 273.74 62.8937 272.289 62.8937C272.158 62.8937 272.092 62.696 272.092 62.3004C272.092 61.9048 272.158 61.7071 272.289 61.7071C275.19 61.7071 277.3 60.883 278.618 59.2348C279.937 57.5867 280.596 55.0485 280.596 51.6203ZM330.634 64.1793C330.634 64.3112 330.469 64.3771 330.14 64.3771C329.876 64.443 329.678 64.443 329.546 64.3771L282.969 9.19668C280.662 6.4937 278.651 4.68072 276.937 3.75775C275.289 2.76886 273.641 2.27441 271.993 2.27441C271.861 2.27441 271.795 2.07663 271.795 1.68107C271.795 1.28552 271.861 1.08774 271.993 1.08774C273.245 1.08774 274.498 1.1207 275.751 1.18663C277.003 1.25255 278.157 1.28552 279.212 1.28552C280.794 1.28552 282.244 1.25255 283.563 1.18663C284.881 1.1207 285.87 1.08774 286.529 1.08774C287.387 1.08774 288.013 1.48329 288.408 2.27441C288.804 2.9996 289.76 4.31813 291.276 6.23L329.843 52.7081L330.634 64.1793ZM330.634 12.46V64.1793L328.162 61.1137V12.46C328.162 9.03187 327.536 6.4937 326.283 4.84554C325.096 3.13145 323.152 2.27441 320.449 2.27441C320.317 2.27441 320.251 2.07663 320.251 1.68107C320.251 1.28552 320.317 1.08774 320.449 1.08774C321.833 1.08774 323.25 1.15366 324.701 1.28552C326.151 1.35144 327.733 1.3844 329.448 1.3844C331.096 1.3844 332.711 1.35144 334.293 1.28552C335.875 1.15366 337.359 1.08774 338.743 1.08774C338.875 1.08774 338.941 1.28552 338.941 1.68107C338.941 2.07663 338.875 2.27441 338.743 2.27441C335.974 2.27441 333.931 3.13145 332.612 4.84554C331.294 6.4937 330.634 9.03187 330.634 12.46Z" fill="white"/>
<path d="M257.832 12.46C257.832 9.16372 257.074 6.65852 255.557 4.94443C254.107 3.16442 251.931 2.27441 249.031 2.27441C248.833 2.27441 248.734 2.07663 248.734 1.68107C248.734 1.28552 248.833 1.08774 249.031 1.08774C250.547 1.08774 252.129 1.15366 253.777 1.28552C255.426 1.35144 257.206 1.3844 259.117 1.3844C260.766 1.3844 262.381 1.35144 263.963 1.28552C265.611 1.15366 267.127 1.08774 268.512 1.08774C268.644 1.08774 268.71 1.28552 268.71 1.68107C268.71 2.07663 268.644 2.27441 268.512 2.27441C265.875 2.27441 263.864 3.16442 262.48 4.94443C261.161 6.65852 260.502 9.16372 260.502 12.46V40.4458C260.502 45.3903 259.513 49.6425 257.535 53.2026C255.557 56.7626 252.788 59.4985 249.228 61.4104C245.668 63.2563 241.515 64.1793 236.768 64.1793C231.89 64.1793 227.605 63.2563 223.913 61.4104C220.221 59.4985 217.353 56.7955 215.309 53.3014C213.266 49.8073 212.244 45.654 212.244 40.8414V9.09779C212.244 7.18593 212.046 5.76851 211.65 4.84554C211.255 3.85664 210.464 3.19738 209.277 2.86775C208.156 2.47219 206.475 2.27441 204.234 2.27441C204.036 2.27441 203.937 2.07663 203.937 1.68107C203.937 1.28552 204.036 1.08774 204.234 1.08774C205.882 1.08774 207.695 1.15366 209.673 1.28552C211.65 1.35144 213.793 1.3844 216.1 1.3844C218.474 1.3844 220.649 1.35144 222.627 1.28552C224.671 1.15366 226.451 1.08774 227.967 1.08774C228.165 1.08774 228.264 1.28552 228.264 1.68107C228.264 2.07663 228.165 2.27441 227.967 2.27441C225.726 2.27441 224.012 2.47219 222.825 2.86775C221.704 3.26331 220.946 3.95553 220.55 4.94443C220.221 5.93332 220.056 7.3837 220.056 9.29557V37.3802C220.056 45.2914 221.77 51.2248 225.198 55.1803C228.626 59.07 233.373 61.0148 239.438 61.0148C245.24 61.0148 249.756 59.2348 252.986 55.6748C256.217 52.0488 257.832 47.0055 257.832 40.5447V12.46Z" fill="white"/>
<path d="M131.768 51.6203L132.757 3.36219L135.229 3.55997L134.24 51.6203C134.174 55.0485 134.767 57.5867 136.02 59.2348C137.338 60.883 139.514 61.7071 142.547 61.7071C142.744 61.7071 142.843 61.9048 142.843 62.3004C142.843 62.6959 142.744 62.8937 142.547 62.8937C141.096 62.8937 139.613 62.8608 138.097 62.7948C136.58 62.7289 134.866 62.6959 132.954 62.6959C131.174 62.6959 129.493 62.7289 127.911 62.7948C126.329 62.8608 124.845 62.8937 123.461 62.8937C123.329 62.8937 123.263 62.6959 123.263 62.3004C123.263 61.9048 123.329 61.7071 123.461 61.7071C126.23 61.7071 128.274 60.883 129.592 59.2348C130.977 57.5867 131.702 55.0485 131.768 51.6203ZM200.99 61.7071C201.122 61.7071 201.188 61.9048 201.188 62.3004C201.188 62.6959 201.122 62.8937 200.99 62.8937C199.342 62.8937 197.496 62.8608 195.453 62.7948C193.409 62.7289 191.233 62.6959 188.926 62.6959C186.75 62.6959 184.707 62.7289 182.795 62.7948C180.883 62.8608 179.169 62.8937 177.652 62.8937C177.455 62.8937 177.356 62.6959 177.356 62.3004C177.356 61.9048 177.455 61.7071 177.652 61.7071C180.883 61.7071 182.96 61.2785 183.882 60.4215C184.805 59.5644 185.168 57.7185 184.97 54.8837L182.992 8.30667L186.849 2.76886L161.237 62.2015C161.171 62.4652 160.907 62.5971 160.446 62.5971C160.05 62.5971 159.786 62.4652 159.655 62.2015L133.844 9.29557C131.537 4.61479 128.307 2.27441 124.153 2.27441C124.021 2.27441 123.955 2.07663 123.955 1.68107C123.955 1.28552 124.021 1.08774 124.153 1.08774C125.34 1.08774 126.559 1.1207 127.812 1.18663C129.131 1.25255 130.251 1.28552 131.174 1.28552C132.427 1.28552 133.548 1.25255 134.537 1.18663C135.591 1.1207 136.383 1.08774 136.91 1.08774C137.833 1.08774 138.558 1.41737 139.086 2.07663C139.613 2.66997 140.404 4.05442 141.459 6.22999L163.907 51.8181L160.248 58.147L184.08 3.55997C184.41 2.76886 184.805 2.17552 185.267 1.77996C185.794 1.31848 186.388 1.08774 187.047 1.08774C187.508 1.08774 188.069 1.1207 188.728 1.18663C189.453 1.25255 190.277 1.28552 191.2 1.28552C193.046 1.28552 194.596 1.25255 195.848 1.18663C197.101 1.1207 198.386 1.08774 199.705 1.08774C199.837 1.08774 199.903 1.28552 199.903 1.68107C199.903 2.07663 199.837 2.27441 199.705 2.27441C196.54 2.27441 194.233 2.80182 192.783 3.85665C191.332 4.84554 190.64 6.69148 190.706 9.39446L192.783 54.8837C192.914 56.7955 193.178 58.2459 193.574 59.2348C193.969 60.2237 194.727 60.883 195.848 61.2126C196.969 61.5422 198.683 61.7071 200.99 61.7071Z" fill="white"/>
<path d="M66.8485 9.19668V54.4881C66.8485 56.2022 67.0133 57.5207 67.3429 58.4437C67.7385 59.3007 68.4307 59.8941 69.4196 60.2237C70.4744 60.4874 72.0237 60.6193 74.0674 60.6193H82.4731C86.7583 60.6193 90.2524 59.3667 92.9553 56.8615C95.6583 54.3563 97.4383 51.027 98.2954 46.8736C98.2954 46.6758 98.4602 46.6099 98.7898 46.6758C99.1854 46.6758 99.3832 46.7747 99.3832 46.9725C99.1854 48.8844 98.9876 51.1918 98.7898 53.8948C98.592 56.5978 98.4932 59.103 98.4932 61.4104C98.4932 62.3993 97.9987 62.8937 97.0098 62.8937H50.9273C50.7954 62.8937 50.7295 62.6959 50.7295 62.3004C50.7295 61.9048 50.7954 61.7071 50.9273 61.7071C53.2347 61.7071 54.9488 61.5422 56.0695 61.2126C57.2562 60.883 58.0473 60.2237 58.4429 59.2348C58.8384 58.2459 59.0362 56.7955 59.0362 54.8837V9.09779C59.0362 7.18593 58.8384 5.76851 58.4429 4.84554C58.0473 3.85664 57.2562 3.19738 56.0695 2.86775C54.9488 2.47219 53.2347 2.27441 50.9273 2.27441C50.7954 2.27441 50.7295 2.07663 50.7295 1.68107C50.7295 1.28552 50.7954 1.08774 50.9273 1.08774C52.5095 1.08774 54.3225 1.15366 56.3662 1.28552C58.4758 1.35144 60.6514 1.3844 62.8929 1.3844C65.2663 1.3844 67.4418 1.35144 69.4196 1.28552C71.4633 1.15366 73.2763 1.08774 74.8585 1.08774C74.9904 1.08774 75.0563 1.28552 75.0563 1.68107C75.0563 2.07663 74.9904 2.27441 74.8585 2.27441C72.5511 2.27441 70.837 2.47219 69.7163 2.86775C68.5955 3.19738 67.8374 3.85664 67.4418 4.84554C67.0463 5.83443 66.8485 7.28482 66.8485 9.19668Z" fill="white"/>
<path d="M42.4236 62.8934H0.296669C0.0988898 62.8934 0 62.6956 0 62.3001C0 61.9045 0.0988898 61.7067 0.296669 61.7067C2.53817 61.7067 4.21929 61.5419 5.34004 61.2123C6.52671 60.8827 7.31783 60.2234 7.71339 59.2345C8.10895 58.2456 8.30673 56.7952 8.30673 54.8834V9.09749C8.30673 7.18562 8.10895 5.7682 7.71339 4.84524C7.31783 3.85634 6.52671 3.19707 5.34004 2.86744C4.21929 2.47188 2.53817 2.2741 0.296669 2.2741C0.0988898 2.2741 0 2.07633 0 1.68077C0 1.28521 0.0988898 1.08743 0.296669 1.08743H40.6436C41.3029 1.08743 41.6325 1.3841 41.6325 1.97743L41.8303 14.4375C41.8303 14.6353 41.6325 14.7672 41.237 14.8331C40.9073 14.8331 40.7095 14.7342 40.6436 14.5364C40.1821 10.9105 38.8966 8.17452 36.7869 6.32858C34.6773 4.41671 31.9084 3.46078 28.4802 3.46078H23.4368C21.459 3.46078 19.9427 3.6256 18.8879 3.95523C17.8331 4.28486 17.1079 4.91116 16.7123 5.83413C16.3168 6.69118 16.119 7.91081 16.119 9.49304V54.4878C16.119 56.07 16.2838 57.3226 16.6135 58.2456C17.009 59.1027 17.7012 59.729 18.6901 60.1245C19.679 60.4541 21.0635 60.619 22.8435 60.619H29.3702C33.128 60.619 36.2266 59.5312 38.6658 57.3556C41.1051 55.1141 42.7862 51.9496 43.7092 47.8622C43.7092 47.6644 43.907 47.5985 44.3025 47.6644C44.6981 47.7304 44.8959 47.8622 44.8959 48.06C44.6322 49.84 44.4014 51.9826 44.2037 54.4878C44.0059 56.993 43.907 59.3004 43.907 61.4101C43.907 62.399 43.4125 62.8934 42.4236 62.8934ZM36.8858 40.1488C36.8858 37.314 36.0617 35.2373 34.4136 33.9188C32.8313 32.5343 30.2602 31.8421 26.7002 31.8421H12.3612V29.5676H26.9969C30.3591 29.5676 32.8313 29.0073 34.4136 27.8865C35.9958 26.6998 36.7869 24.8869 36.7869 22.4476C36.7869 22.3157 36.9517 22.2498 37.2814 22.2498C37.6769 22.2498 37.8747 22.3157 37.8747 22.4476C37.8747 24.4913 37.8418 26.0735 37.7758 27.1943C37.7758 28.315 37.7758 29.5017 37.7758 30.7543C37.7758 32.2706 37.8088 33.7869 37.8747 35.3032C38.0066 36.8195 38.0725 38.4347 38.0725 40.1488C38.0725 40.2807 37.8747 40.3466 37.4792 40.3466C37.0836 40.3466 36.8858 40.2807 36.8858 40.1488Z" fill="white"/>
<path d="M68.9489 116.459H42.6195C42.4959 116.459 42.4341 116.335 42.4341 116.088C42.4341 115.841 42.4959 115.717 42.6195 115.717C44.0204 115.717 45.0711 115.614 45.7716 115.408C46.5133 115.202 47.0077 114.79 47.255 114.172C47.5022 113.554 47.6258 112.648 47.6258 111.453V82.8365C47.6258 81.6416 47.5022 80.7557 47.255 80.1788C47.0077 79.5608 46.5133 79.1487 45.7716 78.9427C45.0711 78.6955 44.0204 78.5719 42.6195 78.5719C42.4959 78.5719 42.4341 78.4483 42.4341 78.201C42.4341 77.9538 42.4959 77.8302 42.6195 77.8302H67.8363C68.2484 77.8302 68.4544 78.0156 68.4544 78.3865L68.578 86.174C68.578 86.2976 68.4544 86.38 68.2072 86.4212C68.0012 86.4212 67.8776 86.3594 67.8363 86.2358C67.5479 83.9696 66.7444 82.2596 65.4259 81.1059C64.1074 79.911 62.3768 79.3135 60.2342 79.3135H57.0821C55.846 79.3135 54.8983 79.4166 54.239 79.6226C53.5798 79.8286 53.1265 80.22 52.8793 80.7969C52.6321 81.3325 52.5085 82.0948 52.5085 83.0837V111.205C52.5085 112.194 52.6115 112.977 52.8175 113.554C53.0647 114.09 53.4974 114.481 54.1154 114.728C54.7335 114.934 55.5988 115.037 56.7113 115.037H60.7905C63.1391 115.037 65.0757 114.358 66.6002 112.998C68.1248 111.597 69.1755 109.619 69.7523 107.064C69.7523 106.941 69.8759 106.9 70.1232 106.941C70.3704 106.982 70.494 107.064 70.494 107.188C70.3292 108.301 70.185 109.64 70.0614 111.205C69.9378 112.771 69.8759 114.213 69.8759 115.532C69.8759 116.15 69.5669 116.459 68.9489 116.459ZM65.4877 102.244C65.4877 100.472 64.9727 99.1739 63.9426 98.3498C62.9537 97.4845 61.3467 97.0519 59.1217 97.0519H50.1598V95.6303H59.3071C61.4085 95.6303 62.9537 95.2801 63.9426 94.5796C64.9315 93.838 65.4259 92.7048 65.4259 91.1803C65.4259 91.0979 65.5289 91.0567 65.7349 91.0567C65.9822 91.0567 66.1058 91.0979 66.1058 91.1803C66.1058 92.4576 66.0852 93.4465 66.044 94.147C66.044 94.8475 66.044 95.5891 66.044 96.372C66.044 97.3197 66.0646 98.2674 66.1058 99.2151C66.1882 100.163 66.2294 101.172 66.2294 102.244C66.2294 102.326 66.1058 102.367 65.8586 102.367C65.6113 102.367 65.4877 102.326 65.4877 102.244Z" fill="white"/>
<path d="M17.3235 116.706C16.0873 116.706 14.5628 116.644 12.7498 116.521C10.9368 116.397 9.26808 116.335 7.74353 116.335C6.3426 116.335 4.98287 116.356 3.66434 116.397C2.38701 116.438 1.2333 116.459 0.203202 116.459C0.120794 116.459 0.0795898 116.335 0.0795898 116.088C0.0795898 115.841 0.120794 115.717 0.203202 115.717C1.64534 115.717 2.73725 115.614 3.47892 115.408C4.22059 115.202 4.71504 114.79 4.96226 114.172C5.20949 113.554 5.3331 112.648 5.3331 111.453V82.8365C5.3331 81.6416 5.20949 80.7557 4.96226 80.1789C4.71504 79.5608 4.22059 79.1488 3.47892 78.9428C2.77845 78.6955 1.72775 78.5719 0.326814 78.5719C0.203202 78.5719 0.141396 78.4483 0.141396 78.2011C0.141396 77.9539 0.203202 77.8302 0.326814 77.8302C1.35691 77.8302 2.49002 77.8715 3.72614 77.9539C5.00347 77.9951 6.3426 78.0157 7.74353 78.0157C9.14447 78.0157 10.6484 77.9745 12.2554 77.8921C13.9035 77.7684 15.3045 77.7066 16.4582 77.7066C20.8258 77.7066 24.6166 78.5307 27.8305 80.1789C31.0856 81.827 33.6196 84.0727 35.4326 86.9157C37.2456 89.7588 38.1521 92.9521 38.1521 96.4957C38.1521 99.586 37.5958 102.388 36.4833 104.901C35.412 107.374 33.9081 109.496 31.9715 111.267C30.0349 112.998 27.8099 114.337 25.2964 115.285C22.783 116.232 20.1253 116.706 17.3235 116.706ZM16.7054 115.594C19.7957 115.594 22.5152 114.914 24.8638 113.554C27.2536 112.194 29.1284 110.196 30.4881 107.559C31.8479 104.881 32.5277 101.646 32.5277 97.8554C32.5277 94.2706 31.8891 91.0567 30.6118 88.2137C29.3344 85.3294 27.5421 83.0426 25.2346 81.3532C22.9684 79.6226 20.2489 78.7573 17.0762 78.7573C14.604 78.7573 12.8322 79.0046 11.7609 79.499C10.7308 79.9935 10.2158 81.1472 10.2158 82.9601V110.773C10.2158 112.421 10.6278 113.637 11.4519 114.419C12.276 115.202 14.0271 115.594 16.7054 115.594Z" fill="white"/>
<path d="M450.936 188.978C449.072 188.978 445.986 186.765 441.676 182.339C437.484 177.797 432.417 171.391 426.477 163.122C420.537 154.736 413.84 144.778 406.386 133.247L418.091 129.578C427.875 143.671 436.144 154.911 442.899 163.296C449.771 171.682 455.828 177.739 461.069 181.466C466.31 185.076 471.318 186.882 476.093 186.882C476.443 186.882 476.617 187.231 476.617 187.93C476.617 188.629 476.443 188.978 476.093 188.978C469.571 188.978 464.213 188.978 460.021 188.978C455.944 188.978 452.916 188.978 450.936 188.978ZM409.007 79.2633C418.79 79.2633 426.244 81.3597 431.369 85.5527C436.61 89.6291 439.231 95.1032 439.231 101.975C439.231 108.497 437.367 114.321 433.64 119.445C429.913 124.57 425.021 128.588 418.965 131.5C413.025 134.412 406.619 135.868 399.747 135.868C398.35 135.868 396.894 135.868 395.38 135.868C393.866 135.751 392.468 135.635 391.187 135.518V174.827C391.187 178.205 391.478 180.767 392.06 182.514C392.759 184.261 394.098 185.426 396.078 186.008C398.175 186.59 401.261 186.882 405.338 186.882C405.687 186.882 405.862 187.231 405.862 187.93C405.862 188.629 405.687 188.978 405.338 188.978C402.426 188.978 399.223 188.92 395.729 188.803C392.235 188.687 388.391 188.629 384.199 188.629C380.239 188.629 376.453 188.687 372.843 188.803C369.232 188.92 365.971 188.978 363.059 188.978C362.71 188.978 362.535 188.629 362.535 187.93C362.535 187.231 362.71 186.882 363.059 186.882C367.019 186.882 369.989 186.59 371.969 186.008C374.066 185.426 375.463 184.261 376.162 182.514C376.977 180.767 377.385 178.205 377.385 174.827V93.9385C377.385 90.5609 377.036 88.0568 376.337 86.4262C375.638 84.6791 374.299 83.5144 372.319 82.9321C370.339 82.2333 367.31 81.8838 363.234 81.8838C363.001 81.8838 362.885 81.5344 362.885 80.8356C362.885 80.1368 363.001 79.7874 363.234 79.7874C366.146 79.7874 369.349 79.9039 372.843 80.1368C376.453 80.2533 380.239 80.3115 384.199 80.3115C387.926 80.3115 392.119 80.1368 396.777 79.7874C401.436 79.438 405.513 79.2633 409.007 79.2633ZM424.905 107.565C424.905 101.043 424.031 95.9767 422.284 92.3661C420.537 88.6391 418.033 86.0185 414.772 84.5044C411.627 82.9903 407.9 82.2333 403.591 82.2333C399.165 82.2333 395.962 83.0486 393.982 84.6791C392.119 86.1932 391.187 89.3962 391.187 94.2879V131.151C392.817 131.267 394.564 131.384 396.428 131.5C398.408 131.617 400.097 131.675 401.494 131.675C410.113 131.675 416.17 129.695 419.664 125.735C423.158 121.775 424.905 115.718 424.905 107.565Z" fill="white"/>
<path d="M346.289 188.978H271.864C271.515 188.978 271.34 188.629 271.34 187.93C271.34 187.231 271.515 186.882 271.864 186.882C275.824 186.882 278.794 186.59 280.774 186.008C282.871 185.426 284.268 184.261 284.967 182.514C285.666 180.767 286.016 178.204 286.016 174.827V93.9385C286.016 90.5609 285.666 88.0568 284.967 86.4262C284.268 84.6791 282.871 83.5144 280.774 82.9321C278.794 82.2332 275.824 81.8838 271.864 81.8838C271.515 81.8838 271.34 81.5344 271.34 80.8356C271.34 80.1368 271.515 79.7874 271.864 79.7874H343.144C344.309 79.7874 344.891 80.3115 344.891 81.3597L345.241 103.373C345.241 103.722 344.891 103.955 344.192 104.071C343.61 104.071 343.261 103.897 343.144 103.547C342.329 97.1414 340.058 92.3079 336.331 89.0467C332.604 85.6691 327.712 83.9803 321.655 83.9803H312.745C309.251 83.9803 306.572 84.2715 304.709 84.8538C302.845 85.4362 301.564 86.5426 300.865 88.1732C300.167 89.6873 299.817 91.842 299.817 94.6373V174.128C299.817 176.923 300.108 179.136 300.691 180.767C301.39 182.281 302.613 183.387 304.36 184.086C306.107 184.669 308.552 184.96 311.697 184.96H323.228C329.866 184.96 335.341 183.038 339.65 179.194C343.959 175.235 346.929 169.644 348.56 162.423C348.56 162.073 348.909 161.957 349.608 162.073C350.307 162.19 350.656 162.423 350.656 162.772C350.19 165.917 349.783 169.702 349.433 174.128C349.084 178.554 348.909 182.63 348.909 186.357C348.909 188.104 348.036 188.978 346.289 188.978ZM336.505 148.796C336.505 143.788 335.049 140.119 332.138 137.789C329.342 135.344 324.8 134.121 318.511 134.121H293.178V130.102H319.035C324.975 130.102 329.342 129.112 332.138 127.132C334.933 125.036 336.331 121.833 336.331 117.524C336.331 117.291 336.622 117.174 337.204 117.174C337.903 117.174 338.252 117.291 338.252 117.524C338.252 121.134 338.194 123.929 338.078 125.909C338.078 127.889 338.078 129.986 338.078 132.199C338.078 134.878 338.136 137.556 338.252 140.235C338.485 142.914 338.602 145.768 338.602 148.796C338.602 149.029 338.252 149.145 337.554 149.145C336.855 149.145 336.505 149.029 336.505 148.796Z" fill="white"/>
<path d="M214.334 139.187L239.142 100.228C242.636 94.4044 243.917 89.9203 242.985 86.7756C242.053 83.5144 238.967 81.8838 233.726 81.8838C233.376 81.8838 233.202 81.5344 233.202 80.8356C233.202 80.1368 233.376 79.7874 233.726 79.7874C237.103 79.7874 240.248 79.9039 243.16 80.1368C246.188 80.2533 250.148 80.3115 255.04 80.3115C257.952 80.3115 260.281 80.2533 262.028 80.1368C263.892 79.9039 266.104 79.7874 268.667 79.7874C268.9 79.7874 269.016 80.1368 269.016 80.8356C269.016 81.5344 268.9 81.8838 268.667 81.8838C266.104 81.8838 263.309 82.6991 260.281 84.3297C257.253 85.8438 254.283 88.0567 251.371 90.9685C248.576 93.7638 245.955 97.1414 243.509 101.101L217.653 141.982L214.334 139.187ZM209.966 141.458L180.091 96.7338C176.248 91.0267 172.928 87.125 170.133 85.0285C167.338 82.9321 164.31 81.8838 161.049 81.8838C160.699 81.8838 160.524 81.5344 160.524 80.8356C160.524 80.1368 160.699 79.7874 161.049 79.7874C162.912 79.7874 164.892 79.9039 166.988 80.1368C169.085 80.2533 171.065 80.3115 172.928 80.3115C176.19 80.3115 179.393 80.3115 182.537 80.3115C185.682 80.195 188.652 80.0786 191.447 79.9621C194.359 79.8456 196.863 79.7874 198.959 79.7874C199.192 79.7874 199.309 80.1368 199.309 80.8356C199.309 81.5344 199.192 81.8838 198.959 81.8838C194.767 81.8838 192.146 82.6991 191.098 84.3297C190.166 85.9603 190.69 88.1732 192.67 90.9685L220.972 133.422L209.966 141.458ZM207.869 134.819L221.846 133.247V174.827C221.846 178.204 222.137 180.767 222.719 182.514C223.418 184.261 224.758 185.426 226.738 186.008C228.718 186.59 231.746 186.882 235.822 186.882C236.172 186.882 236.346 187.231 236.346 187.93C236.346 188.629 236.172 188.978 235.822 188.978C233.027 188.978 229.824 188.92 226.213 188.803C222.719 188.687 218.876 188.629 214.683 188.629C210.723 188.629 206.879 188.687 203.152 188.803C199.542 188.92 196.339 188.978 193.544 188.978C193.194 188.978 193.02 188.629 193.02 187.93C193.02 187.231 193.194 186.882 193.544 186.882C197.62 186.882 200.648 186.59 202.628 186.008C204.725 185.426 206.122 184.261 206.821 182.514C207.52 180.767 207.869 178.204 207.869 174.827V134.819Z" fill="white"/>
<path d="M84.0936 143.38L86.1901 139.537H133.71L134.933 143.38H84.0936ZM174.416 186.882C174.998 186.882 175.29 187.231 175.29 187.93C175.29 188.629 174.998 188.978 174.416 188.978C171.038 188.978 167.544 188.862 163.934 188.629C160.44 188.396 157.004 188.279 153.626 188.279C149.899 188.279 146.638 188.396 143.843 188.629C141.164 188.862 138.136 188.978 134.758 188.978C134.292 188.978 134.059 188.629 134.059 187.93C134.059 187.231 134.292 186.882 134.758 186.882C140.465 186.882 143.959 186.008 145.24 184.261C146.522 182.397 145.881 178.787 143.319 173.429L105.757 95.3362L111.348 86.9503L77.2801 165.917C74.2519 173.022 74.0772 178.321 76.756 181.815C79.4348 185.193 84.4431 186.882 91.7807 186.882C92.363 186.882 92.6542 187.231 92.6542 187.93C92.6542 188.629 92.363 188.978 91.7807 188.978C88.2866 188.978 85.0836 188.862 82.1719 188.629C79.2601 188.396 75.5913 188.279 71.1655 188.279C66.8561 188.279 63.362 188.396 60.6832 188.629C58.1208 188.862 54.9762 188.978 51.2491 188.978C50.7832 188.978 50.5503 188.629 50.5503 187.93C50.5503 187.231 50.7832 186.882 51.2491 186.882C54.3938 186.882 57.1308 186.299 59.4602 185.135C61.7896 183.853 64.0026 181.582 66.099 178.321C68.312 175.06 70.6996 170.401 73.2619 164.345L110.474 78.5645C110.591 78.2151 110.998 78.0404 111.697 78.0404C112.396 77.9239 112.803 78.0986 112.92 78.5645L154.849 165.043C157.644 170.75 160.032 175.235 162.012 178.496C164.108 181.64 166.147 183.853 168.127 185.135C170.107 186.299 172.203 186.882 174.416 186.882Z" fill="white"/>
</svg>
