<svg width="1920" height="1080" viewBox="0 0 1920 1080" fill="none" xmlns="http://www.w3.org/2000/svg" role="img" aria-label="Fondo decorativo del destacado">
  <defs>
    <linearGradient id="bg" x1="0" y1="0" x2="1920" y2="1080" gradientUnits="userSpaceOnUse">
      <stop offset="0" stop-color="#070A0D"/>
      <stop offset="0.55" stop-color="#1B2730"/>
      <stop offset="1" stop-color="#2A3B45"/>
    </linearGradient>
    <radialGradient id="glow" cx="0" cy="0" r="1" gradientUnits="userSpaceOnUse" gradientTransform="translate(1480 520) rotate(180) scale(980 720)">
      <stop offset="0" stop-color="#9C8067" stop-opacity="0.55"/>
      <stop offset="0.55" stop-color="#9C8067" stop-opacity="0.18"/>
      <stop offset="1" stop-color="#000000" stop-opacity="0"/>
    </radialGradient>
    <radialGradient id="specular" cx="0" cy="0" r="1" gradientUnits="userSpaceOnUse" gradientTransform="translate(1500 430) rotate(180) scale(620 460)">
      <stop offset="0" stop-color="#FFFFFF" stop-opacity="0.12"/>
      <stop offset="1" stop-color="#FFFFFF" stop-opacity="0"/>
    </radialGradient>
    <filter id="grain" x="-20%" y="-20%" width="140%" height="140%">
      <feTurbulence type="fractalNoise" baseFrequency="0.85" numOctaves="2" stitchTiles="stitch"/>
      <feColorMatrix type="matrix" values="
        0 0 0 0 0
        0 0 0 0 0
        0 0 0 0 0
        0 0 0 .14 0"/>
    </filter>
  </defs>

  <rect width="1920" height="1080" fill="url(#bg)"/>
  <rect width="1920" height="1080" fill="url(#glow)"/>
  <rect width="1920" height="1080" fill="url(#specular)"/>

  <g opacity="0.9">
    <path d="M1250 265c78 0 164 22 232 72 84 62 130 166 130 284 0 192-126 352-302 394-30 7-60 10-92 10-104 0-194-38-262-106-74-74-112-180-104-290 8-110 58-210 132-278 68-62 156-86 266-86Z" fill="#000000" opacity="0.22"/>
    <path d="M1320 320c58 0 124 18 174 56 64 48 100 128 100 216 0 148-98 270-234 302-24 6-48 8-72 8-80 0-148-30-200-82-56-56-86-138-80-222 6-84 44-160 100-210 50-44 114-68 212-68Z" fill="#FFFFFF" opacity="0.06"/>
    <path d="M1405 365c42 0 92 12 130 40 48 36 74 96 74 162 0 110-72 202-174 226-18 4-36 6-54 6-60 0-112-22-152-62-42-42-66-106-60-168 6-62 30-120 74-158 36-32 80-46 162-46Z" fill="#9C8067" opacity="0.12"/>
  </g>

  <rect width="1920" height="1080" filter="url(#grain)"/>
</svg>

