<svg width="1920" height="1080" viewBox="0 0 1920 1080" fill="none" xmlns="http://www.w3.org/2000/svg" role="img" aria-label="Fondo decorativo del hero">
  <defs>
    <linearGradient id="g0" x1="0" y1="0" x2="1920" y2="1080" gradientUnits="userSpaceOnUse">
      <stop offset="0" stop-color="#0A0F12"/>
      <stop offset="0.48" stop-color="#1A2A33"/>
      <stop offset="1" stop-color="#2C3F4A"/>
    </linearGradient>
    <radialGradient id="g1" cx="0" cy="0" r="1" gradientUnits="userSpaceOnUse" gradientTransform="translate(1420 540) rotate(180) scale(980 720)">
      <stop offset="0" stop-color="#B79A7E" stop-opacity="0.55"/>
      <stop offset="0.55" stop-color="#9C8067" stop-opacity="0.18"/>
      <stop offset="1" stop-color="#000000" stop-opacity="0"/>
    </radialGradient>
    <radialGradient id="g2" cx="0" cy="0" r="1" gradientUnits="userSpaceOnUse" gradientTransform="translate(1600 420) rotate(180) scale(720 520)">
      <stop offset="0" stop-color="#FFFFFF" stop-opacity="0.12"/>
      <stop offset="1" stop-color="#FFFFFF" stop-opacity="0"/>
    </radialGradient>
    <filter id="grain" x="-20%" y="-20%" width="140%" height="140%">
      <feTurbulence type="fractalNoise" baseFrequency="0.9" numOctaves="2" stitchTiles="stitch"/>
      <feColorMatrix type="matrix" values="
        0 0 0 0 0
        0 0 0 0 0
        0 0 0 0 0
        0 0 0 .13 0"/>
    </filter>
  </defs>

  <rect width="1920" height="1080" fill="url(#g0)"/>
  <rect width="1920" height="1080" fill="url(#g1)"/>
  <rect width="1920" height="1080" fill="url(#g2)"/>

  <g opacity="0.9">
    <path d="M1260 250c70 0 150 20 210 64 76 56 118 150 118 254 0 172-112 315-268 352-26 6-54 9-82 9-92 0-172-34-232-94-66-66-100-160-92-258 8-98 50-186 116-246 60-55 138-81 232-81Z" fill="#0A0F12" opacity="0.26"/>
    <path d="M1290 295c56 0 120 16 168 52 62 46 96 122 96 206 0 140-92 256-220 286-22 5-44 7-68 7-76 0-140-28-190-78-54-54-82-132-76-212 6-80 40-152 94-200 48-44 110-61 196-61Z" fill="#FFFFFF" opacity="0.06"/>
    <path d="M1374 336c40 0 88 12 124 39 45 34 70 90 70 152 0 103-68 188-162 210-16 4-34 5-50 5-56 0-104-20-140-56-40-40-60-98-56-156 4-58 28-110 68-146 34-30 76-48 146-48Z" fill="#9C8067" opacity="0.12"/>
  </g>

  <rect width="1920" height="1080" filter="url(#grain)"/>
</svg>

