<svg width="1920" height="1080" viewBox="0 0 1920 1080" fill="none" xmlns="http://www.w3.org/2000/svg" role="img" aria-label="Imagen decorativa a pantalla completa 3">
  <defs>
    <linearGradient id="bg" x1="0" y1="0" x2="1920" y2="1080" gradientUnits="userSpaceOnUse">
      <stop offset="0" stop-color="#070A0D"/>
      <stop offset="0.52" stop-color="#1A2730"/>
      <stop offset="1" stop-color="#2B3D47"/>
    </linearGradient>
    <radialGradient id="accent" cx="0" cy="0" r="1" gradientUnits="userSpaceOnUse" gradientTransform="translate(1540 560) rotate(180) scale(980 720)">
      <stop offset="0" stop-color="#9C8067" stop-opacity="0.55"/>
      <stop offset="0.55" stop-color="#9C8067" stop-opacity="0.18"/>
      <stop offset="1" stop-color="#000000" stop-opacity="0"/>
    </radialGradient>
    <filter id="grain" x="-20%" y="-20%" width="140%" height="140%">
      <feTurbulence type="fractalNoise" baseFrequency="0.85" numOctaves="2" stitchTiles="stitch"/>
      <feColorMatrix type="matrix" values="
        0 0 0 0 0
        0 0 0 0 0
        0 0 0 0 0
        0 0 0 .14 0"/>
    </filter>
  </defs>
  <rect width="1920" height="1080" fill="url(#bg)"/>
  <rect width="1920" height="1080" fill="url(#accent)"/>
  <g opacity="0.9">
    <path d="M1200 320c110 0 216 44 294 122 76 76 112 168 106 272-12 198-176 352-382 366-10 1-22 2-34 2-142 0-260-66-330-176-70-110-80-232-26-350 60-134 204-236 372-236Z" fill="#000" opacity="0.18"/>
    <path d="M1500 520c0 116-94 210-210 210s-210-94-210-210 94-210 210-210 210 94 210 210Z" fill="#fff" opacity="0.05"/>
  </g>
  <rect width="1920" height="1080" filter="url(#grain)"/>
</svg>

