<svg width="1920" height="1080" viewBox="0 0 1920 1080" fill="none" xmlns="http://www.w3.org/2000/svg" role="img" aria-label="Imagen decorativa a pantalla completa 2">
  <defs>
    <linearGradient id="bg" x1="0" y1="0" x2="1920" y2="1080" gradientUnits="userSpaceOnUse">
      <stop offset="0" stop-color="#0A0F12"/>
      <stop offset="0.45" stop-color="#1A2730"/>
      <stop offset="1" stop-color="#24333C"/>
    </linearGradient>
    <radialGradient id="accent" cx="0" cy="0" r="1" gradientUnits="userSpaceOnUse" gradientTransform="translate(1500 480) rotate(180) scale(860 660)">
      <stop offset="0" stop-color="#B79A7E" stop-opacity="0.45"/>
      <stop offset="0.6" stop-color="#9C8067" stop-opacity="0.14"/>
      <stop offset="1" stop-color="#000000" stop-opacity="0"/>
    </radialGradient>
    <filter id="grain" x="-20%" y="-20%" width="140%" height="140%">
      <feTurbulence type="fractalNoise" baseFrequency="0.9" numOctaves="2" stitchTiles="stitch"/>
      <feColorMatrix type="matrix" values="
        0 0 0 0 0
        0 0 0 0 0
        0 0 0 0 0
        0 0 0 .14 0"/>
    </filter>
  </defs>
  <rect width="1920" height="1080" fill="url(#bg)"/>
  <rect width="1920" height="1080" fill="url(#accent)"/>
  <g opacity="0.9">
    <path d="M1185 290c120 0 240 46 328 138 94 98 134 228 114 378-32 236-218 406-462 406-164 0-306-84-390-228-82-140-82-306 0-446 86-146 232-248 410-248Z" fill="#000" opacity="0.18"/>
    <path d="M1510 420c0 145-117 262-262 262s-262-117-262-262 117-262 262-262 262 117 262 262Z" fill="#fff" opacity="0.04"/>
  </g>
  <rect width="1920" height="1080" filter="url(#grain)"/>
</svg>

