<svg width="1920" height="1080" viewBox="0 0 1920 1080" fill="none" xmlns="http://www.w3.org/2000/svg" role="img" aria-label="Imagen decorativa a pantalla completa 1">
  <defs>
    <linearGradient id="bg" x1="0" y1="0" x2="1920" y2="1080" gradientUnits="userSpaceOnUse">
      <stop offset="0" stop-color="#070A0D"/>
      <stop offset="0.55" stop-color="#18242C"/>
      <stop offset="1" stop-color="#2E434E"/>
    </linearGradient>
    <radialGradient id="accent" cx="0" cy="0" r="1" gradientUnits="userSpaceOnUse" gradientTransform="translate(1560 540) rotate(180) scale(980 720)">
      <stop offset="0" stop-color="#9C8067" stop-opacity="0.55"/>
      <stop offset="0.55" stop-color="#9C8067" stop-opacity="0.18"/>
      <stop offset="1" stop-color="#000000" stop-opacity="0"/>
    </radialGradient>
    <filter id="grain" x="-20%" y="-20%" width="140%" height="140%">
      <feTurbulence type="fractalNoise" baseFrequency="0.85" numOctaves="2" stitchTiles="stitch"/>
      <feColorMatrix type="matrix" values="
        0 0 0 0 0
        0 0 0 0 0
        0 0 0 0 0
        0 0 0 .14 0"/>
    </filter>
  </defs>
  <rect width="1920" height="1080" fill="url(#bg)"/>
  <rect width="1920" height="1080" fill="url(#accent)"/>
  <g opacity="0.9">
    <path d="M1220 310c92 0 188 26 262 84 96 76 146 196 138 332-12 214-188 376-410 386-12 1-24 2-36 2-136 0-250-62-322-166-72-104-86-228-38-350 56-146 202-288 406-288Z" fill="#000" opacity="0.18"/>
    <path d="M1465 505c0 105-85 190-190 190s-190-85-190-190 85-190 190-190 190 85 190 190Z" fill="#fff" opacity="0.05"/>
  </g>
  <rect width="1920" height="1080" filter="url(#grain)"/>
</svg>

