<svg width="1920" height="1080" viewBox="0 0 1920 1080" fill="none" xmlns="http://www.w3.org/2000/svg" role="img" aria-label="Imagen decorativa Villeret 3">
  <defs>
    <linearGradient id="bg" x1="0" y1="0" x2="1920" y2="1080" gradientUnits="userSpaceOnUse">
      <stop offset="0" stop-color="#0A0F12"/>
      <stop offset="0.5" stop-color="#1A2730"/>
      <stop offset="1" stop-color="#2E434E"/>
    </linearGradient>
    <radialGradient id="accent" cx="0" cy="0" r="1" gradientUnits="userSpaceOnUse" gradientTransform="translate(1580 540) rotate(180) scale(920 720)">
      <stop offset="0" stop-color="#9C8067" stop-opacity="0.50"/>
      <stop offset="0.55" stop-color="#9C8067" stop-opacity="0.16"/>
      <stop offset="1" stop-color="#000000" stop-opacity="0"/>
    </radialGradient>
    <filter id="grain" x="-20%" y="-20%" width="140%" height="140%">
      <feTurbulence type="fractalNoise" baseFrequency="0.85" numOctaves="2" stitchTiles="stitch"/>
      <feColorMatrix type="matrix" values="
        0 0 0 0 0
        0 0 0 0 0
        0 0 0 0 0
        0 0 0 .14 0"/>
    </filter>
  </defs>
  <rect width="1920" height="1080" fill="url(#bg)"/>
  <rect width="1920" height="1080" fill="url(#accent)"/>
  <g opacity="0.92">
    <path d="M1160 320c106 0 204 40 280 118 74 76 108 168 100 272-14 180-162 320-348 334-12 1-24 2-36 2-128 0-236-58-306-156-70-98-84-214-40-330 52-140 190-240 350-240Z" fill="#000" opacity="0.22"/>
    <path d="M1470 520c0 90-72 162-162 162s-162-72-162-162 72-162 162-162 162 72 162 162Z" fill="#fff" opacity="0.05"/>
  </g>
  <rect width="1920" height="1080" filter="url(#grain)"/>
</svg>

