<svg width="1920" height="1080" viewBox="0 0 1920 1080" fill="none" xmlns="http://www.w3.org/2000/svg" role="img" aria-label="Imagen decorativa Villeret 1">
  <defs>
    <linearGradient id="bg" x1="0" y1="0" x2="1920" y2="1080" gradientUnits="userSpaceOnUse">
      <stop offset="0" stop-color="#0A0F12"/>
      <stop offset="0.55" stop-color="#1C2A33"/>
      <stop offset="1" stop-color="#2B3D47"/>
    </linearGradient>
    <radialGradient id="accent" cx="0" cy="0" r="1" gradientUnits="userSpaceOnUse" gradientTransform="translate(1500 520) rotate(180) scale(980 720)">
      <stop offset="0" stop-color="#9C8067" stop-opacity="0.55"/>
      <stop offset="0.5" stop-color="#9C8067" stop-opacity="0.18"/>
      <stop offset="1" stop-color="#000000" stop-opacity="0"/>
    </radialGradient>
    <filter id="grain" x="-20%" y="-20%" width="140%" height="140%">
      <feTurbulence type="fractalNoise" baseFrequency="0.85" numOctaves="2" stitchTiles="stitch"/>
      <feColorMatrix type="matrix" values="
        0 0 0 0 0
        0 0 0 0 0
        0 0 0 0 0
        0 0 0 .14 0"/>
    </filter>
  </defs>
  <rect width="1920" height="1080" fill="url(#bg)"/>
  <rect width="1920" height="1080" fill="url(#accent)"/>
  <g opacity="0.95">
    <path d="M1220 260c86 0 178 24 252 78 90 66 140 176 140 302 0 204-134 374-320 418-32 8-66 12-100 12-110 0-206-40-278-112-78-78-118-190-110-306 8-116 62-222 140-294 72-66 166-98 276-98Z" fill="#000" opacity="0.22"/>
    <path d="M1365 380c44 0 94 14 134 44 50 38 78 102 78 172 0 116-78 212-186 238-18 4-38 6-56 6-64 0-118-24-160-66-44-44-68-112-62-178 6-66 34-128 80-168 38-34 86-48 172-48Z" fill="#fff" opacity="0.06"/>
  </g>
  <rect width="1920" height="1080" filter="url(#grain)"/>
</svg>

