<svg width="51" height="51" viewBox="0 0 51 51" fill="none" xmlns="http://www.w3.org/2000/svg">
<path d="M37.3723 19.6226C37.5532 19.402 37.688 19.1474 37.7687 18.8738C37.8495 18.6002 37.8746 18.3132 37.8426 18.0297C37.8105 17.7463 37.722 17.4721 37.5822 17.2234C37.4424 16.9748 37.2541 16.7567 37.0286 16.582C36.5698 16.2231 35.989 16.0575 35.41 16.1206C34.8309 16.1836 34.2994 16.4703 33.9286 16.9195L23.5848 29.607L18.0536 25.357C17.6018 24.9893 17.0242 24.8125 16.4439 24.8645C15.8637 24.9164 15.3267 25.193 14.9473 25.6351C14.762 25.852 14.622 26.1038 14.5357 26.3756C14.4493 26.6475 14.4184 26.9339 14.4446 27.218C14.4708 27.502 14.5537 27.7779 14.6883 28.0294C14.823 28.2808 15.0067 28.5027 15.2286 28.682L22.4786 34.3383C22.9364 34.7107 23.523 34.8868 24.1102 34.8283C24.6975 34.7697 25.2377 34.4812 25.613 34.0258L37.363 19.5883L37.3723 19.6226Z" fill="#23366F" stroke="#23366F"/>
<path fill-rule="evenodd" clip-rule="evenodd" d="M20.8411 2.72857C22.5098 1.50357 23.3442 0.891072 24.2473 0.653572C25.0543 0.448809 25.8997 0.448809 26.7067 0.653572C27.6192 0.891072 28.4567 1.50357 30.1129 2.72857L32.2286 4.2817C32.8067 4.7067 33.0973 4.9192 33.4098 5.08482C33.689 5.23066 33.9796 5.35149 34.2817 5.44732C34.6223 5.55045 34.9754 5.60357 35.6848 5.71295L38.2786 6.10982C40.3254 6.42232 41.3473 6.5817 42.1536 7.05982C42.8723 7.4817 43.4723 8.0817 43.8942 8.80045C44.3723 9.61295 44.5286 10.6379 44.8442 12.6754L45.2411 15.2692C45.3504 15.9786 45.4036 16.3348 45.5067 16.6754C45.6004 16.9775 45.7213 17.2671 45.8692 17.5442C46.0379 17.8567 46.2473 18.1473 46.6723 18.7254L48.2254 20.8411C49.4504 22.5098 50.0629 23.3442 50.3004 24.2473C50.5052 25.0543 50.5052 25.8997 50.3004 26.7067C50.0661 27.6192 49.4504 28.4567 48.2254 30.1129L46.6723 32.2286C46.375 32.6013 46.1065 32.9962 45.8692 33.4098C45.7209 33.6894 45.5996 33.9823 45.5067 34.2848C45.4036 34.6223 45.3504 34.9754 45.2411 35.6848L44.8442 38.2786C44.5317 40.3254 44.3723 41.3473 43.8942 42.1536C43.4723 42.8723 42.8723 43.4723 42.1536 43.8942C41.3411 44.3723 40.3161 44.5286 38.2786 44.8442L35.6848 45.2411C35.211 45.2948 34.7419 45.3847 34.2817 45.5098C33.9796 45.6015 33.689 45.7223 33.4098 45.8723C33.0973 46.0379 32.8067 46.2473 32.2286 46.6754L30.1129 48.2286C28.4442 49.4536 27.6098 50.0661 26.7067 50.3036C25.8997 50.5083 25.0543 50.5083 24.2473 50.3036C23.3348 50.0661 22.4973 49.4536 20.8411 48.2286L18.7254 46.6754C18.3527 46.3781 17.9578 46.1096 17.5442 45.8723C17.2657 45.7243 16.9737 45.6029 16.6723 45.5098C16.2121 45.3847 15.7431 45.2948 15.2692 45.2411L12.6754 44.8442C10.6286 44.5317 9.60357 44.3754 8.80045 43.8942C8.08425 43.4681 7.48591 42.8698 7.05982 42.1536C6.5817 41.3411 6.42545 40.3161 6.10982 38.2786L5.71295 35.6848C5.60357 34.9754 5.55045 34.6223 5.44732 34.2817C5.35614 33.9796 5.23469 33.6875 5.08482 33.4098C4.84754 32.9962 4.57906 32.6013 4.2817 32.2286L2.72857 30.1129C1.50357 28.4442 0.891072 27.6129 0.653572 26.7067C0.448809 25.8997 0.448809 25.0543 0.653572 24.2473C0.887947 23.3348 1.50357 22.4973 2.72857 20.8411L4.2817 18.7254C4.7067 18.1473 4.9192 17.8567 5.08482 17.5442C5.23066 17.2671 5.35149 16.9765 5.44732 16.6723C5.55045 16.3317 5.60357 15.9786 5.71295 15.2692L6.10982 12.6754C6.42232 10.6286 6.5817 9.60357 7.05982 8.80045C7.4817 8.0817 8.0817 7.48795 8.80045 7.05982C9.61295 6.5817 10.6379 6.42545 12.6754 6.10982L15.2692 5.71295C15.9786 5.6067 16.3348 5.55045 16.6723 5.44732C16.9744 5.35357 17.265 5.23274 17.5442 5.08482C17.8567 4.9192 18.1473 4.7067 18.7254 4.2817L20.8411 2.72857ZM28.2786 5.24732L30.5004 6.87857C30.9723 7.22545 31.4379 7.5692 31.9567 7.8442C32.415 8.08795 32.89 8.28482 33.3817 8.43482C33.9437 8.59025 34.516 8.70616 35.0942 8.7817L37.8192 9.20045C40.1348 9.5567 40.4223 9.65357 40.5911 9.75357C40.8557 9.9119 41.0661 10.1223 41.2223 10.3848C41.3223 10.5536 41.4223 10.8411 41.7754 13.1567L42.1942 15.8817C42.2697 16.4599 42.3856 17.0322 42.5411 17.5942C42.6932 18.09 42.89 18.565 43.1317 19.0192C43.4067 19.5379 43.7504 20.0036 44.0973 20.4754L45.7286 22.6973C47.1161 24.5848 47.2473 24.8567 47.2973 25.0504C47.3694 25.344 47.3694 25.6506 47.2973 25.9442C47.2473 26.1348 47.1161 26.4067 45.7286 28.2973L44.0973 30.5192C43.7504 30.9911 43.4067 31.4567 43.1317 31.9754C42.8901 32.4306 42.6923 32.9078 42.5411 33.4004C42.3856 33.9625 42.2697 34.5347 42.1942 35.1129L41.7754 37.8379C41.4192 40.1536 41.3223 40.4411 41.2223 40.6098C41.0658 40.868 40.8492 41.0845 40.5911 41.2411C40.4223 41.3411 40.1348 41.4411 37.8192 41.7942L35.0942 42.2129C34.516 42.2885 33.9437 42.4044 33.3817 42.5598C32.889 42.7111 32.4119 42.9088 31.9567 43.1504C31.4379 43.4254 30.9723 43.7692 30.5004 44.1161L28.2786 45.7473C26.3911 47.1348 26.1192 47.2661 25.9254 47.3161C25.6319 47.3881 25.3253 47.3881 25.0317 47.3161C24.8411 47.2661 24.5692 47.1348 22.6786 45.7473L20.4567 44.1161C19.9944 43.7606 19.5078 43.438 19.0004 43.1504C18.5453 42.9088 18.0681 42.7111 17.5754 42.5598C17.0134 42.4044 16.4412 42.2885 15.8629 42.2129L13.1379 41.7942C10.8223 41.4379 10.5348 41.3411 10.3661 41.2411C10.1079 41.0845 9.89135 40.868 9.73482 40.6098C9.63482 40.4411 9.53482 40.1536 9.1817 37.8379L8.76295 35.1129C8.68741 34.5347 8.5715 33.9625 8.41607 33.4004C8.26483 32.9078 8.06707 32.4306 7.82545 31.9754C7.55045 31.4567 7.2067 30.9911 6.85982 30.5192L5.22857 28.2973C3.84107 26.4098 3.70982 26.1379 3.65982 25.9442C3.58778 25.6506 3.58778 25.344 3.65982 25.0504C3.70982 24.8598 3.84107 24.5879 5.22857 22.6973L6.85982 20.4754C7.2067 20.0036 7.55045 19.5379 7.82545 19.0192C8.06711 18.5609 8.26399 18.0859 8.41607 17.5942C8.5715 17.0322 8.68741 16.4599 8.76295 15.8817L9.1817 13.1567C9.53795 10.8411 9.63482 10.5536 9.73482 10.3848C9.89135 10.1267 10.1079 9.9101 10.3661 9.75357C10.5348 9.65357 10.8223 9.55357 13.1379 9.20045L15.8629 8.7817C16.4412 8.70616 17.0134 8.59025 17.5754 8.43482C18.0713 8.28274 18.5463 8.08586 19.0004 7.8442C19.5192 7.5692 19.9848 7.22545 20.4567 6.87857L22.6786 5.24732C24.5661 3.85982 24.8379 3.72857 25.0317 3.67857C25.3253 3.60653 25.6319 3.60653 25.9254 3.67857C26.1161 3.72857 26.3879 3.85982 28.2786 5.24732Z" fill="#23366F" stroke="#23366F"/>
</svg>
