<svg width="50" height="50" viewBox="0 0 50 50" fill="none" xmlns="http://www.w3.org/2000/svg">
<path d="M40.625 3.125C42.2826 3.125 43.8723 3.78348 45.0444 4.95558C46.2165 6.12769 46.875 7.7174 46.875 9.375V28.9062C46.875 29.5279 46.6281 30.124 46.1885 30.5635C45.749 31.0031 45.1529 31.25 44.5312 31.25C43.9096 31.25 43.3135 31.0031 42.874 30.5635C42.4344 30.124 42.1875 29.5279 42.1875 28.9062V9.375C42.1875 8.9606 42.0229 8.56317 41.7299 8.27015C41.4368 7.97712 41.0394 7.8125 40.625 7.8125H9.375C8.9606 7.8125 8.56317 7.97712 8.27015 8.27015C7.97712 8.56317 7.8125 8.9606 7.8125 9.375V40.625C7.8125 41.0394 7.97712 41.4368 8.27015 41.7299C8.56317 42.0229 8.9606 42.1875 9.375 42.1875H25.7812C26.4029 42.1875 26.999 42.4344 27.4385 42.874C27.8781 43.3135 28.125 43.9096 28.125 44.5312C28.125 45.1529 27.8781 45.749 27.4385 46.1885C26.999 46.6281 26.4029 46.875 25.7812 46.875H9.375C7.7174 46.875 6.12769 46.2165 4.95558 45.0444C3.78348 43.8723 3.125 42.2826 3.125 40.625V9.375C3.125 7.7174 3.78348 6.12769 4.95558 4.95558C6.12769 3.78348 7.7174 3.125 9.375 3.125H40.625ZM44.4375 35.0625C44.6521 34.8322 44.9108 34.6475 45.1983 34.5194C45.4858 34.3913 45.7962 34.3225 46.1109 34.3169C46.4256 34.3113 46.7382 34.3692 47.03 34.4871C47.3218 34.605 47.5869 34.7804 47.8095 35.003C48.0321 35.2256 48.2075 35.4907 48.3254 35.7825C48.4433 36.0743 48.5012 36.3869 48.4956 36.7016C48.49 37.0163 48.4212 37.3267 48.2931 37.6142C48.165 37.9017 47.9803 38.1604 47.75 38.375L39.9375 46.1875C39.5546 46.5705 39.0508 46.809 38.5119 46.8626C37.9729 46.9161 37.4321 46.7814 36.9812 46.4812L36.625 46.1875L33.5 43.0625L33.3375 42.8875C32.9653 42.438 32.7742 41.8658 32.8015 41.2828C32.8289 40.6999 33.0727 40.1481 33.4854 39.7354C33.8981 39.3227 34.4499 39.0789 35.0328 39.0515C35.6158 39.0242 36.188 39.2153 36.6375 39.5875L36.8125 39.75L38.2812 41.2188L44.4375 35.0625ZM26.0219 32.825C26.5985 32.8848 27.1326 33.1562 27.5208 33.5868C27.909 34.0173 28.1239 34.5765 28.1239 35.1562C28.1239 35.736 27.909 36.2952 27.5208 36.7257C27.1326 37.1563 26.5985 37.4277 26.0219 37.4875L25.7812 37.5H14.8438C14.2221 37.5 13.626 37.2531 13.1865 36.8135C12.7469 36.374 12.5 35.7779 12.5 35.1562C12.5 34.5346 12.7469 33.9385 13.1865 33.499C13.626 33.0594 14.2221 32.8125 14.8438 32.8125H25.7812L26.0219 32.825ZM35.1562 22.6562C35.7779 22.6562 36.374 22.9032 36.8135 23.3427C37.2531 23.7823 37.5 24.3784 37.5 25C37.5 25.6216 37.2531 26.2177 36.8135 26.6573C36.374 27.0968 35.7779 27.3438 35.1562 27.3438H14.8438C14.2221 27.3438 13.626 27.0968 13.1865 26.6573C12.7469 26.2177 12.5 25.6216 12.5 25C12.5 24.3784 12.7469 23.7823 13.1865 23.3427C13.626 22.9032 14.2221 22.6562 14.8438 22.6562H35.1562ZM35.1562 12.5C35.7779 12.5 36.374 12.7469 36.8135 13.1865C37.2531 13.626 37.5 14.2221 37.5 14.8438C37.5 15.4654 37.2531 16.0615 36.8135 16.501C36.374 16.9406 35.7779 17.1875 35.1562 17.1875H14.8438C14.2221 17.1875 13.626 16.9406 13.1865 16.501C12.7469 16.0615 12.5 15.4654 12.5 14.8438C12.5 14.2221 12.7469 13.626 13.1865 13.1865C13.626 12.7469 14.2221 12.5 14.8438 12.5H35.1562Z" fill="#23366F"/>
</svg>
