<svg width="50" height="50" viewBox="0 0 50 50" fill="none" xmlns="http://www.w3.org/2000/svg">
<path fill-rule="evenodd" clip-rule="evenodd" d="M27.5625 14.8813C26.2792 13.975 24.8458 13.9042 23.6188 14.2688C22.9933 14.4567 22.4039 14.7482 21.875 15.1313C21.3461 14.7482 20.7567 14.4567 20.1313 14.2688C18.9042 13.9084 17.4708 13.9771 16.1896 14.8813C15.5534 15.34 15.031 15.9386 14.6626 16.631C14.2942 17.3234 14.0896 18.0911 14.0646 18.875C13.9875 21.2646 15.2688 23.2188 16.6375 24.7105C17.6625 25.8271 18.9146 26.8605 19.9479 27.7167C20.2799 27.9889 20.5826 28.2424 20.8563 28.4771L21.8667 29.3438L22.8833 28.4855C23.1333 28.2743 23.407 28.048 23.7042 27.8063C24.7625 26.9375 26.0583 25.873 27.1208 24.7125C28.4896 23.2167 29.7667 21.2584 29.6833 18.875C29.6588 18.0915 29.4549 17.324 29.0872 16.6316C28.7195 15.9392 28.1979 15.3404 27.5625 14.8813ZM24.5042 17.2646C23.9465 17.4505 23.4526 17.7899 23.0792 18.2438L21.875 19.7021L20.6708 18.2438C20.2971 17.7906 19.8032 17.452 19.2458 17.2667C18.7667 17.125 18.3583 17.1771 17.9896 17.4355C17.7487 17.616 17.5516 17.8485 17.4131 18.1158C17.2745 18.3831 17.1981 18.6783 17.1896 18.9792C17.1521 20.1459 17.7688 21.3209 18.9396 22.5959C19.8063 23.5396 20.8063 24.3667 21.8 25.1917L21.8813 25.2563C22.9 24.4209 23.9333 23.5688 24.8167 22.6021C25.9875 21.3209 26.6 20.1417 26.5604 18.9834C26.5525 18.6817 26.4764 18.3858 26.3379 18.1177C26.1993 17.8496 26.0019 17.6164 25.7604 17.4355L25.7563 17.4334C25.3896 17.173 24.9813 17.123 24.5042 17.2646Z" fill="#23366F"/>
<path d="M32.8125 28.125C33.2269 28.125 33.6243 27.9604 33.9174 27.6674C34.2104 27.3743 34.375 26.9769 34.375 26.5625C34.375 26.1481 34.2104 25.7507 33.9174 25.4576C33.6243 25.1646 33.2269 25 32.8125 25C32.3981 25 32.0007 25.1646 31.7076 25.4576C31.4146 25.7507 31.25 26.1481 31.25 26.5625C31.25 26.9769 31.4146 27.3743 31.7076 27.6674C32.0007 27.9604 32.3981 28.125 32.8125 28.125Z" fill="#23366F"/>
<path fill-rule="evenodd" clip-rule="evenodd" d="M32.1958 8.20003C34.5904 9.16027 36.7057 10.7061 38.3479 12.6959L38.3917 12.75L38.4333 12.8084C39.9495 14.9258 40.797 17.4487 40.8667 20.0521V20.0563C40.8833 20.7438 40.8771 21.3209 40.8708 21.8271C40.8542 23.1625 40.8437 23.9917 41.2854 25.0438L41.425 25.1896C41.6875 25.4604 42.0396 25.8542 42.3875 26.3229C42.7292 26.7834 43.1062 27.3729 43.3771 28.0396C43.6417 28.6959 43.8625 29.575 43.6875 30.5375C43.4958 31.5834 42.8958 32.3334 42.3187 32.825C41.7973 33.2547 41.2117 33.5998 40.5833 33.8479C40.4389 33.9077 40.2979 33.9611 40.1604 34.0084C39.8687 36.0313 39.0146 37.6229 37.6812 38.7563C36.0875 40.1104 34.0917 40.5688 32.3792 40.6813C30.9195 40.7567 29.4561 40.6553 28.0208 40.3792L27.8833 40.6188C27.6333 41.0271 27.2479 41.5229 26.6708 42C25.4979 42.9709 23.7104 43.7209 21.0937 43.7354C19.6083 43.8334 17.8625 43.4167 16.3937 42.7688C14.9479 42.1313 13.2542 41.0396 12.4521 39.4021L12.2375 38.9688V33.5271C8.95 30.8334 6.25 27.0896 6.25 22.1667C6.25 17.9104 8.02708 13.8521 11.1542 10.875C14.275 7.9042 18.4896 6.25003 22.8625 6.25003C26.0753 6.24463 29.254 6.90874 32.1958 8.20003ZM26.95 35.8396L26.9604 35.8438L27.0354 35.8667C27.1062 35.8889 27.2139 35.9195 27.3583 35.9584C27.6437 36.0375 28.0604 36.1417 28.5604 36.2396C29.5812 36.4396 30.8729 36.6042 32.1104 36.5229C33.3708 36.4396 34.3458 36.1229 34.9812 35.5813C35.5396 35.1084 36.1062 34.2334 36.1062 32.3771V30.5854L37.8667 30.3188H37.875L37.9354 30.3063L38.1958 30.25C38.4271 30.1938 38.7208 30.1084 39.0062 29.9917C39.2549 29.8875 39.4368 29.7917 39.5521 29.7042L39.5146 29.6042C39.3866 29.3206 39.2273 29.0523 39.0396 28.8042C38.7872 28.4706 38.51 28.1566 38.2104 27.8646L38.1771 27.8334L38.1604 27.8167L38.1542 27.8104L37.8521 27.5396L37.675 27.1709C36.625 24.9938 36.6625 22.9563 36.6958 21.2854C36.7021 20.8875 36.7104 20.5084 36.7021 20.1542C36.6547 18.4062 36.0907 16.7113 35.0813 15.2834C33.882 13.8527 32.3455 12.743 30.6104 12.0542L30.5771 12.0396L30.5437 12.025C28.1248 10.9596 25.5098 10.4118 22.8667 10.4167C19.5333 10.4167 16.3542 11.6792 14.025 13.8959C11.7042 16.1042 10.4167 19.0834 10.4167 22.1667C10.4167 25.6584 12.4583 28.5209 15.5687 30.8438L16.4042 31.4688V37.8604C16.6958 38.1771 17.2396 38.5896 18.0771 38.9584C19.1583 39.4354 20.2396 39.625 20.8521 39.5771L20.9333 39.5688H21.0167C22.8479 39.5688 23.6792 39.0688 24.0146 38.7917C24.0864 38.7304 24.1539 38.6643 24.2167 38.5938V34.9438L26.9458 35.8396H26.95Z" fill="#23366F"/>
</svg>
