<svg width="50" height="50" viewBox="0 0 50 50" fill="none" xmlns="http://www.w3.org/2000/svg">
<path d="M47.9167 10.4167V39.5833C47.9167 40.7292 47.5091 41.7104 46.6938 42.5271C45.8785 43.3438 44.8973 43.7514 43.75 43.75H37.5C36.9098 43.75 36.4153 43.55 36.0167 43.15C35.6181 42.75 35.4181 42.2556 35.4167 41.6667C35.4153 41.0778 35.6153 40.5833 36.0167 40.1833C36.4181 39.7833 36.9125 39.5833 37.5 39.5833H43.75V10.4167H25V11.4583C25 12.0486 24.8 12.5437 24.4 12.9437C24 13.3437 23.5056 13.5431 22.9167 13.5417C22.3278 13.5403 21.8334 13.3403 21.4334 12.9417C21.0334 12.5431 20.8334 12.0486 20.8334 11.4583V10.3125C20.8334 9.20139 21.2327 8.24653 22.0313 7.44792C22.8299 6.64931 23.7848 6.25 24.8959 6.25H43.75C44.8959 6.25 45.8771 6.65833 46.6938 7.475C47.5105 8.29167 47.9181 9.27222 47.9167 10.4167ZM2.08337 25.0521C2.08337 24.3576 2.23962 23.7153 2.55212 23.125C2.86462 22.5347 3.29865 22.0486 3.85421 21.6667L14.2709 14.2187C14.6528 13.941 15.0438 13.741 15.4438 13.6188C15.8438 13.4965 16.2514 13.4361 16.6667 13.4375C17.082 13.4389 17.4903 13.5 17.8917 13.6208C18.2931 13.7417 18.6834 13.941 19.0625 14.2187L29.4792 21.6667C30.0348 22.0486 30.4688 22.5347 30.7813 23.125C31.0938 23.7153 31.25 24.3576 31.25 25.0521V39.5833C31.25 40.7292 30.8424 41.7104 30.0271 42.5271C29.2118 43.3438 28.2306 43.7514 27.0834 43.75H22.9167C21.7709 43.75 20.7903 43.3424 19.975 42.5271C19.1598 41.7118 18.7514 40.7306 18.75 39.5833V33.3333H14.5834V39.5833C14.5834 40.7292 14.1757 41.7104 13.3605 42.5271C12.5452 43.3438 11.5639 43.7514 10.4167 43.75H6.25004C5.10421 43.75 4.12365 43.3424 3.30837 42.5271C2.4931 41.7118 2.08476 40.7306 2.08337 39.5833V25.0521ZM6.25004 25V39.5833H10.4167V33.3333C10.4167 32.1875 10.825 31.2069 11.6417 30.3917C12.4584 29.5764 13.4389 29.1681 14.5834 29.1667H18.75C19.8959 29.1667 20.8771 29.575 21.6938 30.3917C22.5105 31.2083 22.9181 32.1889 22.9167 33.3333V39.5833H27.0834V25L16.6667 17.6042L6.25004 25ZM36.4584 18.75H38.5417C38.8195 18.75 39.0625 18.6458 39.2709 18.4375C39.4792 18.2292 39.5834 17.9861 39.5834 17.7083V15.625C39.5834 15.3472 39.4792 15.1042 39.2709 14.8958C39.0625 14.6875 38.8195 14.5833 38.5417 14.5833H36.4584C36.1806 14.5833 35.9375 14.6875 35.7292 14.8958C35.5209 15.1042 35.4167 15.3472 35.4167 15.625V17.7083C35.4167 17.9861 35.5209 18.2292 35.7292 18.4375C35.9375 18.6458 36.1806 18.75 36.4584 18.75ZM36.4584 27.0833H38.5417C38.8195 27.0833 39.0625 26.9792 39.2709 26.7708C39.4792 26.5625 39.5834 26.3194 39.5834 26.0417V23.9583C39.5834 23.6806 39.4792 23.4375 39.2709 23.2292C39.0625 23.0208 38.8195 22.9167 38.5417 22.9167H36.4584C36.1806 22.9167 35.9375 23.0208 35.7292 23.2292C35.5209 23.4375 35.4167 23.6806 35.4167 23.9583V26.0417C35.4167 26.3194 35.5209 26.5625 35.7292 26.7708C35.9375 26.9792 36.1806 27.0833 36.4584 27.0833ZM36.4584 35.4167H38.5417C38.8195 35.4167 39.0625 35.3125 39.2709 35.1042C39.4792 34.8958 39.5834 34.6528 39.5834 34.375V32.2917C39.5834 32.0139 39.4792 31.7708 39.2709 31.5625C39.0625 31.3542 38.8195 31.25 38.5417 31.25H36.4584C36.1806 31.25 35.9375 31.3542 35.7292 31.5625C35.5209 31.7708 35.4167 32.0139 35.4167 32.2917V34.375C35.4167 34.6528 35.5209 34.8958 35.7292 35.1042C35.9375 35.3125 36.1806 35.4167 36.4584 35.4167Z" fill="#23366F"/>
</svg>
