<svg width="50" height="50" viewBox="0 0 50 50" fill="none" xmlns="http://www.w3.org/2000/svg">
<path fill-rule="evenodd" clip-rule="evenodd" d="M35.4167 14.5833C35.4167 12.9256 34.7582 11.3359 33.5861 10.1638C32.414 8.99173 30.8243 8.33325 29.1667 8.33325H20.8333C19.1757 8.33325 17.586 8.99173 16.4139 10.1638C15.2418 11.3359 14.5833 12.9256 14.5833 14.5833H12.5C10.8424 14.5833 9.25269 15.2417 8.08058 16.4138C6.90848 17.5859 6.25 19.1756 6.25 20.8333V37.4999C6.25 39.1575 6.90848 40.7472 8.08058 41.9193C9.25269 43.0914 10.8424 43.7499 12.5 43.7499H37.5C39.1576 43.7499 40.7473 43.0914 41.9194 41.9193C43.0915 40.7472 43.75 39.1575 43.75 37.4999V20.8333C43.75 19.1756 43.0915 17.5859 41.9194 16.4138C40.7473 15.2417 39.1576 14.5833 37.5 14.5833H35.4167ZM29.1667 12.4999H20.8333C20.2808 12.4999 19.7509 12.7194 19.3602 13.1101C18.9695 13.5008 18.75 14.0307 18.75 14.5833H31.25C31.25 14.0307 31.0305 13.5008 30.6398 13.1101C30.2491 12.7194 29.7192 12.4999 29.1667 12.4999ZM12.5 18.7499H37.5C38.0525 18.7499 38.5824 18.9694 38.9731 19.3601C39.3638 19.7508 39.5833 20.2807 39.5833 20.8333V37.4999C39.5833 38.0525 39.3638 38.5824 38.9731 38.9731C38.5824 39.3638 38.0525 39.5833 37.5 39.5833H12.5C11.9475 39.5833 11.4176 39.3638 11.0269 38.9731C10.6362 38.5824 10.4167 38.0525 10.4167 37.4999V20.8333C10.4167 20.2807 10.6362 19.7508 11.0269 19.3601C11.4176 18.9694 11.9475 18.7499 12.5 18.7499Z" fill="#23366F"/>
</svg>
