<svg width="152" height="64" viewBox="0 0 152 64" fill="none" xmlns="http://www.w3.org/2000/svg">
<path d="M89.4927 28.1358C89.4927 25.2883 90.6452 22.712 92.9504 20.4069C95.2555 18.1018 97.651 16.9492 100.137 16.9492C104.476 16.9492 107.708 18.26 109.832 20.8815C112.001 23.503 113.086 26.9606 113.086 31.2545C113.086 39.8422 110.713 47.0061 105.967 52.7463C101.222 58.4865 94.9617 62.0345 87.1876 63.3905L84.0011 58.7803C90.9616 56.5203 95.7301 53.4468 98.3064 49.5598C99.3459 48.0231 99.8657 46.8479 99.8657 46.0343C99.8657 43.4128 99.1199 41.6049 97.6284 40.6105C96.182 39.571 95.0069 38.667 94.1029 37.8986C93.199 37.0851 92.408 36.2263 91.73 35.3223C90.2385 33.3336 89.4927 30.9381 89.4927 28.1358ZM127.459 28.1358C127.459 25.2883 128.612 22.712 130.917 20.4069C133.222 18.1018 135.618 16.9492 138.103 16.9492C142.443 16.9492 145.674 18.26 147.799 20.8815C149.968 23.503 151.053 26.9606 151.053 31.2545C151.053 39.8422 148.68 47.0061 143.934 52.7463C139.188 58.4865 132.928 62.0345 125.154 63.3905L121.968 58.7803C128.928 56.5203 133.697 53.4468 136.273 49.5598C137.312 48.0231 137.832 46.8479 137.832 46.0343C137.832 43.4128 137.087 41.6049 135.595 40.6105C134.149 39.571 132.973 38.667 132.069 37.8986C131.166 37.0851 130.375 36.2263 129.697 35.3223C128.205 33.3336 127.459 30.9381 127.459 28.1358Z" fill="#D3E5F4"/>
<path d="M23.5935 35.3225C23.5935 38.1248 22.441 40.6785 20.1358 42.9836C17.8307 45.2887 15.4352 46.4413 12.9493 46.4413C8.61028 46.4413 5.356 45.1305 3.18648 42.509C1.06216 39.8875 0 36.4298 0 32.136C0 23.5483 2.37291 16.3844 7.11873 10.6442C11.8646 4.90402 18.1245 1.35595 25.8986 0L29.0851 4.61023C22.1246 6.87014 17.3561 9.94363 14.7798 13.8307C13.7403 15.3674 13.2205 16.5426 13.2205 17.3561C13.2205 19.9777 13.9437 21.8082 15.39 22.8477C16.8816 23.8421 18.0793 24.7461 18.9833 25.5596C19.8873 26.328 20.6782 27.1642 21.3562 28.0681C22.8477 30.0569 23.5935 32.475 23.5935 35.3225ZM61.5601 35.3225C61.5601 38.1248 60.4075 40.6785 58.1024 42.9836C55.7973 45.2887 53.4018 46.4413 50.9159 46.4413C46.5769 46.4413 43.3226 45.1305 41.1531 42.509C39.0287 39.8875 37.9666 36.4298 37.9666 32.136C37.9666 23.5483 40.3395 16.3844 45.0853 10.6442C49.8311 4.90402 56.0911 1.35595 63.8652 0L67.0517 4.61023C60.0911 6.87014 55.3227 9.94363 52.7464 13.8307C51.7069 15.3674 51.1871 16.5426 51.1871 17.3561C51.1871 19.9777 51.9102 21.8082 53.3566 22.8477C54.8481 23.8421 56.0459 24.7461 56.9499 25.5596C57.8538 26.328 58.6448 27.1642 59.3228 28.0681C60.8143 30.0569 61.5601 32.475 61.5601 35.3225Z" fill="#D3E5F4"/>
</svg>
