<svg width="176" height="61" viewBox="0 0 176 61" fill="none" xmlns="http://www.w3.org/2000/svg">
<path d="M156.934 0.463867C160.49 0.463867 163.428 1.15968 165.747 2.55131C168.067 3.94294 169.999 5.79846 171.546 8.11785C173.247 10.5919 174.329 13.3751 174.793 16.4676C175.411 19.5601 175.721 22.3434 175.721 24.8174C175.721 32.3941 173.788 39.3522 169.922 45.6919C166.056 52.0315 160.026 57.1342 151.831 60.9998L149.743 56.8249C154.382 54.8148 158.403 51.7223 161.804 47.5474C165.206 43.3725 167.062 39.1203 167.371 34.7908C167.525 32.4714 167.371 30.3066 166.907 28.2965C164.124 30.9251 160.722 32.2394 156.702 32.2394C152.217 32.2394 148.429 30.8478 145.337 28.0646C142.244 25.2813 140.698 21.4156 140.698 16.4676C140.698 11.6742 142.244 7.8086 145.337 4.87071C148.584 1.93282 152.449 0.463867 156.934 0.463867ZM114.721 0.463867C118.277 0.463867 121.215 1.15968 123.534 2.55131C125.854 3.94294 127.787 5.79846 129.333 8.11785C131.034 10.5919 132.116 13.3751 132.58 16.4676C133.199 19.5601 133.508 22.3434 133.508 24.8174C133.508 32.3941 131.575 39.3522 127.709 45.6919C123.844 52.0315 117.813 57.1342 109.618 60.9998L107.531 56.8249C112.169 54.8148 116.19 51.7223 119.591 47.5474C122.993 43.3725 124.849 39.1203 125.158 34.7908C125.313 32.4714 125.158 30.3066 124.694 28.2965C121.911 30.9251 118.509 32.2394 114.489 32.2394C110.005 32.2394 106.216 30.8478 103.124 28.0646C100.031 25.2813 98.485 21.4156 98.485 16.4676C98.485 11.6742 100.031 7.8086 103.124 4.87071C106.371 1.93282 110.237 0.463867 114.721 0.463867Z" fill="#F40000"/>
<path d="M18.787 60.5359C15.2306 60.5359 12.2927 59.8401 9.97336 58.4485C7.65397 57.0569 5.72115 55.2014 4.17489 52.882C2.47401 50.408 1.31432 47.6247 0.695816 44.5322C0.231939 41.4397 0 38.6564 0 36.1824C0 28.6057 1.93282 21.6476 5.79846 15.3079C9.66411 8.96828 15.6945 3.86564 23.8897 0L25.9771 4.1749C21.3383 6.18503 17.3181 9.27754 13.9163 13.4524C10.5145 17.6273 8.65904 21.8795 8.34979 26.2091C8.19516 28.5284 8.34979 30.6932 8.81366 32.7033C11.5969 30.0747 14.9987 28.7604 19.019 28.7604C23.5031 28.7604 27.2914 30.152 30.3839 32.9353C33.4765 35.7185 35.0227 39.5842 35.0227 44.5322C35.0227 49.3256 33.3991 53.1912 30.152 56.1291C27.0595 59.067 23.2712 60.5359 18.787 60.5359ZM60.9998 60.5359C57.4434 60.5359 54.5056 59.8401 52.1862 58.4485C49.8668 57.0569 47.934 55.2014 46.3877 52.882C44.6868 50.408 43.5271 47.6247 42.9086 44.5322C42.4448 41.4397 42.2128 38.6564 42.2128 36.1824C42.2128 28.6057 44.1456 21.6476 48.0113 15.3079C51.8769 8.96828 57.9073 3.86564 66.1025 0L68.1899 4.1749C63.5512 6.18503 59.5309 9.27754 56.1291 13.4524C52.7274 17.6273 50.8718 21.8795 50.5626 26.2091C50.408 28.5284 50.5626 30.6932 51.0265 32.7033C53.8097 30.0747 57.2115 28.7604 61.2318 28.7604C65.7159 28.7604 69.5042 30.152 72.5967 32.9353C75.6893 35.7185 77.2355 39.5842 77.2355 44.5322C77.2355 49.3256 75.612 53.1912 72.3648 56.1291C69.2723 59.067 65.484 60.5359 60.9998 60.5359Z" fill="#F40000"/>
</svg>
