<svg width="90" height="58" viewBox="0 0 90 58" fill="none" xmlns="http://www.w3.org/2000/svg">
<path d="M22.5 33.2777C21.7445 33.9575 21.1404 34.7886 20.7269 35.7171C20.3134 36.6455 20.0997 37.6505 20.0997 38.6668C20.0997 39.6832 20.3134 40.6882 20.7269 41.6166C21.1404 42.545 21.7445 43.3761 22.5 44.056V48.3335C22.5 49.6154 21.9908 50.8448 21.0843 51.7512C20.1779 52.6576 18.9485 53.1668 17.6667 53.1668H12.8333C11.5515 53.1668 10.3221 52.6576 9.41565 51.7512C8.50923 50.8448 8 49.6154 8 48.3335V44.056C8.75549 43.3761 9.35959 42.545 9.77311 41.6166C10.1866 40.6882 10.4003 39.6832 10.4003 38.6668C10.4003 37.6505 10.1866 36.6455 9.77311 35.7171C9.35959 34.7886 8.75549 33.9575 8 33.2777V21.7502C10.4069 18.11 11.9829 13.9846 12.6158 9.66683H10.4167V4.8335H20.0833V9.66683H17.8842C18.5171 13.9846 20.0931 18.11 22.5 21.7502V33.2777Z" fill="#F40000"/>
<path d="M52.5 33.2777C51.7445 33.9575 51.1404 34.7886 50.7269 35.7171C50.3134 36.6455 50.0997 37.6505 50.0997 38.6668C50.0997 39.6832 50.3134 40.6882 50.7269 41.6166C51.1404 42.545 51.7445 43.3761 52.5 44.056V48.3335C52.5 49.6154 51.9908 50.8448 51.0843 51.7512C50.1779 52.6576 48.9485 53.1668 47.6667 53.1668H42.8333C41.5515 53.1668 40.3221 52.6576 39.4157 51.7512C38.5092 50.8448 38 49.6154 38 48.3335V44.056C38.7555 43.3761 39.3596 42.545 39.7731 41.6166C40.1866 40.6882 40.4003 39.6832 40.4003 38.6668C40.4003 37.6505 40.1866 36.6455 39.7731 35.7171C39.3596 34.7886 38.7555 33.9575 38 33.2777V21.7502C40.4069 18.11 41.9829 13.9846 42.6158 9.66683H40.4167V4.8335H50.0833V9.66683H47.8842C48.5171 13.9846 50.0931 18.11 52.5 21.7502V33.2777Z" fill="#F40000"/>
<path d="M82.5 33.2777C81.7445 33.9575 81.1404 34.7886 80.7269 35.7171C80.3134 36.6455 80.0997 37.6505 80.0997 38.6668C80.0997 39.6832 80.3134 40.6882 80.7269 41.6166C81.1404 42.545 81.7445 43.3761 82.5 44.056V48.3335C82.5 49.6154 81.9908 50.8448 81.0843 51.7512C80.1779 52.6576 78.9485 53.1668 77.6667 53.1668H72.8333C71.5515 53.1668 70.3221 52.6576 69.4157 51.7512C68.5092 50.8448 68 49.6154 68 48.3335V44.056C68.7555 43.3761 69.3596 42.545 69.7731 41.6166C70.1866 40.6882 70.4003 39.6832 70.4003 38.6668C70.4003 37.6505 70.1866 36.6455 69.7731 35.7171C69.3596 34.7886 68.7555 33.9575 68 33.2777V21.7502C70.4069 18.11 71.9829 13.9846 72.6158 9.66683H70.4167V4.8335H80.0833V9.66683H77.8842C78.5171 13.9846 80.0931 18.11 82.5 21.7502V33.2777Z" fill="#F40000"/>
</svg>
